<svg width="145" height="69" viewBox="0 0 145 69" fill="none" xmlns="http://www.w3.org/2000/svg">
<g filter="url(#filter0_d_261_1806)">
<mask id="path-1-inside-1_261_1806" fill="white">
<path fill-rule="evenodd" clip-rule="evenodd" d="M125.062 14L119 5L112.938 14H8C6.89543 14 6 14.8954 6 16V60C6 61.1046 6.89543 62 8 62H137C138.105 62 139 61.1046 139 60V16C139 14.8954 138.105 14 137 14H125.062Z"/>
</mask>
<path fill-rule="evenodd" clip-rule="evenodd" d="M125.062 14L119 5L112.938 14H8C6.89543 14 6 14.8954 6 16V60C6 61.1046 6.89543 62 8 62H137C138.105 62 139 61.1046 139 60V16C139 14.8954 138.105 14 137 14H125.062Z" fill="white"/>
<path d="M119 5L119.829 4.44134L119 3.21001L118.171 4.44134L119 5ZM125.062 14L124.233 14.5587L124.53 15H125.062V14ZM112.938 14V15H113.47L113.767 14.5587L112.938 14ZM118.171 5.55866L124.233 14.5587L125.892 13.4413L119.829 4.44134L118.171 5.55866ZM113.767 14.5587L119.829 5.55866L118.171 4.44134L112.108 13.4413L113.767 14.5587ZM8 15H112.938V13H8V15ZM7 16C7 15.4477 7.44772 15 8 15V13C6.34315 13 5 14.3431 5 16H7ZM7 60V16H5V60H7ZM8 61C7.44772 61 7 60.5523 7 60H5C5 61.6569 6.34315 63 8 63V61ZM137 61H8V63H137V61ZM138 60C138 60.5523 137.552 61 137 61V63C138.657 63 140 61.6569 140 60H138ZM138 16V60H140V16H138ZM137 15C137.552 15 138 15.4477 138 16H140C140 14.3431 138.657 13 137 13V15ZM125.062 15H137V13H125.062V15Z" fill="#ECECEC" mask="url(#path-1-inside-1_261_1806)"/>
</g>
<defs>
<filter id="filter0_d_261_1806" x="0" y="0" width="145" height="69" filterUnits="userSpaceOnUse" color-interpolation-filters="sRGB">
<feFlood flood-opacity="0" result="BackgroundImageFix"/>
<feColorMatrix in="SourceAlpha" type="matrix" values="0 0 0 0 0 0 0 0 0 0 0 0 0 0 0 0 0 0 127 0" result="hardAlpha"/>
<feOffset dy="1"/>
<feGaussianBlur stdDeviation="3"/>
<feColorMatrix type="matrix" values="0 0 0 0 0 0 0 0 0 0 0 0 0 0 0 0 0 0 0.08 0"/>
<feBlend mode="normal" in2="BackgroundImageFix" result="effect1_dropShadow_261_1806"/>
<feBlend mode="normal" in="SourceGraphic" in2="effect1_dropShadow_261_1806" result="shape"/>
</filter>
</defs>
</svg>
