<svg width="17" height="16" viewBox="0 0 17 16" fill="none" xmlns="http://www.w3.org/2000/svg">
<path d="M13.8333 12.1667H16.3333L13 15.5L9.66667 12.1667H12.1667V0.5H13.8333V12.1667ZM3.83333 0.5C1.99167 0.5 0.5 1.99167 0.5 3.83333C0.5 5.675 1.99167 7.16667 3.83333 7.16667C5.675 7.16667 7.16667 5.675 7.16667 3.83333C7.16667 1.99167 5.675 0.5 3.83333 0.5ZM3.83333 5.5C2.91667 5.5 2.16667 4.75 2.16667 3.83333C2.16667 2.91667 2.91667 2.16667 3.83333 2.16667C4.75 2.16667 5.5 2.91667 5.5 3.83333C5.5 4.75 4.75 5.5 3.83333 5.5ZM3.83333 8.83333C1.99167 8.83333 0.5 10.325 0.5 12.1667C0.5 14.0083 1.99167 15.5 3.83333 15.5C5.675 15.5 7.16667 14.0083 7.16667 12.1667C7.16667 10.325 5.675 8.83333 3.83333 8.83333Z" fill="#666666"/>
</svg>
