<svg width="16" height="16" viewBox="0 0 16 16" fill="none" xmlns="http://www.w3.org/2000/svg">
<rect x="0.5" y="0.5" width="15" height="15" stroke="#CDCDCD"/>
<rect width="16" height="16" fill="white"/>
<path d="M6.88085 10.1236L5.06987 8.24194C4.89665 8.0593 4.80005 7.81711 4.80005 7.56527C4.80005 7.31343 4.89665 7.07118 5.06987 6.88854C5.1537 6.79997 5.25467 6.72943 5.36664 6.68122C5.47861 6.63302 5.59919 6.60814 5.72108 6.60814C5.84297 6.60814 5.96361 6.63302 6.07558 6.68122C6.18755 6.72943 6.28851 6.79997 6.37234 6.88854L7.53094 8.08987L10.4278 5.07972C10.5117 4.99135 10.6127 4.92101 10.7247 4.87293C10.8366 4.82486 10.9572 4.80005 11.079 4.80005C11.2008 4.80005 11.3214 4.82486 11.4333 4.87293C11.5453 4.92101 11.6463 4.99135 11.7302 5.07972C11.9034 5.26235 12 5.5046 12 5.75644C12 6.00828 11.9034 6.25052 11.7302 6.43316L8.18259 10.1196C8.09869 10.2082 7.99762 10.2788 7.88558 10.327C7.77355 10.3752 7.65289 10.4 7.53094 10.4C7.40899 10.4 7.28829 10.3752 7.17625 10.327C7.06421 10.2788 6.96319 10.2082 6.87929 10.1196L6.88085 10.1236Z" fill="#333333"/>
</svg>
