<svg width="102" height="16" viewBox="0 0 102 16" fill="none" xmlns="http://www.w3.org/2000/svg">
<path d="M6.78736 0.519775H0.0517578V15.5751H2.08661V9.21296H6.78736C8.29418 9.21296 9.41464 8.77508 10.1358 7.89932C10.8699 7.03644 11.2305 6.00614 11.2305 4.83417C11.2305 3.46902 10.8184 2.41296 10.0071 1.65311C9.1957 0.89326 8.11388 0.519775 6.78736 0.519775ZM8.33282 6.89478C7.76615 7.28114 7.03206 7.47432 6.11767 7.47432H2.08661V2.25841H6.11767C6.90327 2.25841 7.50858 2.36144 7.95933 2.58038C8.7707 2.97962 9.18282 3.72659 9.18282 4.83417C9.18282 5.82584 8.89948 6.50841 8.33282 6.89478Z" fill="white"/>
<path d="M21.6235 0.506836L17.2963 7.74471L12.969 0.506836H10.5864L16.2788 9.49623V15.5621H18.3137V9.49623L24.019 0.506836H21.6235Z" fill="white"/>
<path d="M47.3941 12.6774L39.8858 0.519775H39.4351H37.4775H36.5244L32.2229 13.244L27.8957 0.519775H24.9722V15.5751H26.9169V6.68871C26.9169 6.34099 26.904 5.7872 26.8782 5.02735C26.8525 4.2675 26.8525 3.71371 26.8525 3.34023V2.86371L31.1926 15.5622H33.2146L37.4646 3.00538V15.5622H37.4775H39.4222H39.4351V3.43038L47.0464 15.5622H49.3388V0.519775H47.3941V12.6774Z" fill="white"/>
<path d="M50.4077 0.519775V2.30993H55.4691V15.5622H57.5297V2.30993H62.6039V0.519775H50.4077Z" fill="white"/>
<path d="M72.8038 8.28551C72.2629 7.88627 71.503 7.5643 70.5242 7.33248L68.4765 6.85597C67.0985 6.534 66.2227 6.25067 65.8235 6.03173C65.231 5.69688 64.9348 5.15597 64.9348 4.409C64.9348 3.7393 65.1795 3.14688 65.6947 2.6446C66.1969 2.14233 67.0212 1.88476 68.1803 1.88476C69.6098 1.88476 70.6144 2.27112 71.2197 3.0696C71.5416 3.4946 71.7477 4.11279 71.8507 4.92415H73.7697C73.7697 3.24991 73.2288 2.0393 72.1598 1.26657C71.0909 0.506725 69.7773 0.120361 68.2447 0.120361C66.5833 0.120361 65.2954 0.558241 64.381 1.42112C63.4795 2.284 63.0159 3.39157 63.0159 4.74385C63.0159 5.99309 63.4795 6.93324 64.4068 7.5643C64.9477 7.92491 65.8492 8.25976 67.15 8.55597L69.1204 9.01961C70.1894 9.27718 70.975 9.57339 71.4773 9.90824C71.9666 10.256 72.2242 10.8355 72.2242 11.6598C72.2242 12.7545 71.6318 13.5143 70.4598 13.9393C69.8545 14.1582 69.1848 14.2613 68.4507 14.2613C66.8023 14.2613 65.656 13.759 65.0121 12.7673C64.6773 12.2393 64.4712 11.5438 64.4326 10.681H62.5136C62.4879 12.3037 63.003 13.5916 64.0333 14.5446C65.0636 15.4976 66.4932 15.9742 68.3219 15.9742C69.8932 15.9742 71.2583 15.6135 72.4432 14.8923C73.628 14.1711 74.2204 12.9863 74.2204 11.3249C74.1947 10.0113 73.731 8.99385 72.8038 8.28551Z" fill="white"/>
<path d="M83.2873 8.63338C83.8024 9.03262 84.1115 9.72807 84.2145 10.7069H83.0168C82.9395 10.2561 82.7721 9.88262 82.5145 9.58641C82.257 9.2902 81.832 9.13565 81.2653 9.13565C80.4797 9.13565 79.9259 9.52202 79.5782 10.2819C79.3592 10.7713 79.2562 11.3894 79.2562 12.1107C79.2562 12.8447 79.4108 13.4629 79.7198 13.9652C80.0289 14.4675 80.5183 14.7122 81.1751 14.7122C81.6774 14.7122 82.0895 14.5576 82.3858 14.2485C82.682 13.9394 82.888 13.5144 83.0039 12.9735H84.2017C84.06 13.9394 83.7251 14.6478 83.1714 15.0985C82.6304 15.5493 81.9221 15.7682 81.0721 15.7682C80.1191 15.7682 79.3592 15.4205 78.7797 14.7122C78.213 14.0167 77.9297 13.141 77.9297 12.0978C77.9297 10.8099 78.2388 9.81823 78.8698 9.09701C79.488 8.3758 80.2865 8.02808 81.2524 8.02808C82.0895 8.04095 82.7592 8.23414 83.2873 8.63338Z" fill="white"/>
<path d="M90.4605 8.98105C91.1044 9.61211 91.4264 10.5394 91.4264 11.75C91.4264 12.922 91.1431 13.9007 90.5764 14.6735C90.0097 15.4462 89.1211 15.8326 87.9234 15.8326C86.9188 15.8326 86.1332 15.4977 85.5408 14.8151C84.9484 14.1326 84.665 13.2182 84.665 12.072C84.665 10.8485 84.9741 9.86968 85.5923 9.13559C86.2105 8.4015 87.0476 8.04089 88.0908 8.04089C89.0309 8.04089 89.8166 8.34998 90.4605 8.98105ZM89.7006 13.8363C89.9969 13.2182 90.1514 12.5356 90.1514 11.7757C90.1514 11.0932 90.0355 10.5394 89.8294 10.1144C89.4946 9.44468 88.9022 9.10983 88.065 9.10983C87.3181 9.10983 86.7772 9.39317 86.4423 9.97271C86.1075 10.5523 85.94 11.2348 85.94 12.0462C85.94 12.8189 86.1075 13.4757 86.4423 13.9909C86.7772 14.506 87.3181 14.7636 88.0522 14.7636C88.8506 14.7636 89.4044 14.4545 89.7006 13.8363Z" fill="white"/>
<path d="M92.1089 8.24701H93.3195V9.2902C93.6157 8.92959 93.8733 8.67201 94.118 8.50459C94.5172 8.22126 94.9809 8.09247 95.496 8.09247C96.0756 8.09247 96.5521 8.23413 96.8998 8.51747C97.1059 8.68489 97.2862 8.91671 97.4536 9.23868C97.724 8.85232 98.046 8.5561 98.4195 8.36292C98.793 8.16974 99.2051 8.07959 99.6559 8.07959C100.635 8.07959 101.317 8.4402 101.665 9.14853C101.858 9.53489 101.948 10.05 101.948 10.694V15.5622H100.673V10.475C100.673 9.98565 100.544 9.6508 100.313 9.4705C100.068 9.2902 99.7718 9.20004 99.424 9.20004C98.9475 9.20004 98.5225 9.36747 98.1748 9.68944C97.8271 10.0114 97.6468 10.5523 97.6468 11.3122V15.575H96.3975V10.797C96.3975 10.3076 96.3331 9.93413 96.2172 9.7152C96.024 9.38035 95.6763 9.20004 95.174 9.20004C94.7104 9.20004 94.2854 9.38035 93.899 9.74095C93.5255 10.1016 93.3324 10.7455 93.3324 11.6985V15.575H92.1089V8.24701Z" fill="white"/>
<path d="M74.9673 14.5575C74.9673 14.0037 75.418 13.553 75.9718 13.553C76.5256 13.553 76.9764 14.0037 76.9764 14.5575C76.9764 15.1113 76.5256 15.5621 75.9718 15.5621C75.418 15.5621 74.9673 15.1113 74.9673 14.5575Z" fill="white"/>
</svg>
