<svg width="89" height="16" viewBox="0 0 89 16" fill="none" xmlns="http://www.w3.org/2000/svg">
<path d="M40.9039 2.48886H41.7335L42.0002 2.0296H43.6298L43.8965 2.48886H44.8002L43.3483 0.192559H42.3705L40.9039 2.48886ZM43.3779 1.61478H42.252L42.8298 0.651819L43.3779 1.61478ZM39.4816 2.48886H40.2965V0.192559H39.4816V2.48886ZM35.5409 2.48886H36.2668V0.844415H36.2816L37.5557 2.48886H38.6372V0.192559H37.9113V1.837H37.8965L36.6224 0.192559H35.5557V2.48886H35.5409ZM32.7409 0.637004H33.2742C33.6594 0.637004 33.8816 0.681451 33.8816 0.903673C33.8816 1.08145 33.7631 1.17034 33.3928 1.17034H32.7409V0.637004ZM31.9261 2.48886H32.7409V1.6296H33.2891C33.615 1.6296 33.7335 1.68886 33.7928 1.79256C33.8668 1.95552 33.852 2.28145 33.9409 2.50367H34.8002C34.6816 2.26663 34.6668 1.77775 34.5335 1.57034C34.4446 1.42219 34.2224 1.37774 33.9854 1.37774C34.4002 1.31849 34.6965 1.11108 34.6965 0.814783C34.6965 0.414783 34.3113 0.207375 33.6446 0.207375H31.9409V2.48886H31.9261ZM27.7779 1.34812C27.7779 2.04441 28.2668 2.54812 29.4372 2.54812C30.6076 2.54812 31.0965 2.0296 31.0965 1.34812C31.0965 0.651821 30.6076 0.148117 29.4372 0.148117C28.2668 0.133302 27.7779 0.651821 27.7779 1.34812ZM28.6076 1.34812C28.6076 0.948117 28.815 0.607377 29.4372 0.607377C30.0594 0.607377 30.2668 0.948117 30.2668 1.34812C30.2668 1.74812 30.0594 2.08886 29.4372 2.08886C28.815 2.08886 28.6076 1.74812 28.6076 1.34812ZM24.8298 2.48886H25.6446V1.6296H27.0224V1.15552H25.6446V0.681451H27.0965V0.192559H24.8298V2.48886ZM23.1113 2.48886H23.9261V0.192559H23.1113V2.48886ZM20.0891 2.48886H22.4891V2.01478H20.9039V0.192559H20.0891V2.48886ZM15.4965 2.48886H16.3261L16.5928 2.0296H18.2224L18.4891 2.48886H19.3928L17.9409 0.192559H16.9631L15.4965 2.48886ZM17.9854 1.61478H16.8594L17.4372 0.651819L17.9854 1.61478ZM15.0372 0.948116C15.0224 0.340708 14.3409 0.133301 13.6298 0.133301C12.6372 0.133301 11.9854 0.488858 11.9854 1.34812C11.9854 2.20738 12.6668 2.54812 13.5113 2.54812C14.3557 2.54812 15.0372 2.38515 15.0668 1.70367H14.2076C14.1779 1.98515 13.8965 2.07404 13.5854 2.07404C13.0372 2.07404 12.815 1.7333 12.815 1.31849C12.815 0.903671 13.0668 0.592561 13.6002 0.592561C13.9113 0.592561 14.1631 0.681448 14.2076 0.9333H15.0372V0.948116Z" fill="white"/>
<path d="M5.28896 3.76295L3.89636 7.92592H6.66673L5.28896 3.76295ZM4.00007 0.533325H6.54821L10.5186 12.4741H8.16303L7.24451 9.67406H3.3334L2.41488 12.4741H0.0593262L4.00007 0.533325Z" fill="white"/>
<path d="M13.1111 6.32585V10.0147C13.4222 10.237 13.7185 10.3999 14 10.5036C14.2815 10.6073 14.563 10.6666 14.8148 10.6666C15.2889 10.6666 15.6889 10.4592 16.0148 10.0592C16.3556 9.65918 16.5185 9.00733 16.5185 8.08881C16.5185 7.28881 16.3408 6.6814 16 6.2814C15.6593 5.8814 15.2445 5.674 14.7704 5.674C14.5334 5.674 14.2815 5.73326 14 5.83696C13.7334 5.95548 13.4371 6.11844 13.1111 6.32585ZM13.1111 4.85918C13.4815 4.50363 13.8667 4.25178 14.2519 4.074C14.6371 3.89622 15.0074 3.82214 15.3926 3.82214C15.8815 3.82214 16.4148 3.99992 16.9778 4.34066C17.5408 4.6814 17.9704 5.19992 18.2815 5.88141C18.5926 6.56289 18.7408 7.33326 18.7408 8.16289C18.7408 9.52585 18.3852 10.6073 17.6889 11.4073C16.9926 12.2073 16.2371 12.6073 15.4371 12.6073C15.0963 12.6073 14.7556 12.5333 14.4148 12.3703C14.0741 12.2221 13.6445 11.9258 13.1111 11.4814V15.8962H10.8889V3.95548H13.1111V4.85918Z" fill="white"/>
<path d="M21.6741 6.32585V10.0147C21.9852 10.237 22.2815 10.3999 22.563 10.5036C22.8445 10.6073 23.126 10.6666 23.3778 10.6666C23.8519 10.6666 24.2519 10.4592 24.5778 10.0592C24.9186 9.65918 25.0815 9.00733 25.0815 8.08881C25.0815 7.28881 24.9038 6.6814 24.563 6.2814C24.2223 5.8814 23.8075 5.674 23.3334 5.674C23.0963 5.674 22.8445 5.73326 22.563 5.83696C22.3112 5.95548 22.0149 6.11844 21.6741 6.32585ZM21.6741 4.85918C22.0445 4.50363 22.4297 4.25178 22.8149 4.074C23.2001 3.89622 23.5704 3.82214 23.9556 3.82214C24.4445 3.82214 24.9778 3.99992 25.5408 4.34066C26.1038 4.6814 26.5334 5.19992 26.8445 5.88141C27.1556 6.56289 27.3038 7.33326 27.3038 8.16289C27.3038 9.52585 26.9482 10.6073 26.2519 11.4073C25.5556 12.2073 24.8001 12.6073 24.0001 12.6073C23.6593 12.6073 23.3186 12.5333 22.9778 12.3703C22.6371 12.2221 22.2075 11.9258 21.6741 11.4814V15.8962H19.4519V3.95548H21.6741V4.85918V4.85918Z" fill="white"/>
<path d="M32.6222 10.237V8.10363C31.3481 8.34067 30.474 8.65178 30.0148 9.06659C29.6444 9.3777 29.4666 9.71844 29.4666 10.1036C29.4666 10.4147 29.5703 10.6666 29.7778 10.874C29.9852 11.0814 30.2518 11.1851 30.5778 11.1851C30.8592 11.1851 31.1703 11.111 31.5111 10.9481C31.837 10.7851 32.2222 10.5481 32.6222 10.237ZM27.7037 5.36289C28.1333 4.85918 28.6518 4.48881 29.2444 4.22215C29.8518 3.95548 30.4889 3.82214 31.1703 3.82214C31.8815 3.82214 32.5037 3.94066 33.0518 4.19251C33.4518 4.38511 33.7926 4.69622 34.074 5.12585C34.3703 5.55548 34.5037 6.10363 34.5037 6.75548V10.7258C34.5037 10.9777 34.5333 11.274 34.5926 11.6296C34.6518 11.9851 34.7259 12.2666 34.8 12.474H32.874C32.7852 12.1925 32.7111 11.8962 32.6666 11.5999C32.2666 11.9407 31.8666 12.1925 31.437 12.3703C31.0074 12.5481 30.5778 12.6221 30.1333 12.6221C29.3481 12.6221 28.6963 12.3851 28.1926 11.9258C27.6889 11.4666 27.437 10.9036 27.437 10.2666C27.437 9.82214 27.5555 9.39252 27.7926 8.99252C28.0296 8.59252 28.3703 8.23696 28.8148 7.94066C29.2592 7.64437 29.837 7.40733 30.5185 7.21474C31.037 7.08141 31.7333 6.96289 32.5926 6.874C32.5926 6.51844 32.5629 6.25178 32.5037 6.08881C32.4148 5.83696 32.237 5.64437 32 5.49622C31.7629 5.36289 31.4666 5.28881 31.1111 5.28881C30.2666 5.28881 29.5555 5.65918 28.9778 6.41474L27.7037 5.36289Z" fill="white"/>
<path d="M37.8074 6.00009C38.2963 5.18527 38.7704 4.62231 39.2 4.3112C39.6296 4.00009 40.1185 3.83712 40.6222 3.8075V6.00009H40.4296C39.8815 6.00009 39.3778 6.16305 38.9037 6.48897C38.4296 6.8149 38.0593 7.27416 37.8074 7.88157V12.4742H35.5852V3.95564H37.8074V6.00009Z" fill="white"/>
<path d="M46.3999 7.30379C46.3702 6.65194 46.1776 6.14824 45.8369 5.8075C45.4962 5.45194 45.0813 5.28898 44.5925 5.28898C44.1184 5.28898 43.7184 5.46675 43.3925 5.8075C43.0665 6.14824 42.8739 6.65194 42.8443 7.3186H46.3999V7.30379ZM48.2073 10.4297C47.9999 10.8001 47.8221 11.0816 47.6443 11.2742C47.3776 11.5853 47.0813 11.8371 46.7554 12.0297C46.4295 12.2223 46.1036 12.3705 45.748 12.4742C45.4073 12.5631 45.0369 12.6075 44.6665 12.6075C43.9406 12.6075 43.2295 12.4297 42.5776 12.0593C41.911 11.689 41.4073 11.1556 41.0665 10.4593C40.711 9.76305 40.5332 8.97786 40.5332 8.1186C40.5332 6.80008 40.9184 5.76305 41.6739 4.97786C42.4295 4.19268 43.3925 3.8075 44.5776 3.8075C45.7332 3.8075 46.6517 4.16305 47.348 4.87416C48.0443 5.58527 48.3851 6.57786 48.3851 7.85194C48.3851 8.0149 48.3702 8.26675 48.3554 8.59268H42.8443C42.8739 9.36305 43.0517 9.94083 43.3925 10.3112C43.7332 10.6816 44.1628 10.8742 44.6813 10.8742C45.0813 10.8742 45.4073 10.7705 45.6888 10.5779C45.9702 10.3705 46.2073 10.089 46.3999 9.68897L48.2073 10.4297Z" fill="white"/>
<path d="M51.1704 0.355469H48.9778V12.4888H51.1704V0.355469Z" fill="white"/>
<path d="M52.6963 0.533325H55.2296L60.237 8.54814V0.533325H62.6074V12.4741H60.237L55.0963 4.14814V12.4741H52.6963V0.533325Z" fill="white"/>
<path d="M68.9779 7.30379C68.9483 6.65194 68.7557 6.14824 68.415 5.8075C68.0742 5.45194 67.6594 5.28898 67.1705 5.28898C66.6964 5.28898 66.2964 5.46675 65.9705 5.8075C65.6446 6.14824 65.452 6.65194 65.4224 7.3186H68.9779V7.30379ZM70.7705 10.4297C70.5631 10.8001 70.3853 11.0816 70.2075 11.2742C69.9409 11.5853 69.6446 11.8371 69.3187 12.0297C68.9927 12.2223 68.6668 12.3705 68.3113 12.4742C67.9705 12.5631 67.6001 12.6075 67.2298 12.6075C66.5038 12.6075 65.7927 12.4297 65.1409 12.0593C64.4742 11.689 63.9705 11.1556 63.6298 10.4593C63.2742 9.76305 63.0964 8.97786 63.0964 8.1186C63.0964 6.80008 63.4816 5.76305 64.2372 4.97786C64.9927 4.19268 65.9557 3.8075 67.1409 3.8075C68.2964 3.8075 69.215 4.16305 69.9113 4.87416C70.6075 5.58527 70.9483 6.57786 70.9483 7.85194C70.9483 8.0149 70.9335 8.26675 70.9187 8.59268H65.4075C65.4372 9.36305 65.615 9.94083 65.9557 10.3112C66.2964 10.6816 66.7261 10.8742 67.2446 10.8742C67.6446 10.8742 67.9705 10.7705 68.252 10.5779C68.5335 10.3705 68.7705 10.089 68.9631 9.68897L70.7705 10.4297Z" fill="white"/>
<path d="M70.6667 3.97034H72.6371L74.1186 8.74071L75.5853 3.97034H77.2149L78.6964 8.79997L80.163 3.97034H82.1334L79.526 12.474H77.9853L76.4001 7.34812L74.8149 12.474H73.2742L70.6667 3.97034Z" fill="white"/>
<path d="M83.1113 10.1629C83.541 10.4888 83.941 10.711 84.2817 10.8444C84.6224 10.9777 84.9928 11.037 85.3632 11.037C85.8521 11.037 86.2076 10.9481 86.4299 10.7703C86.6669 10.5925 86.7706 10.3999 86.7706 10.1777C86.7706 9.9703 86.6669 9.7777 86.4595 9.59992C86.2521 9.42214 85.8076 9.274 85.1113 9.15548C83.9706 8.96288 83.1558 8.62215 82.6817 8.14807C82.2076 7.674 81.9706 7.11104 81.9706 6.45918C81.9706 5.76289 82.2817 5.15548 82.8891 4.62215C83.5113 4.08881 84.3113 3.82214 85.3039 3.82214C85.8669 3.82214 86.415 3.91103 86.9187 4.074C87.4224 4.23696 87.9706 4.56289 88.5632 5.02214L87.2891 6.074C86.6817 5.71844 86.2521 5.49622 86.0298 5.40733C85.7928 5.33326 85.5706 5.28881 85.3336 5.28881C84.9336 5.28881 84.6224 5.39251 84.3854 5.59992C84.1484 5.80733 84.0298 6.02955 84.0298 6.2814C84.0298 6.50363 84.1336 6.71103 84.3261 6.88881C84.5187 7.06659 85.0076 7.22955 85.778 7.39251C86.8447 7.61474 87.6002 7.8814 88.0299 8.19251C88.6224 8.62214 88.9187 9.18511 88.9187 9.89622C88.9187 10.6518 88.6076 11.2888 88.0002 11.8221C87.378 12.3555 86.4891 12.6221 85.3187 12.6221C84.5928 12.6221 83.941 12.5036 83.3928 12.2518C82.8447 12.0147 82.2965 11.6147 81.7632 11.0666L83.1113 10.1629Z" fill="white"/>
</svg>
