<svg width="40" height="40" viewBox="0 0 40 40" fill="none" xmlns="http://www.w3.org/2000/svg">
<circle cx="20" cy="20" r="20" fill="#ECECEC"/>
<path d="M13.4306 22.096V26H11.6546V15.04H15.8146C18.2893 15.04 19.5266 16.2027 19.5266 18.528C19.5266 20.0853 18.9293 21.1413 17.7346 21.696L19.5426 26H17.5906L16.0066 22.096H13.4306ZM17.7026 18.544C17.7026 17.232 17.0733 16.576 15.8146 16.576H13.4306V20.56H15.8466C16.4866 20.56 16.956 20.3787 17.2546 20.016C17.5533 19.6427 17.7026 19.152 17.7026 18.544ZM23.3213 26H21.5453V15.04H23.3213V19.984L24.9533 19.856L27.1933 15.04H29.2253L26.5213 20.544L29.3373 26H27.2733L24.9533 21.424L23.3213 21.536V26Z" fill="#333333"/>
</svg>
