<svg width="88" height="88" viewBox="0 0 88 88" fill="none" xmlns="http://www.w3.org/2000/svg">
<g filter="url(#filter0_d_7_7999)">
<circle cx="43" cy="42" r="40" fill="url(#paint0_linear_7_7999)"/>
</g>
<path fill-rule="evenodd" clip-rule="evenodd" d="M50.581 31.7322H39.0164V29.9053H50.581V31.7322Z" fill="white"/>
<path fill-rule="evenodd" clip-rule="evenodd" d="M45.5203 34.6192H39.0164V32.7922H45.5203V34.6192Z" fill="white"/>
<path fill-rule="evenodd" clip-rule="evenodd" d="M44.8061 45.0876H46.9071C48.8663 45.0876 50.3063 46.8967 50.0012 48.7782L50.0007 48.7812L49.006 54.7852C48.9747 55.4412 48.5976 55.987 48.2102 56.3381C47.8015 56.7085 47.2133 57.0177 46.5783 57.0177V56.1042V55.1907C46.6375 55.1907 46.8075 55.1437 46.9834 54.9843C47.1582 54.8259 47.18 54.704 47.1811 54.6977C47.1811 54.6975 47.1811 54.6977 47.1811 54.6977L47.1812 54.6223L48.1978 48.4857C48.1978 48.4854 48.1977 48.4861 48.1978 48.4857C48.3305 47.6637 47.6881 46.9146 46.9071 46.9146H44.8061V45.0876ZM46.5783 56.1042V55.1907H38.3021C37.9106 55.1907 37.7242 55.1211 37.6338 55.0728C37.5427 55.0242 37.4709 54.9575 37.3494 54.8075C37.3362 54.7913 37.3205 54.7712 37.3024 54.748C37.191 54.6056 36.9892 54.3476 36.7332 54.1556C36.378 53.8892 35.9475 53.7474 35.4155 53.7474H33.2415V55.5744H35.4155C35.5862 55.5744 35.6271 55.6089 35.6358 55.6162C35.6355 55.616 35.6364 55.6166 35.6358 55.6162C35.6848 55.6529 35.7159 55.6912 35.8186 55.8193C35.8486 55.8569 35.8849 55.9022 35.9298 55.9576C36.1006 56.1685 36.3576 56.4626 36.7735 56.6846C37.1901 56.9069 37.6888 57.0177 38.3021 57.0177H46.5783V56.1042Z" fill="white"/>
<path fill-rule="evenodd" clip-rule="evenodd" d="M41.3872 38.5838C42.0767 38.5386 43.0317 38.735 43.6074 39.4587L43.6136 39.4665C44.285 40.3299 45.0117 41.3019 45.0117 43.0967C45.0117 43.9808 44.7853 44.6735 44.5833 45.1886C44.5288 45.3277 44.487 45.4282 44.451 45.5151C44.4098 45.6142 44.376 45.6956 44.3389 45.7964C44.2869 45.9376 44.2815 45.9871 44.281 45.987C44.281 45.987 44.281 45.9871 44.281 45.987L44.281 47.1513C44.281 48.3118 43.96 49.2734 43.3236 50.0718C42.707 50.8455 41.8447 51.4026 40.8762 51.8675L40.0856 50.2204C40.944 49.8084 41.525 49.3972 41.8949 48.9331C42.2452 48.4937 42.454 47.947 42.454 47.1525V45.985C42.454 45.6661 42.5478 45.3734 42.6244 45.1653C42.6659 45.0527 42.729 44.8987 42.7868 44.7577C42.823 44.6695 42.8571 44.5864 42.8824 44.5216C43.0458 44.105 43.1848 43.6558 43.1848 43.0967C43.1848 41.9318 42.7788 41.3691 42.1714 40.5882L42.8925 40.0274L42.1776 40.596C42.1535 40.5658 42.0882 40.509 41.9518 40.4626C41.8174 40.4169 41.6569 40.397 41.5066 40.4068C41.4652 40.4095 41.4276 40.4143 41.3944 40.4203V40.9409C41.3944 42.6201 40.2548 44.1139 39.2197 45.0989C38.6795 45.613 38.1116 46.0426 37.6175 46.3492C37.3711 46.5021 37.1303 46.6325 36.9101 46.7279C36.7225 46.8092 36.4407 46.915 36.151 46.915H33.2646L33.2644 45.0881H36.0897C36.1075 45.0821 36.1386 45.0711 36.1836 45.0516C36.3001 45.0011 36.4604 44.9172 36.6541 44.7969C37.0404 44.5572 37.5093 44.2046 37.9602 43.7755C38.9074 42.8742 39.5674 41.8376 39.5674 40.9409V40.1553C39.5674 39.559 39.9213 39.1458 40.2788 38.9192C40.6209 38.7024 41.0237 38.6076 41.3872 38.5838Z" fill="white"/>
<path fill-rule="evenodd" clip-rule="evenodd" d="M28 43.626H34.1569V57.0176H28V43.626ZM29.827 45.4529V55.1906H32.3299V45.4529H29.827Z" fill="white"/>
<path fill-rule="evenodd" clip-rule="evenodd" d="M33.9752 25.9593C33.6758 25.9593 33.4454 26.1897 33.4454 26.4891V38.7663C33.4454 39.0656 33.6758 39.2961 33.9752 39.2961H38.3051V41.1231H33.9752C32.6668 41.1231 31.6184 40.0746 31.6184 38.7663V26.4891C31.6184 25.1807 32.6668 24.1323 33.9752 24.1323H55.6429C56.9513 24.1323 57.9997 25.1807 57.9997 26.4891V38.7663C57.9997 40.0746 56.9513 41.1231 55.6429 41.1231H54.3823V43.827C54.3823 45.3875 52.4348 46.0396 51.4779 44.8607L48.0096 41.1231H45.5216V39.2961H48.8067L52.5554 43.3359V39.2961H55.6429C55.9423 39.2961 56.1728 39.0656 56.1728 38.7663V26.4891C56.1728 26.1897 55.9423 25.9593 55.6429 25.9593H33.9752Z" fill="white"/>
<defs>
<filter id="filter0_d_7_7999" x="0" y="0" width="88" height="88" filterUnits="userSpaceOnUse" color-interpolation-filters="sRGB">
<feFlood flood-opacity="0" result="BackgroundImageFix"/>
<feColorMatrix in="SourceAlpha" type="matrix" values="0 0 0 0 0 0 0 0 0 0 0 0 0 0 0 0 0 0 127 0" result="hardAlpha"/>
<feOffset dx="1" dy="2"/>
<feGaussianBlur stdDeviation="2"/>
<feColorMatrix type="matrix" values="0 0 0 0 0 0 0 0 0 0 0 0 0 0 0 0 0 0 0.13 0"/>
<feBlend mode="normal" in2="BackgroundImageFix" result="effect1_dropShadow_7_7999"/>
<feBlend mode="normal" in="SourceGraphic" in2="effect1_dropShadow_7_7999" result="shape"/>
</filter>
<linearGradient id="paint0_linear_7_7999" x1="3" y1="2" x2="84.5354" y2="3.59676" gradientUnits="userSpaceOnUse">
<stop stop-color="#FF4D79"/>
<stop offset="1" stop-color="#FF8040"/>
</linearGradient>
</defs>
</svg>
