<svg width="55" height="16" viewBox="0 0 55 16" fill="none" xmlns="http://www.w3.org/2000/svg">
<path d="M4.3302 16H8.98355L11.2887 7.44533L13.5938 16H18.2041L22.5127 0H18.2256L15.942 8.81067L13.5723 0H9.19898L6.85435 8.74667L4.58872 0H0L4.3302 16ZM22.7712 16H27.3815L29.6866 7.46667L31.9702 16H36.6236L40.9538 0H36.602L34.34 8.74667L31.9882 0H27.6185L25.2272 8.85333L23.0729 0.554666L20.8323 8.87467L22.7712 16ZM44.7023 11.9111V4.08889H45.9913C48.9427 4.08889 50.2138 5.11289 50.2138 8C50.2138 10.8871 48.9427 11.9111 45.9913 11.9111H44.7023ZM45.9087 16C50.6267 16 55 14.3147 55 8C55 1.68533 50.6267 0 45.9087 0H41.6647L39.9628 6.29333V16H45.9087Z" fill="white"/>
</svg>
