<svg width="88" height="88" viewBox="0 0 88 88" fill="none" xmlns="http://www.w3.org/2000/svg">
<g filter="url(#filter0_d_7_7970)">
<circle cx="43" cy="42" r="40" fill="url(#paint0_linear_7_7970)"/>
</g>
<g clip-path="url(#clip0_7_7970)">
<path fill-rule="evenodd" clip-rule="evenodd" d="M55.1786 40.6337C56.6906 40.2826 58.1699 40.758 58.8254 41.6648C59.0131 41.9244 59.0513 42.2636 58.9262 42.5586C58.5821 43.3695 57.8259 44.6402 57.1252 45.7363C56.4345 46.8168 55.7086 47.8669 55.3908 48.2215C55.0889 48.5644 53.9035 49.7676 52.7108 50.8777C52.1088 51.438 51.4861 51.9923 50.958 52.4112C50.6958 52.6192 50.4389 52.8082 50.209 52.9498C50.0945 53.0203 49.9691 53.0899 49.8409 53.1445C49.7295 53.1919 49.5352 53.2639 49.3058 53.2639H39.3754C39.1382 53.2639 39.0436 53.3192 38.998 53.35C38.9645 53.3726 38.9279 53.4037 38.877 53.4553C38.8504 53.4822 38.8243 53.5101 38.7895 53.5475L38.786 53.5512C38.7549 53.5846 38.7133 53.6292 38.6699 53.6727L37.3792 52.3797C37.384 52.3749 37.3931 52.3648 37.4061 52.3506C37.4873 52.2617 37.7188 52.0085 37.9775 51.8338C38.338 51.5903 38.7911 51.4353 39.3754 51.4353H49.1791C49.1986 51.4246 49.2232 51.4104 49.2532 51.3919C49.3942 51.3051 49.5866 51.1665 49.8247 50.9777C50.2972 50.6029 50.8792 50.0864 51.4683 49.5381C52.6527 48.4358 53.7896 47.2767 54.0235 47.0101L54.0317 47.0007C54.2274 46.7836 54.8762 45.8636 55.5879 44.7503C56.1006 43.9482 56.5985 43.1199 56.9383 42.477C56.6332 42.3576 56.1738 42.2797 55.5907 42.4151C54.8251 42.5921 54.2773 43.1164 53.4954 44.6472C53.4091 44.8161 53.2724 44.954 53.1044 45.0417L50.0194 46.6508L49.1763 45.029L52.0064 43.5528C52.793 42.0718 53.6597 40.9852 55.1786 40.6337ZM49.127 51.4616C49.1164 51.4652 49.1168 51.4659 49.127 51.4616V51.4616Z" fill="white"/>
<path fill-rule="evenodd" clip-rule="evenodd" d="M36.1582 43.2209C36.6927 42.9277 37.3635 42.6583 38.0433 42.6583H41.4203C41.862 42.6583 42.2518 42.8243 42.5395 42.982C42.8352 43.1442 43.1138 43.3497 43.3389 43.5208C43.3982 43.5659 43.453 43.6079 43.5043 43.6473C43.6681 43.7729 43.7958 43.8709 43.9165 43.9504C43.9616 43.9801 43.9945 43.9994 44.0166 44.0114H47.9737C48.8445 44.0114 49.5859 44.2879 50.1176 44.7873C50.6447 45.2822 50.9126 45.949 50.9126 46.6171C50.9126 47.2853 50.6447 47.952 50.1176 48.447C49.5859 48.9463 48.8445 49.2228 47.9737 49.2228H41.8959L41.895 47.3943H47.9737C48.4537 47.3943 48.7254 47.2479 48.8691 47.113C49.0174 46.9737 49.0872 46.7947 49.0872 46.6171C49.0872 46.4396 49.0174 46.2606 48.8691 46.1213C48.7254 45.9863 48.4537 45.84 47.9737 45.84H43.9212C43.48 45.84 43.1025 45.6028 42.9133 45.4781C42.7321 45.3587 42.5329 45.2057 42.3598 45.0727C42.3165 45.0394 42.2747 45.0074 42.2353 44.9774C42.0156 44.8103 41.8298 44.6775 41.6629 44.5859C41.5005 44.4969 41.4276 44.4878 41.4207 44.4869C41.4202 44.4869 41.4205 44.4869 41.4207 44.4869L38.0433 44.4868C37.8103 44.4868 37.4589 44.5922 37.035 44.8248C36.6349 45.0442 36.2528 45.3314 35.9723 45.5869C35.4644 46.0952 34.7684 46.7695 34.2008 47.3155C33.9135 47.5918 33.6577 47.8366 33.4737 48.0123L33.177 48.2951L31.9204 46.9688L32.2141 46.6888C32.3969 46.5142 32.6511 46.271 32.9365 45.9965C33.5088 45.446 34.2013 44.775 34.6962 44.2792C34.7056 44.2698 34.7151 44.2607 34.7249 44.2517C35.1003 43.9069 35.6066 43.5235 36.1582 43.2209Z" fill="white"/>
<path fill-rule="evenodd" clip-rule="evenodd" d="M27.2677 50.2999C26.9113 49.9429 26.9113 49.364 27.2677 49.007L30.6366 45.6323C30.993 45.2752 31.5709 45.2752 31.9274 45.6323L39.3493 53.0669C39.7057 53.424 39.7057 54.0029 39.3493 54.3599L35.9804 57.7346C35.624 58.0916 35.0461 58.0916 34.6896 57.7346L27.2677 50.2999ZM29.2039 49.6534L35.335 55.7951L37.4132 53.7134L31.282 47.5717L29.2039 49.6534Z" fill="white"/>
<path fill-rule="evenodd" clip-rule="evenodd" d="M31.9949 51.643L30.644 50.2898L31.9348 48.9968L33.2857 50.35L31.9949 51.643Z" fill="white"/>
<path fill-rule="evenodd" clip-rule="evenodd" d="M38.2805 32.089C38.2805 31.5841 38.6892 31.1747 39.1932 31.1747H53.3587C53.8628 31.1747 54.2714 31.5841 54.2714 32.089V42.8959C54.2714 43.4008 53.8628 43.8102 53.3587 43.8102C52.8546 43.8102 52.4459 43.4008 52.4459 42.8959V33.0033H40.106V43.5725C40.106 44.0774 39.6973 44.4867 39.1932 44.4867C38.6892 44.4867 38.2805 44.0774 38.2805 43.5725V32.089Z" fill="white"/>
<path fill-rule="evenodd" clip-rule="evenodd" d="M45.9467 28.2675C44.9539 28.2675 44.1577 29.065 44.1577 30.0595V34.7772C44.1577 35.2821 43.7491 35.6915 43.245 35.6915C42.7409 35.6915 42.3323 35.2821 42.3323 34.7772V30.0595C42.3323 28.0551 43.9457 26.4389 45.9467 26.4389H47.2975C49.2984 26.4389 50.9119 28.0551 50.9119 30.0595V34.7772C50.9119 35.2821 50.5032 35.6915 49.9991 35.6915C49.4951 35.6915 49.0864 35.2821 49.0864 34.7772V30.0595C49.0864 29.065 48.2903 28.2675 47.2975 28.2675H45.9467Z" fill="white"/>
<path fill-rule="evenodd" clip-rule="evenodd" d="M30.4438 32.1193L31.7947 30.7661L33.0855 32.0591L31.7346 33.4123L30.4438 32.1193Z" fill="white"/>
<path fill-rule="evenodd" clip-rule="evenodd" d="M33.8206 28.7364L35.1714 27.3832L36.4622 28.6762L35.1113 30.0294L33.8206 28.7364Z" fill="white"/>
<path fill-rule="evenodd" clip-rule="evenodd" d="M35.1714 33.4123L33.8206 32.0591L35.1113 30.7661L36.4622 32.1193L35.1714 33.4123Z" fill="white"/>
<path fill-rule="evenodd" clip-rule="evenodd" d="M31.7947 30.0294L30.4438 28.6762L31.7346 27.3832L33.0855 28.7364L31.7947 30.0294Z" fill="white"/>
<path fill-rule="evenodd" clip-rule="evenodd" d="M55.8223 27.3531V26H57.6477V27.3531H55.8223Z" fill="white"/>
<path fill-rule="evenodd" clip-rule="evenodd" d="M55.8223 30.0595V28.7064H57.6477V30.0595H55.8223Z" fill="white"/>
<path fill-rule="evenodd" clip-rule="evenodd" d="M54.71 27.1154H56.0608V28.944H54.71V27.1154Z" fill="white"/>
<path fill-rule="evenodd" clip-rule="evenodd" d="M57.4116 27.1154H58.7625V28.944H57.4116V27.1154Z" fill="white"/>
<path fill-rule="evenodd" clip-rule="evenodd" d="M29.0608 39.2754H31.087V41.1039H29.0608V39.2754Z" fill="white"/>
<path fill-rule="evenodd" clip-rule="evenodd" d="M33.7893 39.2754H35.8155V41.1039H33.7893V39.2754Z" fill="white"/>
<path fill-rule="evenodd" clip-rule="evenodd" d="M31.5254 43.5726V41.5428H33.3508V43.5726H31.5254Z" fill="white"/>
<path fill-rule="evenodd" clip-rule="evenodd" d="M31.5254 38.8367V36.8069H33.3508V38.8367H31.5254Z" fill="white"/>
<path fill-rule="evenodd" clip-rule="evenodd" d="M44.5789 35.6914H41.8955V33.8629H44.5789V35.6914Z" fill="white"/>
<path fill-rule="evenodd" clip-rule="evenodd" d="M51.3328 35.6914H48.6311V33.8629H51.3328V35.6914Z" fill="white"/>
</g>
<defs>
<filter id="filter0_d_7_7970" x="0" y="0" width="88" height="88" filterUnits="userSpaceOnUse" color-interpolation-filters="sRGB">
<feFlood flood-opacity="0" result="BackgroundImageFix"/>
<feColorMatrix in="SourceAlpha" type="matrix" values="0 0 0 0 0 0 0 0 0 0 0 0 0 0 0 0 0 0 127 0" result="hardAlpha"/>
<feOffset dx="1" dy="2"/>
<feGaussianBlur stdDeviation="2"/>
<feColorMatrix type="matrix" values="0 0 0 0 0 0 0 0 0 0 0 0 0 0 0 0 0 0 0.13 0"/>
<feBlend mode="normal" in2="BackgroundImageFix" result="effect1_dropShadow_7_7970"/>
<feBlend mode="normal" in="SourceGraphic" in2="effect1_dropShadow_7_7970" result="shape"/>
</filter>
<linearGradient id="paint0_linear_7_7970" x1="3" y1="2" x2="84.5354" y2="3.59676" gradientUnits="userSpaceOnUse">
<stop stop-color="#FF4D79"/>
<stop offset="1" stop-color="#FF8040"/>
</linearGradient>
<clipPath id="clip0_7_7970">
<rect width="32" height="32" fill="white" transform="translate(27 26)"/>
</clipPath>
</defs>
</svg>
