<svg width="120" height="16" viewBox="0 0 120 16" fill="none" xmlns="http://www.w3.org/2000/svg">
<path fill-rule="evenodd" clip-rule="evenodd" d="M7.92013 0.172974L0.17041 4.09246V13.891L4.04535 15.8506V9.97151L7.92013 11.9311L11.7951 9.97151V15.8506L15.6698 13.891V4.09246L7.92013 0.172974Z" fill="white"/>
<path fill-rule="evenodd" clip-rule="evenodd" d="M28.5806 7.22542C28.3858 7.96352 27.9313 9.89916 27.9313 9.89916H27.8991C27.8991 9.89916 27.4443 7.96352 27.2333 7.22542L25.8214 2.09119H21.958V13.8198H24.5388V7.93089C24.5388 7.45523 24.4903 5.5688 24.4903 5.5688H24.5226C24.5226 5.5688 24.9284 7.34041 25.0582 7.76687L26.7139 13.8198H29.0839L30.7556 7.7503C30.8855 7.32384 31.2912 5.5688 31.2912 5.5688H31.324C31.324 5.5688 31.2752 7.43865 31.2752 7.91449V13.8198H33.9045V2.09119H30.009L28.5806 7.22542Z" fill="white"/>
<path fill-rule="evenodd" clip-rule="evenodd" d="M39.3899 12.1795C38.2376 12.1795 37.6369 11.1624 37.6369 9.63682C37.6369 8.11125 38.2376 7.07808 39.3899 7.07808C40.5423 7.07808 41.1592 8.11125 41.1592 9.63682C41.1592 11.1624 40.5423 12.1795 39.3899 12.1795ZM39.4062 5.19165C36.744 5.19165 34.9585 7.11071 34.9585 9.63682C34.9585 12.1629 36.744 14.0823 39.4062 14.0823C42.0845 14.0823 43.8376 12.1629 43.8376 9.63682C43.8376 7.11071 42.0845 5.19165 39.4062 5.19165Z" fill="white"/>
<path fill-rule="evenodd" clip-rule="evenodd" d="M48.6734 11.9663C47.6508 11.9663 47.0343 11.0476 47.0343 9.58764C47.0343 8.17688 47.6508 7.19291 48.7061 7.19291C49.8586 7.19291 50.4265 8.20985 50.4265 9.62061C50.4265 10.9984 49.7773 11.9663 48.6734 11.9663ZM50.3618 6.37263H50.3129C49.8258 5.66734 49.1605 5.1751 47.9919 5.1751C45.8492 5.1751 44.356 6.99592 44.356 9.62061C44.356 12.4256 45.8654 14.0824 47.9919 14.0824C49.0792 14.0824 49.9398 13.5575 50.4427 12.688H50.4754V13.8199H53.0075V2.09131H50.3618V6.37263Z" fill="white"/>
<path fill-rule="evenodd" clip-rule="evenodd" d="M56.5127 8.71827C56.6914 7.71774 57.2108 7.07788 58.2172 7.07788C59.0775 7.07788 59.6942 7.71774 59.7918 8.71827H56.5127ZM61.0092 6.22479C60.2949 5.5687 59.3535 5.17505 58.1684 5.17505C55.6362 5.17505 53.8994 7.09428 53.8994 9.60416C53.8994 12.1465 55.5877 14.0659 58.3309 14.0659C59.3858 14.0659 60.2298 13.7869 60.9279 13.2948C61.6584 12.7864 62.1454 12.0647 62.3237 11.31H59.7431C59.5157 11.8349 59.0612 12.1465 58.3631 12.1465C57.2759 12.1465 56.6589 11.4414 56.4965 10.3095H62.47C62.4862 8.60346 61.9991 7.14349 61.0092 6.22479Z" fill="white"/>
<path fill-rule="evenodd" clip-rule="evenodd" d="M65.9428 6.73343H65.8939V5.42109H63.3618V13.8199H66.0076V10.047C66.0076 8.22604 67.0463 7.42233 68.6697 7.65196H68.7348V5.35565C68.6208 5.30627 68.4587 5.29004 68.2152 5.29004C67.2088 5.29004 66.5269 5.7329 65.9428 6.73343Z" fill="white"/>
<path fill-rule="evenodd" clip-rule="evenodd" d="M74.7404 5.17505C73.5877 5.17505 72.7926 5.66729 72.1757 6.56941H72.1268V5.42108H69.5786V13.8199H72.2242V9.1777C72.2242 8.14419 72.8087 7.40609 73.6851 7.40609C74.5457 7.40609 74.9837 8.0128 74.9837 8.89869V13.8199H77.6295V8.35742C77.6295 6.4874 76.5582 5.17505 74.7404 5.17505Z" fill="white"/>
<path fill-rule="evenodd" clip-rule="evenodd" d="M84.0238 7.27475H81.8648V4.38779H84.0886C85.1924 4.38779 85.7443 4.99467 85.7443 5.84759C85.7443 6.73348 85.1601 7.27475 84.0238 7.27475ZM88.2766 10.5063C88.1141 9.34178 87.5947 8.70192 86.5886 8.35747V8.30826C87.9359 7.8326 88.6012 6.83189 88.6012 5.47034C88.6012 3.28867 86.8481 2.09131 84.5432 2.09131H78.9917V13.8199H81.8648V9.42362H83.6018C84.8355 9.42362 85.3872 10.0143 85.5333 11.0968C85.7118 12.2615 85.6633 13.6395 85.9717 13.8199H88.7633V13.6721C88.3579 13.5245 88.52 12.0481 88.2766 10.5063Z" fill="white"/>
<path fill-rule="evenodd" clip-rule="evenodd" d="M91.8789 8.71827C92.0576 7.71774 92.577 7.07788 93.5835 7.07788C94.4437 7.07788 95.0604 7.71774 95.158 8.71827H91.8789ZM96.3754 6.22479C95.6611 5.5687 94.7198 5.17505 93.5346 5.17505C91.0025 5.17505 89.2656 7.09428 89.2656 9.60416C89.2656 12.1465 90.9539 14.0659 93.6971 14.0659C94.7521 14.0659 95.596 13.7869 96.2941 13.2948C97.0247 12.7864 97.5116 12.0647 97.6899 11.31H95.1093C94.8819 11.8349 94.4274 12.1465 93.7294 12.1465C92.6421 12.1465 92.0252 11.4414 91.8627 10.3095H97.8362C97.8524 8.60346 97.3653 7.14349 96.3754 6.22479Z" fill="white"/>
<path fill-rule="evenodd" clip-rule="evenodd" d="M101.796 2.76367H99.2152V5.42117H98.1113V7.09437H99.2152V11.6053C99.2152 13.4097 100.319 13.9182 101.861 13.9182C102.575 13.9182 103.078 13.8526 103.306 13.787V11.835C103.209 11.835 102.949 11.8512 102.721 11.8512C102.153 11.8512 101.796 11.6873 101.796 11.0312V7.09437H103.306V5.42117H101.796V2.76367Z" fill="white"/>
<path fill-rule="evenodd" clip-rule="evenodd" d="M109.392 10.818C109.392 11.7201 108.711 12.3272 107.72 12.3272C107.071 12.3272 106.584 12.0647 106.584 11.3921C106.584 10.7524 107.006 10.49 108.029 10.2602C108.564 10.1291 109.051 9.99772 109.392 9.81747V10.818ZM111.925 12.5076V8.27532C111.925 7.22558 111.583 6.40546 110.869 5.88059C110.269 5.42116 109.424 5.19153 108.175 5.19153C105.659 5.19153 104.474 6.52028 104.409 8.07866H106.844C106.925 7.3732 107.347 6.99594 108.191 6.99594C108.986 6.99594 109.327 7.35679 109.327 7.89807C109.327 8.47232 108.775 8.63617 107.217 8.83316C105.497 9.0628 104.036 9.62047 104.036 11.4741C104.036 13.1309 105.22 14.033 106.876 14.033C108.126 14.033 108.856 13.5903 109.344 12.8849H109.376C109.441 13.3113 109.522 13.6395 109.652 13.8198H112.216V13.705C111.989 13.5573 111.925 13.1801 111.925 12.5076Z" fill="white"/>
<mask id="mask0_7_10788" style="mask-type:alpha" maskUnits="userSpaceOnUse" x="0" y="0" width="120" height="16">
<path d="M0.168457 15.7402H119.811V0.170776H0.168457V15.7402Z" fill="white"/>
</mask>
<g mask="url(#mask0_7_10788)">
<path fill-rule="evenodd" clip-rule="evenodd" d="M113.206 13.8198H115.851V5.42114H113.206V13.8198Z" fill="white"/>
<path fill-rule="evenodd" clip-rule="evenodd" d="M113.206 4.25645H115.851V2.09119H113.206V4.25645Z" fill="white"/>
<path fill-rule="evenodd" clip-rule="evenodd" d="M117.133 13.8198H119.811V2.09119H117.133V13.8198Z" fill="white"/>
</g>
</svg>
