<svg width="63" height="17" viewBox="0 0 63 17" fill="none" xmlns="http://www.w3.org/2000/svg">
<path d="M50.0224 0.838644H49.2991V0.440308H51.1964V0.838644H50.4941V3.43831H50.0224V0.838644Z" fill="white"/>
<path d="M51.1331 1.18436H51.5838V1.54076H51.5943C51.6467 1.41497 51.7096 1.31015 51.7935 1.23677C51.8773 1.16339 51.9821 1.12146 52.1184 1.12146C52.1708 1.12146 52.2128 1.13194 52.2232 1.14242V1.60366C52.2023 1.59317 52.1813 1.59317 52.1499 1.58269C52.1184 1.57221 52.0765 1.57221 52.0346 1.57221C51.9821 1.57221 51.9297 1.58269 51.8773 1.59317C51.8249 1.60366 51.7725 1.6351 51.7306 1.66655C51.6886 1.70848 51.6467 1.76089 51.6257 1.82379C51.5943 1.88668 51.5838 1.98103 51.5838 2.07537V3.42762H51.1331V1.18436Z" fill="white"/>
<path d="M53.9112 2.96642C53.9112 3.00835 53.9217 3.05028 53.9427 3.08172C53.9637 3.11317 53.9951 3.13414 54.0266 3.13414C54.058 3.13414 54.0894 3.13414 54.0999 3.12366V3.41717C54.0685 3.42765 54.037 3.44861 54.0056 3.4591C53.9637 3.46958 53.9217 3.48006 53.8798 3.48006C53.775 3.48006 53.6911 3.4591 53.6177 3.41717C53.5444 3.37524 53.5024 3.29137 53.5024 3.18655H53.4919C53.4291 3.30186 53.3557 3.38572 53.2613 3.43813C53.167 3.49054 53.0622 3.52199 52.9259 3.52199C52.7372 3.52199 52.6009 3.46958 52.4961 3.36475C52.3913 3.25993 52.3389 3.10269 52.3389 2.88256C52.3389 2.75677 52.3494 2.65194 52.3808 2.57856C52.4122 2.4947 52.4437 2.43181 52.4856 2.3794C52.5276 2.32698 52.5904 2.28505 52.6533 2.2536C52.7162 2.22216 52.7896 2.20119 52.863 2.16974L53.2194 2.0754C53.3033 2.05444 53.3662 2.02299 53.4081 1.99154C53.4605 1.94961 53.4815 1.88672 53.4815 1.79237C53.4815 1.68755 53.4605 1.60369 53.4186 1.55128C53.3766 1.48838 53.2928 1.45693 53.1775 1.45693C53.1041 1.45693 53.0412 1.46742 52.9993 1.49886C52.9573 1.51983 52.9154 1.55128 52.8944 1.59321C52.8735 1.63514 52.8525 1.67707 52.842 1.72948C52.8315 1.78189 52.8315 1.8343 52.8315 1.88672H52.4018C52.4018 1.77141 52.4122 1.6561 52.4437 1.57224C52.4751 1.4779 52.5171 1.40452 52.58 1.34163C52.6429 1.27873 52.7267 1.22632 52.8211 1.19487C52.9259 1.16342 53.0517 1.14246 53.1984 1.14246C53.3033 1.14246 53.3976 1.15294 53.4815 1.1739C53.5653 1.19487 53.6387 1.22632 53.7121 1.26825C53.775 1.31018 53.8274 1.37307 53.8693 1.43597C53.9113 1.50934 53.9217 1.59321 53.9217 1.68755V2.96642H53.9112ZM53.4815 2.24312C53.45 2.26409 53.4081 2.28505 53.3662 2.30602C53.3242 2.32698 53.2823 2.33747 53.2299 2.35843C53.188 2.3794 53.1355 2.38988 53.0936 2.41084C53.0517 2.42133 53.0098 2.44229 52.9783 2.46326C52.9154 2.4947 52.863 2.54712 52.842 2.61001C52.8106 2.67291 52.8001 2.74628 52.8001 2.83014C52.8001 2.92449 52.8211 3.00835 52.8735 3.07124C52.9154 3.13414 52.9888 3.16558 53.0831 3.16558C53.2194 3.16558 53.3242 3.11317 53.3871 3.01883C53.45 2.92449 53.4919 2.78821 53.4919 2.62049V2.24312H53.4815Z" fill="white"/>
<path d="M55.536 3.16563C55.515 3.19707 55.4941 3.23901 55.4731 3.28094C55.4522 3.32287 55.4207 3.35431 55.3788 3.38576C55.3368 3.41721 55.2949 3.44866 55.232 3.46962C55.1691 3.49059 55.1062 3.50107 55.0328 3.50107C54.7708 3.50107 54.5821 3.39624 54.4668 3.17611C54.3515 2.96646 54.2991 2.66247 54.2991 2.27461C54.2991 2.02303 54.32 1.82386 54.362 1.66662C54.4039 1.51987 54.4563 1.39408 54.5192 1.3207C54.5821 1.23684 54.6555 1.18443 54.7393 1.15298C54.8232 1.12153 54.9071 1.11105 54.9909 1.11105C55.1167 1.11105 55.2215 1.1425 55.3054 1.19491C55.3893 1.24732 55.4522 1.33118 55.4941 1.43601H55.5046V0.429688H55.9553V3.42769H55.5255V3.16563H55.536ZM55.536 2.33751C55.536 2.20123 55.536 2.08593 55.5255 1.9811C55.515 1.87628 55.4941 1.78193 55.4626 1.70856C55.4312 1.63518 55.3893 1.58276 55.3368 1.54083C55.2844 1.4989 55.2111 1.48842 55.1272 1.48842C55.0643 1.48842 55.0119 1.49891 54.9595 1.53035C54.9175 1.5618 54.8756 1.60373 54.8546 1.66662C54.8232 1.72952 54.8022 1.81338 54.7918 1.91821C54.7813 2.02303 54.7708 2.14882 54.7708 2.30606C54.7708 2.43185 54.7708 2.54716 54.7813 2.65198C54.7917 2.75681 54.8127 2.84067 54.8337 2.91405C54.8651 2.98742 54.8966 3.03984 54.949 3.08177C55.0014 3.1237 55.0643 3.14466 55.1482 3.14466C55.232 3.14466 55.2949 3.1237 55.3368 3.09225C55.3893 3.05032 55.4207 2.99791 55.4522 2.93501C55.4836 2.86163 55.5046 2.77777 55.515 2.68343C55.5255 2.56812 55.536 2.4633 55.536 2.33751Z" fill="white"/>
<path d="M56.783 2.3689V2.49469C56.783 2.56806 56.783 2.65192 56.7935 2.7253C56.804 2.80916 56.8145 2.88254 56.8459 2.94544C56.8774 3.00833 56.9088 3.07123 56.9612 3.11316C57.0136 3.15509 57.0765 3.17605 57.1604 3.17605C57.2443 3.17605 57.3071 3.15509 57.3491 3.11316C57.4015 3.07123 57.4329 3.0293 57.4539 2.97688C57.4749 2.92447 57.4958 2.86158 57.5063 2.80916C57.5168 2.75675 57.5168 2.70434 57.5168 2.67289H57.9466C57.9466 2.92447 57.8732 3.12364 57.7369 3.27039C57.5902 3.41715 57.4015 3.49053 57.1499 3.49053C57.0556 3.49053 56.9612 3.48004 56.8669 3.45908C56.7725 3.43811 56.6782 3.3857 56.6048 3.31232C56.521 3.23895 56.4581 3.11316 56.4056 2.9664C56.3532 2.80916 56.3323 2.60999 56.3323 2.34793C56.3323 2.20118 56.3428 2.05442 56.3637 1.90766C56.3847 1.76091 56.4266 1.63512 56.4895 1.51981C56.5524 1.4045 56.6363 1.31016 56.7411 1.23678C56.8459 1.16341 56.9927 1.13196 57.1709 1.13196C57.3281 1.13196 57.4539 1.15292 57.5587 1.20534C57.6636 1.24727 57.7474 1.32064 57.7998 1.4045C57.8627 1.48836 57.9046 1.59319 57.9256 1.71898C57.9466 1.84477 57.9571 1.98104 57.9571 2.13828V2.37938H56.783V2.3689ZM57.5168 2.05442V1.92863C57.5168 1.78187 57.4958 1.66657 57.4434 1.57222C57.391 1.47788 57.2967 1.42547 57.1709 1.42547C57.0975 1.42547 57.0346 1.44643 56.9927 1.47788C56.9403 1.50933 56.9088 1.55126 56.8774 1.60367C56.8459 1.65608 56.825 1.71898 56.8145 1.79236C56.804 1.86574 56.7935 1.92863 56.7935 2.00201V2.04394H57.5168V2.05442Z" fill="white"/>
<path d="M49.8962 6.76115V6.83452C49.8962 7.20141 50.0639 7.3901 50.3889 7.3901C50.4623 7.3901 50.5252 7.37962 50.5881 7.34817C50.6405 7.3272 50.6929 7.28527 50.7243 7.25383C50.7663 7.2119 50.7872 7.16997 50.8082 7.11755C50.8292 7.06514 50.8397 7.01273 50.8397 6.96031C50.8397 6.80308 50.7977 6.68777 50.7243 6.60391C50.651 6.52005 50.5461 6.46764 50.4099 6.42571L50.0849 6.3104C49.9801 6.26847 49.8857 6.22654 49.8019 6.17413C49.718 6.12171 49.6551 6.0693 49.6027 5.99592C49.5503 5.93303 49.5084 5.85965 49.4874 5.77579C49.4664 5.69193 49.456 5.59759 49.456 5.49276C49.456 5.35649 49.4769 5.2307 49.5189 5.12587C49.5608 5.02105 49.6237 4.93719 49.7075 4.86381C49.7914 4.79043 49.8857 4.73802 50.0011 4.69609C50.1164 4.65416 50.2422 4.64368 50.3784 4.64368C50.5671 4.64368 50.7243 4.67512 50.8397 4.72754C50.955 4.77995 51.0388 4.84284 51.0912 4.9267C51.1541 5.01057 51.1856 5.09442 51.2065 5.17828C51.2275 5.27263 51.2275 5.35649 51.2275 5.42987V5.49276H50.7453V5.42987C50.7453 5.29359 50.7139 5.18877 50.651 5.11539C50.5881 5.04201 50.4832 5.00008 50.326 5.00008C50.2736 5.00008 50.2212 5.01056 50.1793 5.02105C50.1268 5.03153 50.0849 5.06298 50.0535 5.09443C50.0115 5.12587 49.9906 5.17828 49.9591 5.2307C49.9382 5.28311 49.9277 5.35649 49.9277 5.42987C49.9277 5.55566 49.9591 5.66048 50.0325 5.73386C50.1059 5.80724 50.2212 5.88062 50.3784 5.93303L50.7034 6.04834C50.913 6.12171 51.0703 6.22654 51.1646 6.34185C51.259 6.46764 51.3114 6.63536 51.3114 6.83452C51.3114 6.99176 51.2904 7.12804 51.238 7.24334C51.1961 7.35865 51.1227 7.45299 51.0388 7.52637C50.955 7.59975 50.8501 7.65216 50.7243 7.68361C50.5986 7.71506 50.4623 7.73602 50.3155 7.73602C50.1268 7.73602 49.9801 7.70458 49.8543 7.65216C49.739 7.59975 49.6446 7.52637 49.5713 7.43203C49.5084 7.34817 49.456 7.24334 49.435 7.13852C49.414 7.03369 49.3931 6.91839 49.3931 6.81356V6.74018H49.8962V6.76115Z" fill="white"/>
<path d="M51.6785 4.68555H52.1292V5.67091L52.1397 5.68139C52.2026 5.58704 52.2865 5.50318 52.3808 5.45077C52.4751 5.39836 52.58 5.36691 52.6953 5.36691C52.7791 5.36691 52.863 5.37739 52.9259 5.39836C52.9993 5.41932 53.0517 5.45077 53.1041 5.50318C53.1565 5.5556 53.188 5.61849 53.2194 5.69187C53.2508 5.76525 53.2613 5.87007 53.2613 5.98538V7.69403H52.8106V6.14262C52.8106 5.99586 52.7896 5.89104 52.7372 5.82814C52.6953 5.76525 52.6114 5.7338 52.4961 5.7338C52.4018 5.7338 52.3179 5.76525 52.2445 5.83863C52.1711 5.912 52.1292 6.01683 52.1292 6.17407V7.69403H51.6785V4.68555Z" fill="white"/>
<path d="M54.456 7.74649C54.2988 7.74649 54.1625 7.71505 54.0577 7.66263C53.9529 7.59974 53.869 7.52636 53.7956 7.42153C53.7327 7.31671 53.6803 7.19092 53.6489 7.04416C53.6174 6.89741 53.6069 6.74017 53.6069 6.56197C53.6069 6.38376 53.6174 6.22653 53.6489 6.07977C53.6803 5.93302 53.7222 5.80722 53.7851 5.7024C53.848 5.59757 53.9319 5.51371 54.0367 5.4613C54.1415 5.40889 54.2778 5.37744 54.4455 5.37744C54.6028 5.37744 54.739 5.40889 54.8544 5.4613C54.9592 5.5242 55.0535 5.59757 55.1164 5.7024C55.1793 5.80722 55.2317 5.93302 55.2527 6.07977C55.2841 6.22653 55.2946 6.38376 55.2946 6.56197C55.2946 6.74017 55.2841 6.89741 55.2527 7.04416C55.2212 7.19092 55.1793 7.31671 55.1059 7.42153C55.043 7.52636 54.9487 7.61022 54.8439 7.66263C54.739 7.71505 54.6028 7.74649 54.456 7.74649ZM54.0682 6.56197C54.0682 6.70872 54.0682 6.83451 54.0786 6.93934C54.0891 7.04416 54.1101 7.13851 54.1311 7.2014C54.1625 7.27478 54.194 7.32719 54.2464 7.35864C54.2988 7.39009 54.3617 7.41105 54.4455 7.41105C54.5294 7.41105 54.5923 7.39009 54.6447 7.35864C54.6971 7.32719 54.739 7.27478 54.76 7.2014C54.7915 7.12802 54.8019 7.04416 54.8124 6.93934C54.8229 6.83451 54.8229 6.70872 54.8229 6.56197C54.8229 6.43618 54.8229 6.32087 54.8124 6.21604C54.8019 6.11122 54.781 6.02736 54.76 5.9435C54.7286 5.87012 54.6971 5.80722 54.6447 5.76529C54.5923 5.72336 54.5294 5.7024 54.4455 5.7024C54.3617 5.7024 54.2988 5.72336 54.2464 5.76529C54.194 5.80722 54.152 5.87012 54.1311 5.9435C54.0996 6.01688 54.0891 6.11122 54.0786 6.21604C54.0682 6.32087 54.0682 6.43618 54.0682 6.56197Z" fill="white"/>
<path d="M55.4626 5.42981H55.9344L56.2488 7.21184H56.2593L56.5948 5.42981H57.1084L57.4438 7.21184H57.4543L57.7688 5.42981H58.2196L57.7059 7.69404H57.1923L56.8359 5.93297L56.5109 7.69404H55.9763L55.4626 5.42981Z" fill="white"/>
<path d="M49.5295 8.93103H50.1061L50.9761 11.1743H50.9866V8.93103H51.4374V11.9395H50.8608L49.9908 9.64384H49.9803V11.9395H49.5295V8.93103Z" fill="white"/>
<path d="M52.2967 10.8597V10.9855C52.2967 11.0589 52.2967 11.1428 52.3072 11.2161C52.3177 11.3 52.3281 11.3734 52.3596 11.4363C52.391 11.4992 52.4225 11.5621 52.4749 11.604C52.5273 11.6459 52.5902 11.6669 52.6741 11.6669C52.7579 11.6669 52.8208 11.6459 52.8628 11.604C52.9152 11.5621 52.9466 11.5201 52.9676 11.4677C52.9885 11.4153 53.0095 11.3524 53.02 11.3C53.0305 11.2476 53.0305 11.1952 53.0305 11.1637H53.4603C53.4603 11.4153 53.3869 11.6145 53.2506 11.7612C53.1143 11.908 52.9152 11.9814 52.6636 11.9814C52.5692 11.9814 52.4749 11.9709 52.3806 11.9499C52.2862 11.929 52.1919 11.8765 52.1185 11.8032C52.0346 11.7193 51.9717 11.604 51.9193 11.4572C51.8669 11.3 51.8459 11.1008 51.8459 10.8388C51.8459 10.692 51.8564 10.5453 51.8774 10.3985C51.8984 10.2518 51.9403 10.126 52.0032 10.0107C52.0661 9.89535 52.1499 9.80101 52.2548 9.72763C52.3596 9.65425 52.5063 9.6228 52.6845 9.6228C52.8418 9.6228 52.9676 9.64377 53.0724 9.69618C53.1772 9.73811 53.2611 9.81149 53.3135 9.89535C53.3764 9.97921 53.4183 10.084 53.4393 10.2098C53.4603 10.3356 53.4707 10.4719 53.4707 10.6291V10.8702H52.2967V10.8597ZM53.0305 10.5558V10.43C53.0305 10.2832 52.999 10.1679 52.9571 10.0736C52.9047 9.97921 52.8103 9.9268 52.6845 9.9268C52.6112 9.9268 52.5483 9.94776 52.5064 9.97921C52.4539 10.0107 52.4225 10.0526 52.391 10.105C52.3596 10.1574 52.3386 10.2203 52.3281 10.2937C52.3177 10.3671 52.3072 10.43 52.3072 10.5033V10.5453H53.0305V10.5558Z" fill="white"/>
<path d="M53.7012 9.67529H54.1729L54.4874 11.4573H54.4978L54.8333 9.67529H55.3469L55.6824 11.4573L55.9968 9.67529H56.4476L55.9339 11.9395H55.4308L55.0744 10.1785H55.0639L54.7389 11.9395H54.2148L53.7012 9.67529Z" fill="white"/>
<path d="M57.7057 10.3356V10.2727C57.7057 10.2308 57.7057 10.1889 57.6952 10.1469C57.6847 10.105 57.6742 10.0631 57.6428 10.0316C57.6218 10.0002 57.5904 9.96874 57.5484 9.95826C57.5065 9.93729 57.4646 9.92681 57.4017 9.92681C57.3073 9.92681 57.234 9.94778 57.1711 9.98971C57.1082 10.0316 57.0767 10.1155 57.0767 10.2203C57.0767 10.3147 57.0977 10.3776 57.1501 10.4195C57.192 10.4614 57.2759 10.5034 57.4017 10.5453L57.6952 10.6501C57.8629 10.7025 57.9887 10.7864 58.0621 10.8807C58.1459 10.9855 58.1774 11.1218 58.1774 11.3C58.1774 11.4153 58.1564 11.5202 58.1145 11.6145C58.0726 11.6984 58.0202 11.7717 57.9468 11.8241C57.8734 11.8766 57.7895 11.9185 57.6847 11.9499C57.5904 11.9814 57.4751 11.9919 57.3702 11.9919C57.2235 11.9919 57.1082 11.9709 57.0138 11.9395C56.9195 11.908 56.8461 11.8661 56.7832 11.8032C56.7308 11.7403 56.6889 11.6669 56.6574 11.5831C56.6365 11.4992 56.626 11.3944 56.626 11.2895V11.2057H57.0243V11.2791C57.0243 11.4153 57.0453 11.5097 57.0977 11.5831C57.1501 11.6459 57.2444 11.6879 57.3702 11.6879C57.496 11.6879 57.5904 11.6564 57.6533 11.604C57.7162 11.5411 57.7476 11.4677 57.7476 11.3629C57.7476 11.1952 57.6637 11.0904 57.496 11.0275L57.1291 10.9017C56.9614 10.8493 56.8356 10.7654 56.7622 10.6711C56.6889 10.5767 56.6469 10.43 56.6469 10.2518C56.6469 10.0421 56.7203 9.88488 56.8566 9.78006C56.9929 9.67523 57.1815 9.6333 57.4226 9.6333C57.5694 9.6333 57.6847 9.65427 57.7791 9.68571C57.8734 9.72764 57.9468 9.76957 57.9992 9.83247C58.0516 9.89536 58.083 9.95826 58.104 10.0316C58.125 10.105 58.1355 10.1784 58.1355 10.2413V10.3461H57.7057V10.3356Z" fill="white"/>
<path d="M49.5295 13.1869H50.1061L50.9761 15.4197H50.9866V13.1869H51.4374V16.1849H50.8608L49.9908 13.8892H49.9803V16.1849H49.5295V13.1869Z" fill="white"/>
<path d="M52.2967 15.1157V15.2415C52.2967 15.3149 52.2967 15.3988 52.3072 15.4721C52.3177 15.556 52.3281 15.6294 52.3596 15.6923C52.391 15.7552 52.4225 15.8181 52.4749 15.86C52.5273 15.9019 52.5902 15.9229 52.6741 15.9229C52.7579 15.9229 52.8208 15.9019 52.8628 15.86C52.9152 15.8181 52.9466 15.7761 52.9676 15.7237C52.9885 15.6713 53.0095 15.6084 53.02 15.556C53.0305 15.5036 53.0305 15.4512 53.0305 15.4197H53.4603C53.4603 15.6713 53.3869 15.8705 53.2506 16.0172C53.1143 16.164 52.9152 16.2374 52.6636 16.2374C52.5692 16.2374 52.4749 16.2269 52.3806 16.2059C52.2862 16.1849 52.1919 16.1325 52.1185 16.0592C52.0346 15.9858 51.9717 15.86 51.9193 15.7132C51.8669 15.556 51.8459 15.3568 51.8459 15.0948C51.8459 14.948 51.8564 14.8012 51.8774 14.6545C51.8984 14.5077 51.9403 14.3819 52.0032 14.2666C52.0661 14.1513 52.1499 14.057 52.2548 13.9836C52.3596 13.9102 52.5063 13.8788 52.6845 13.8788C52.8418 13.8788 52.9676 13.8998 53.0724 13.9522C53.1772 13.9941 53.2611 14.0675 53.3135 14.1513C53.3764 14.2352 53.4183 14.34 53.4393 14.4658C53.4603 14.5916 53.4707 14.7279 53.4707 14.8851V15.1262H52.2967V15.1157ZM53.0305 14.8012V14.6755C53.0305 14.5287 52.999 14.4134 52.9571 14.3191C52.9047 14.2247 52.8103 14.1723 52.6845 14.1723C52.6112 14.1723 52.5483 14.1933 52.5064 14.2247C52.4539 14.2562 52.4225 14.2981 52.391 14.3505C52.3596 14.4029 52.3386 14.4658 52.3281 14.5392C52.3177 14.6126 52.3072 14.6755 52.3072 14.7488V14.7908H53.0305V14.8012Z" fill="white"/>
<path d="M53.6487 13.9207H53.9631V13.2812H54.4139V13.9207H54.7808V14.2561H54.4139V15.6084C54.4139 15.7027 54.4244 15.7551 54.4558 15.7971C54.4873 15.8285 54.5397 15.8495 54.6131 15.8495C54.676 15.8495 54.7388 15.8495 54.7808 15.839V16.1744C54.6864 16.1954 54.5606 16.2164 54.4139 16.2164C54.3405 16.2164 54.2671 16.2059 54.2147 16.1954C54.1623 16.1849 54.1099 16.1535 54.068 16.1115C54.026 16.0696 54.0051 16.0172 53.9841 15.9438C53.9631 15.8704 53.9527 15.7761 53.9527 15.6608V14.2561H53.6382V13.9207H53.6487Z" fill="white"/>
<path d="M54.8647 13.9207H55.3365L55.6509 15.7027H55.6614L55.9969 13.9207H56.5105L56.8459 15.7027H56.8564L57.1709 13.9207H57.6216L57.108 16.1849H56.5944L56.238 14.4238L55.913 16.1849H55.3784L54.8647 13.9207Z" fill="white"/>
<path d="M58.6281 16.2478C58.4709 16.2478 58.3346 16.2164 58.2298 16.164C58.125 16.1011 58.0411 16.0277 57.9677 15.9229C57.9048 15.8181 57.8524 15.6923 57.821 15.5455C57.7895 15.3988 57.7791 15.2415 57.7791 15.0633C57.7791 14.8851 57.7895 14.7279 57.821 14.5811C57.8524 14.4344 57.8944 14.3086 57.9573 14.2037C58.0202 14.0989 58.104 14.0151 58.2088 13.9626C58.3137 13.9102 58.4499 13.8788 58.6177 13.8788C58.7749 13.8788 58.9112 13.9102 59.0265 13.9626C59.1313 14.0255 59.2256 14.0989 59.2885 14.2037C59.3514 14.3086 59.4038 14.4344 59.4248 14.5811C59.4563 14.7279 59.4667 14.8851 59.4667 15.0633C59.4667 15.2415 59.4563 15.3988 59.4248 15.5455C59.3934 15.6923 59.3514 15.8181 59.2781 15.9229C59.2152 16.0277 59.1208 16.1116 59.016 16.164C58.9216 16.2164 58.7854 16.2478 58.6281 16.2478ZM58.2403 15.0528C58.2403 15.1996 58.2403 15.3254 58.2508 15.4302C58.2612 15.535 58.2822 15.6294 58.3032 15.6923C58.3346 15.7656 58.3661 15.8181 58.4185 15.8495C58.4709 15.8809 58.5338 15.9019 58.6177 15.9019C58.7015 15.9019 58.7644 15.8809 58.8168 15.8495C58.8692 15.8181 58.9112 15.7656 58.9321 15.6923C58.9636 15.6189 58.9741 15.535 58.9845 15.4302C58.995 15.3254 58.995 15.1996 58.995 15.0528C58.995 14.927 58.995 14.8117 58.9845 14.7069C58.9741 14.6021 58.9531 14.5182 58.9321 14.4344C58.9007 14.361 58.8692 14.2981 58.8168 14.2562C58.7644 14.2142 58.7015 14.1933 58.6177 14.1933C58.5338 14.1933 58.4709 14.2142 58.4185 14.2562C58.3661 14.2981 58.3241 14.361 58.3032 14.4344C58.2717 14.5077 58.2612 14.6021 58.2508 14.7069C58.2508 14.8117 58.2403 14.927 58.2403 15.0528Z" fill="white"/>
<path d="M59.8232 13.9207H60.274V14.2771H60.2845C60.3369 14.1513 60.3998 14.0465 60.4836 13.9731C60.5675 13.8997 60.6723 13.8578 60.8086 13.8578C60.861 13.8578 60.9029 13.8683 60.9134 13.8788V14.34C60.8925 14.3295 60.8715 14.3295 60.84 14.319C60.8086 14.3085 60.7667 14.3085 60.7247 14.3085C60.6723 14.3085 60.6199 14.319 60.5675 14.3295C60.5151 14.34 60.4627 14.3714 60.4207 14.4029C60.3788 14.4448 60.3369 14.4972 60.3159 14.5601C60.2845 14.623 60.274 14.7174 60.274 14.8117V16.1639H59.8232V13.9207Z" fill="white"/>
<path d="M61.144 13.1869H61.6053V14.8641L62.2971 13.9207H62.8212L62.1399 14.7907L62.9051 16.1849H62.4124L61.8569 15.1576L61.6053 15.4616V16.1849H61.144V13.1869Z" fill="white"/>
<path d="M3.38563 3.36487H0.0102539V0.314453H10.5137V3.36487H7.14886V16.3422H3.38563V3.36487Z" fill="white"/>
<path d="M14.9377 11.4469V12.013C14.9377 13.229 15.2732 14.1409 16.573 14.1409C17.8938 14.1409 18.2817 13.1556 18.2817 12.2331C18.2817 8.77388 11.3947 10.7131 11.3947 4.71714C11.3947 2.1594 12.7679 0 16.6464 0C20.4201 0 21.7619 1.90782 21.7619 4.37121V4.74859H18.1244C18.1244 3.98336 18.0406 3.42779 17.81 3.0609C17.5898 2.68353 17.2229 2.50532 16.6674 2.50532C15.7239 2.50532 15.1684 3.0609 15.1684 4.23494C15.1684 7.57887 22.0554 5.89118 22.0554 11.5517C22.0554 15.1892 20.0323 16.6463 16.5835 16.6463C13.8476 16.6463 11.3108 15.8181 11.3108 12.4742V11.4469H14.9377Z" fill="white"/>
<path d="M23.8684 0.314453H28.1977L31.29 10.7341H31.3425V0.314453H34.8436V16.3422H30.5772L27.2752 5.30414H27.2333V16.3422H23.8684V0.314453Z" fill="white"/>
<path d="M37.1709 0.314453H41.5002L44.603 10.7341H44.6449V0.314453H48.1461V16.3422H43.8797L40.5882 5.30414H40.5358V16.3422H37.1709V0.314453Z" fill="white"/>
</svg>
