<svg width="155" height="18" viewBox="0 0 155 18" fill="none" xmlns="http://www.w3.org/2000/svg">
<rect y="9" width="16" height="1" fill="white"/>
<rect x="139" y="9" width="16" height="1" fill="white"/>
<path d="M36.9675 4.155V15H35.19V7.995C35.19 7.715 35.205 7.4125 35.235 7.0875L31.9575 13.245C31.8025 13.54 31.565 13.6875 31.245 13.6875H30.96C30.64 13.6875 30.4025 13.54 30.2475 13.245L26.9325 7.065C26.9475 7.23 26.96 7.3925 26.97 7.5525C26.98 7.7125 26.985 7.86 26.985 7.995V15H25.2075V4.155H26.73C26.82 4.155 26.8975 4.1575 26.9625 4.1625C27.0275 4.1675 27.085 4.18 27.135 4.2C27.19 4.22 27.2375 4.2525 27.2775 4.2975C27.3225 4.3425 27.365 4.4025 27.405 4.4775L30.6525 10.5C30.7375 10.66 30.815 10.825 30.885 10.995C30.96 11.165 31.0325 11.34 31.1025 11.52C31.1725 11.335 31.245 11.1575 31.32 10.9875C31.395 10.8125 31.475 10.645 31.56 10.485L34.7625 4.4775C34.8025 4.4025 34.845 4.3425 34.89 4.2975C34.935 4.2525 34.9825 4.22 35.0325 4.2C35.0875 4.18 35.1475 4.1675 35.2125 4.1625C35.2775 4.1575 35.355 4.155 35.445 4.155H36.9675ZM45.5672 10.905L44.2472 7.2975C44.1822 7.1375 44.1147 6.9475 44.0447 6.7275C43.9747 6.5075 43.9047 6.27 43.8347 6.015C43.7697 6.27 43.7022 6.51 43.6322 6.735C43.5622 6.955 43.4947 7.1475 43.4297 7.3125L42.1172 10.905H45.5672ZM49.1297 15H47.5697C47.3947 15 47.2522 14.9575 47.1422 14.8725C47.0322 14.7825 46.9497 14.6725 46.8947 14.5425L46.0847 12.33H41.5922L40.7822 14.5425C40.7422 14.6575 40.6647 14.7625 40.5497 14.8575C40.4347 14.9525 40.2922 15 40.1222 15H38.5472L42.8147 4.155H44.8697L49.1297 15ZM54.2318 10.8V15H52.2218V10.8L48.2693 4.155H50.0468C50.2218 4.155 50.3593 4.1975 50.4593 4.2825C50.5643 4.3675 50.6518 4.475 50.7218 4.605L52.7018 8.2275C52.8168 8.4425 52.9168 8.645 53.0018 8.835C53.0918 9.025 53.1718 9.215 53.2418 9.405C53.3068 9.215 53.3818 9.025 53.4668 8.835C53.5518 8.645 53.6493 8.4425 53.7593 8.2275L55.7318 4.605C55.7868 4.495 55.8693 4.3925 55.9793 4.2975C56.0893 4.2025 56.2293 4.155 56.3993 4.155H58.1843L54.2318 10.8ZM62.8356 7.1775C62.9106 6.6575 63.0556 6.2025 63.2706 5.8125C63.4856 5.4175 63.7531 5.09 64.0731 4.83C64.3981 4.565 64.7681 4.3675 65.1831 4.2375C65.6031 4.1025 66.0531 4.035 66.5331 4.035C67.0331 4.035 67.4831 4.1075 67.8831 4.2525C68.2881 4.3925 68.6331 4.59 68.9181 4.845C69.2031 5.095 69.4206 5.39 69.5706 5.73C69.7256 6.07 69.8031 6.4375 69.8031 6.8325C69.8031 7.1775 69.7631 7.4825 69.6831 7.7475C69.6081 8.0075 69.4981 8.235 69.3531 8.43C69.2081 8.625 69.0281 8.79 68.8131 8.925C68.5981 9.06 68.3556 9.1725 68.0856 9.2625C68.7356 9.4675 69.2206 9.78 69.5406 10.2C69.8606 10.62 70.0206 11.1475 70.0206 11.7825C70.0206 12.3225 69.9206 12.8 69.7206 13.215C69.5206 13.63 69.2506 13.98 68.9106 14.265C68.5706 14.545 68.1756 14.7575 67.7256 14.9025C67.2806 15.0475 66.8081 15.12 66.3081 15.12C65.7631 15.12 65.2881 15.0575 64.8831 14.9325C64.4781 14.8075 64.1256 14.6225 63.8256 14.3775C63.5256 14.1325 63.2706 13.8325 63.0606 13.4775C62.8506 13.1225 62.6706 12.7125 62.5206 12.2475L63.3381 11.91C63.5531 11.82 63.7531 11.7975 63.9381 11.8425C64.1281 11.8825 64.2656 11.9825 64.3506 12.1425C64.4406 12.3175 64.5381 12.49 64.6431 12.66C64.7531 12.83 64.8831 12.9825 65.0331 13.1175C65.1831 13.2475 65.3581 13.355 65.5581 13.44C65.7631 13.52 66.0056 13.56 66.2856 13.56C66.6006 13.56 66.8756 13.51 67.1106 13.41C67.3456 13.305 67.5406 13.17 67.6956 13.005C67.8556 12.84 67.9731 12.6575 68.0481 12.4575C68.1281 12.2525 68.1681 12.0475 68.1681 11.8425C68.1681 11.5825 68.1406 11.3475 68.0856 11.1375C68.0306 10.9225 67.9156 10.74 67.7406 10.59C67.5656 10.44 67.3131 10.3225 66.9831 10.2375C66.6581 10.1525 66.2206 10.11 65.6706 10.11V8.79C66.1256 8.785 66.5031 8.7425 66.8031 8.6625C67.1031 8.5825 67.3406 8.4725 67.5156 8.3325C67.6956 8.1875 67.8206 8.015 67.8906 7.815C67.9606 7.615 67.9956 7.395 67.9956 7.155C67.9956 6.645 67.8531 6.2575 67.5681 5.9925C67.2831 5.7275 66.9031 5.595 66.4281 5.595C66.2081 5.595 66.0056 5.6275 65.8206 5.6925C65.6356 5.7525 65.4681 5.84 65.3181 5.955C65.1731 6.065 65.0506 6.195 64.9506 6.345C64.8506 6.495 64.7756 6.66 64.7256 6.84C64.6406 7.07 64.5281 7.2225 64.3881 7.2975C64.2531 7.3725 64.0606 7.39 63.8106 7.35L62.8356 7.1775ZM72.0318 9.6975H75.9168V11.2425H72.0318V9.6975ZM80.2675 8.0925C80.5075 8.0425 80.7375 8.0075 80.9575 7.9875C81.1775 7.9625 81.39 7.95 81.595 7.95C82.165 7.95 82.6675 8.035 83.1025 8.205C83.5375 8.375 83.9025 8.61 84.1975 8.91C84.4925 9.21 84.715 9.5625 84.865 9.9675C85.015 10.3675 85.09 10.8 85.09 11.265C85.09 11.84 84.9875 12.365 84.7825 12.84C84.5825 13.315 84.3025 13.7225 83.9425 14.0625C83.5825 14.3975 83.155 14.6575 82.66 14.8425C82.17 15.0275 81.635 15.12 81.055 15.12C80.715 15.12 80.3925 15.085 80.0875 15.015C79.7825 14.945 79.495 14.8525 79.225 14.7375C78.96 14.6175 78.7125 14.4825 78.4825 14.3325C78.2575 14.1775 78.055 14.015 77.875 13.845L78.445 13.0575C78.565 12.8875 78.7225 12.8025 78.9175 12.8025C79.0425 12.8025 79.17 12.8425 79.3 12.9225C79.43 13.0025 79.5775 13.09 79.7425 13.185C79.9125 13.28 80.11 13.3675 80.335 13.4475C80.565 13.5275 80.84 13.5675 81.16 13.5675C81.5 13.5675 81.8 13.5125 82.06 13.4025C82.32 13.2925 82.535 13.14 82.705 12.945C82.88 12.745 83.01 12.51 83.095 12.24C83.185 11.965 83.23 11.6675 83.23 11.3475C83.23 10.7575 83.0575 10.2975 82.7125 9.9675C82.3725 9.6325 81.8675 9.465 81.1975 9.465C80.6825 9.465 80.155 9.56 79.615 9.75L78.46 9.42L79.36 4.155H84.715V4.9425C84.715 5.2075 84.6325 5.4225 84.4675 5.5875C84.3025 5.7525 84.0225 5.835 83.6275 5.835H80.65L80.2675 8.0925ZM87.2586 16.8375C87.1686 16.7625 87.1236 16.67 87.1236 16.56C87.1236 16.52 87.1361 16.475 87.1611 16.425C87.1911 16.375 87.2261 16.33 87.2661 16.29C87.3211 16.23 87.3886 16.155 87.4686 16.065C87.5486 15.98 87.6286 15.88 87.7086 15.765C87.7886 15.655 87.8611 15.5325 87.9261 15.3975C87.9961 15.2675 88.0486 15.1275 88.0836 14.9775C87.9236 14.9775 87.7786 14.95 87.6486 14.895C87.5186 14.835 87.4061 14.755 87.3111 14.655C87.2211 14.555 87.1486 14.4375 87.0936 14.3025C87.0436 14.1675 87.0186 14.02 87.0186 13.86C87.0186 13.72 87.0436 13.59 87.0936 13.47C87.1486 13.345 87.2236 13.2375 87.3186 13.1475C87.4136 13.0525 87.5286 12.98 87.6636 12.93C87.7986 12.875 87.9461 12.8475 88.1061 12.8475C88.2961 12.8475 88.4611 12.8825 88.6011 12.9525C88.7461 13.0175 88.8636 13.11 88.9536 13.23C89.0486 13.345 89.1186 13.48 89.1636 13.635C89.2136 13.785 89.2386 13.945 89.2386 14.115C89.2386 14.355 89.2011 14.6075 89.1261 14.8725C89.0561 15.1375 88.9511 15.4025 88.8111 15.6675C88.6711 15.9325 88.4961 16.19 88.2861 16.44C88.0811 16.69 87.8461 16.92 87.5811 17.13L87.2586 16.8375ZM101.794 13.275C101.994 13.275 102.152 13.3325 102.267 13.4475C102.387 13.5575 102.447 13.705 102.447 13.89V15H95.0067V14.385C95.0067 14.26 95.0317 14.13 95.0817 13.995C95.1367 13.855 95.2217 13.73 95.3367 13.62L98.6292 10.32C98.9042 10.04 99.1492 9.7725 99.3642 9.5175C99.5842 9.2625 99.7667 9.01 99.9117 8.76C100.057 8.51 100.167 8.2575 100.242 8.0025C100.322 7.7425 100.362 7.47 100.362 7.185C100.362 6.925 100.324 6.6975 100.249 6.5025C100.174 6.3025 100.067 6.135 99.9267 6C99.7917 5.865 99.6267 5.765 99.4317 5.7C99.2417 5.63 99.0267 5.595 98.7867 5.595C98.5667 5.595 98.3617 5.6275 98.1717 5.6925C97.9867 5.7525 97.8217 5.84 97.6767 5.955C97.5317 6.065 97.4092 6.195 97.3092 6.345C97.2092 6.495 97.1342 6.66 97.0842 6.84C96.9992 7.07 96.8892 7.2225 96.7542 7.2975C96.6192 7.3725 96.4242 7.39 96.1692 7.35L95.1942 7.1775C95.2692 6.6575 95.4142 6.2025 95.6292 5.8125C95.8442 5.4175 96.1117 5.09 96.4317 4.83C96.7567 4.565 97.1267 4.3675 97.5417 4.2375C97.9617 4.1025 98.4117 4.035 98.8917 4.035C99.3917 4.035 99.8492 4.11 100.264 4.26C100.679 4.405 101.034 4.6125 101.329 4.8825C101.624 5.1525 101.854 5.4775 102.019 5.8575C102.184 6.2375 102.267 6.66 102.267 7.125C102.267 7.525 102.207 7.895 102.087 8.235C101.972 8.575 101.814 8.9 101.614 9.21C101.419 9.52 101.189 9.82 100.924 10.11C100.659 10.4 100.382 10.695 100.092 10.995L97.6467 13.4925C97.8817 13.4225 98.1142 13.37 98.3442 13.335C98.5792 13.295 98.8017 13.275 99.0117 13.275H101.794ZM111.913 9.5775C111.913 10.5225 111.81 11.345 111.605 12.045C111.405 12.74 111.125 13.315 110.765 13.77C110.41 14.225 109.988 14.565 109.498 14.79C109.013 15.01 108.488 15.12 107.923 15.12C107.358 15.12 106.833 15.01 106.348 14.79C105.868 14.565 105.45 14.225 105.095 13.77C104.74 13.315 104.463 12.74 104.263 12.045C104.063 11.345 103.963 10.5225 103.963 9.5775C103.963 8.6275 104.063 7.805 104.263 7.11C104.463 6.415 104.74 5.84 105.095 5.385C105.45 4.93 105.868 4.5925 106.348 4.3725C106.833 4.1475 107.358 4.035 107.923 4.035C108.488 4.035 109.013 4.1475 109.498 4.3725C109.988 4.5925 110.41 4.93 110.765 5.385C111.125 5.84 111.405 6.415 111.605 7.11C111.81 7.805 111.913 8.6275 111.913 9.5775ZM110 9.5775C110 8.7925 109.943 8.1425 109.828 7.6275C109.713 7.1125 109.558 6.7025 109.363 6.3975C109.173 6.0925 108.953 5.88 108.703 5.76C108.453 5.635 108.193 5.5725 107.923 5.5725C107.658 5.5725 107.4 5.635 107.15 5.76C106.905 5.88 106.688 6.0925 106.498 6.3975C106.308 6.7025 106.155 7.1125 106.04 7.6275C105.93 8.1425 105.875 8.7925 105.875 9.5775C105.875 10.3625 105.93 11.0125 106.04 11.5275C106.155 12.0425 106.308 12.4525 106.498 12.7575C106.688 13.0625 106.905 13.2775 107.15 13.4025C107.4 13.5225 107.658 13.5825 107.923 13.5825C108.193 13.5825 108.453 13.5225 108.703 13.4025C108.953 13.2775 109.173 13.0625 109.363 12.7575C109.558 12.4525 109.713 12.0425 109.828 11.5275C109.943 11.0125 110 10.3625 110 9.5775ZM120.097 13.275C120.297 13.275 120.454 13.3325 120.569 13.4475C120.689 13.5575 120.749 13.705 120.749 13.89V15H113.309V14.385C113.309 14.26 113.334 14.13 113.384 13.995C113.439 13.855 113.524 13.73 113.639 13.62L116.932 10.32C117.207 10.04 117.452 9.7725 117.667 9.5175C117.887 9.2625 118.069 9.01 118.214 8.76C118.359 8.51 118.469 8.2575 118.544 8.0025C118.624 7.7425 118.664 7.47 118.664 7.185C118.664 6.925 118.627 6.6975 118.552 6.5025C118.477 6.3025 118.369 6.135 118.229 6C118.094 5.865 117.929 5.765 117.734 5.7C117.544 5.63 117.329 5.595 117.089 5.595C116.869 5.595 116.664 5.6275 116.474 5.6925C116.289 5.7525 116.124 5.84 115.979 5.955C115.834 6.065 115.712 6.195 115.612 6.345C115.512 6.495 115.437 6.66 115.387 6.84C115.302 7.07 115.192 7.2225 115.057 7.2975C114.922 7.3725 114.727 7.39 114.472 7.35L113.497 7.1775C113.572 6.6575 113.717 6.2025 113.932 5.8125C114.147 5.4175 114.414 5.09 114.734 4.83C115.059 4.565 115.429 4.3675 115.844 4.2375C116.264 4.1025 116.714 4.035 117.194 4.035C117.694 4.035 118.152 4.11 118.567 4.26C118.982 4.405 119.337 4.6125 119.632 4.8825C119.927 5.1525 120.157 5.4775 120.322 5.8575C120.487 6.2375 120.569 6.66 120.569 7.125C120.569 7.525 120.509 7.895 120.389 8.235C120.274 8.575 120.117 8.9 119.917 9.21C119.722 9.52 119.492 9.82 119.227 10.11C118.962 10.4 118.684 10.695 118.394 10.995L115.949 13.4925C116.184 13.4225 116.417 13.37 116.647 13.335C116.882 13.295 117.104 13.275 117.314 13.275H120.097ZM129.248 13.275C129.448 13.275 129.605 13.3325 129.72 13.4475C129.84 13.5575 129.9 13.705 129.9 13.89V15H122.46V14.385C122.46 14.26 122.485 14.13 122.535 13.995C122.59 13.855 122.675 13.73 122.79 13.62L126.083 10.32C126.358 10.04 126.603 9.7725 126.818 9.5175C127.038 9.2625 127.22 9.01 127.365 8.76C127.51 8.51 127.62 8.2575 127.695 8.0025C127.775 7.7425 127.815 7.47 127.815 7.185C127.815 6.925 127.778 6.6975 127.703 6.5025C127.628 6.3025 127.52 6.135 127.38 6C127.245 5.865 127.08 5.765 126.885 5.7C126.695 5.63 126.48 5.595 126.24 5.595C126.02 5.595 125.815 5.6275 125.625 5.6925C125.44 5.7525 125.275 5.84 125.13 5.955C124.985 6.065 124.863 6.195 124.763 6.345C124.663 6.495 124.588 6.66 124.538 6.84C124.453 7.07 124.343 7.2225 124.208 7.2975C124.073 7.3725 123.878 7.39 123.623 7.35L122.648 7.1775C122.723 6.6575 122.868 6.2025 123.083 5.8125C123.298 5.4175 123.565 5.09 123.885 4.83C124.21 4.565 124.58 4.3675 124.995 4.2375C125.415 4.1025 125.865 4.035 126.345 4.035C126.845 4.035 127.303 4.11 127.718 4.26C128.133 4.405 128.488 4.6125 128.783 4.8825C129.078 5.1525 129.308 5.4775 129.473 5.8575C129.638 6.2375 129.72 6.66 129.72 7.125C129.72 7.525 129.66 7.895 129.54 8.235C129.425 8.575 129.268 8.9 129.068 9.21C128.873 9.52 128.643 9.82 128.378 10.11C128.113 10.4 127.835 10.695 127.545 10.995L125.1 13.4925C125.335 13.4225 125.568 13.37 125.798 13.335C126.033 13.295 126.255 13.275 126.465 13.275H129.248Z" fill="white"/>
</svg>
