<svg width="88" height="88" viewBox="0 0 88 88" fill="none" xmlns="http://www.w3.org/2000/svg">
<g filter="url(#filter0_d_7_7962)">
<circle cx="43" cy="42" r="40" fill="url(#paint0_linear_7_7962)"/>
</g>
<path fill-rule="evenodd" clip-rule="evenodd" d="M43.7392 28.6765C44.0824 28.0333 44.8479 27.8096 45.4489 28.1768C45.9677 28.4938 46.2053 29.1585 46.0166 29.765L42.6671 40.5309H47.3969C48.6464 40.5309 49.443 41.9588 48.8499 43.1357L42.1301 56.4712C41.8501 57.0268 41.1668 57.1726 40.7091 56.7745C40.433 56.5345 40.3072 56.1484 40.3838 55.7767L42.5201 45.4123H37.6532C36.386 45.4123 35.5913 43.9476 36.2196 42.77L43.7392 28.6765Z" fill="white"/>
<defs>
<filter id="filter0_d_7_7962" x="0" y="0" width="88" height="88" filterUnits="userSpaceOnUse" color-interpolation-filters="sRGB">
<feFlood flood-opacity="0" result="BackgroundImageFix"/>
<feColorMatrix in="SourceAlpha" type="matrix" values="0 0 0 0 0 0 0 0 0 0 0 0 0 0 0 0 0 0 127 0" result="hardAlpha"/>
<feOffset dx="1" dy="2"/>
<feGaussianBlur stdDeviation="2"/>
<feColorMatrix type="matrix" values="0 0 0 0 0 0 0 0 0 0 0 0 0 0 0 0 0 0 0.13 0"/>
<feBlend mode="normal" in2="BackgroundImageFix" result="effect1_dropShadow_7_7962"/>
<feBlend mode="normal" in="SourceGraphic" in2="effect1_dropShadow_7_7962" result="shape"/>
</filter>
<linearGradient id="paint0_linear_7_7962" x1="3" y1="2" x2="84.5354" y2="3.59676" gradientUnits="userSpaceOnUse">
<stop stop-color="#FF4D79"/>
<stop offset="1" stop-color="#FF8040"/>
</linearGradient>
</defs>
</svg>
