<?xml version="1.0" encoding="utf-8"?>
<!-- Generator: Adobe Illustrator 24.2.3, SVG Export Plug-In . SVG Version: 6.00 Build 0)  -->
<svg version="1.1" id="Layer_1" xmlns="http://www.w3.org/2000/svg" xmlns:xlink="http://www.w3.org/1999/xlink" x="0px" y="0px"
	 viewBox="0 0 172 31" style="enable-background:new 0 0 172 31;" xml:space="preserve">
<style type="text/css">
	.st0{clip-path:url(#SVGID_2_);}
	.st1{fill:#82CEC7;}
	.st2{fill:#EF9B2E;}
	.st3{fill:#F26A33;}
	.st4{clip-path:url(#SVGID_4_);}
	.st5{clip-path:url(#SVGID_6_);}
	.st6{clip-path:url(#SVGID_8_);}
	.st7{clip-path:url(#SVGID_10_);}
	.st8{clip-path:url(#SVGID_12_);}
	.st9{clip-path:url(#SVGID_14_);}
	.st10{clip-path:url(#SVGID_16_);}
	.st11{clip-path:url(#SVGID_18_);}
	.st12{clip-path:url(#SVGID_20_);}
	.st13{clip-path:url(#SVGID_22_);}
	.st14{fill:#333333;}
</style>
<g>
	<defs>
		<path id="SVGID_1_" d="M5.9,25.4v-1.6h1.4c2.7,0,6.7-0.3,6.7-4.1c0-4-3.9-3.9-6.7-3.9H0v0.3c2.1,0.1,2,0.4,2,4.3v4.8
			c0,3.9,0.1,4.2-2,4.2v0.4h7.9v-0.4C5.7,29.5,5.9,29.3,5.9,25.4z M5.9,16.2h0.7c1.8,0,3.2,0.8,3.2,3.6c0,2.6-1.4,3.7-3.2,3.7H5.9
			V16.2z"/>
	</defs>
	<clipPath id="SVGID_2_">
		<use xlink:href="#SVGID_1_"  style="overflow:visible;"/>
	</clipPath>
	<g class="st0">
		<path class="st1" d="M86.2,12.3h-92v92h92V12.3z"/>
		<path class="st2" d="M78.1,13.2c-1.5,1.7-2.1,2.3-3.4,2.3c-1.3,0-2-0.6-3.4-2.3c-0.2-0.3-0.5-0.6-0.8-0.9H55.8
			c-0.3,0.3-0.5,0.6-0.8,0.9c-1.5,1.7-2.1,2.3-3.4,2.3c-1.3,0-2-0.6-3.4-2.3c-0.2-0.3-0.5-0.6-0.8-0.9H32.8
			c-0.3,0.3-0.5,0.6-0.8,0.9c-1.5,1.7-2.1,2.3-3.4,2.3c-1.3,0-2-0.6-3.4-2.3c-0.2-0.3-0.5-0.6-0.8-0.9H9.8c-0.3,0.3-0.5,0.6-0.8,0.9
			c-1.5,1.7-2.1,2.3-3.4,2.3c-1.3,0-2-0.6-3.4-2.3c-0.2-0.3-0.5-0.6-0.8-0.9h-7.3v2.5c1.3,0,2,0.6,3.4,2.3c1.6,1.9,3.8,4.4,8.1,4.4
			c4.3,0,6.5-2.6,8.1-4.4c1.5-1.7,2.1-2.3,3.4-2.3c1.3,0,2,0.6,3.4,2.3c1.6,1.9,3.8,4.4,8.1,4.4s6.5-2.6,8.1-4.4
			c1.5-1.7,2.1-2.3,3.4-2.3c1.3,0,2,0.6,3.4,2.3c1.6,1.9,3.8,4.4,8.1,4.4s6.5-2.6,8.1-4.4c1.5-1.7,2.1-2.3,3.4-2.3
			c1.3,0,2,0.6,3.4,2.3c1.6,1.9,3.8,4.4,8.1,4.4c4.3,0,6.5-2.6,8.1-4.4c1.5-1.7,2.1-2.3,3.4-2.3v-2.5h-7.3
			C78.6,12.6,78.3,12.9,78.1,13.2z"/>
		<path class="st3" d="M74.7,26.1c-3.9,0-6-2.4-7.5-4.2c-1.4-1.7-2.3-2.6-4-2.6c-1.7,0-2.6,0.9-4,2.6c-1.5,1.8-3.6,4.2-7.5,4.2
			s-6-2.4-7.5-4.2c-1.4-1.7-2.3-2.6-4-2.6c-1.7,0-2.6,0.9-4,2.6c-1.5,1.8-3.6,4.2-7.5,4.2s-6-2.4-7.5-4.2c-1.4-1.7-2.3-2.6-4-2.6
			c-1.7,0-2.6,0.9-4,2.6c-1.5,1.8-3.6,4.2-7.5,4.2c-3.9,0-6-2.4-7.5-4.2c-1.4-1.7-2.3-2.6-4-2.6v-4.6c3.9,0,6,2.4,7.5,4.2
			c1.4,1.7,2.3,2.6,4,2.6s2.6-0.9,4-2.6c1.5-1.8,3.6-4.2,7.5-4.2s6,2.4,7.5,4.2c1.4,1.7,2.3,2.6,4,2.6c1.7,0,2.6-0.9,4-2.6
			c1.5-1.8,3.6-4.2,7.5-4.2s6,2.4,7.5,4.2c1.4,1.7,2.3,2.6,4,2.6c1.7,0,2.6-0.9,4-2.6c1.5-1.8,3.6-4.2,7.5-4.2s6,2.4,7.5,4.2
			c1.4,1.7,2.3,2.6,4,2.6c1.7,0,2.6-0.9,4-2.6c1.5-1.8,3.6-4.2,7.5-4.2v4.6c-1.7,0-2.6,0.9-4,2.6C80.7,23.7,78.6,26.1,74.7,26.1z"/>
		<path class="st3" d="M74.7,38.5c-3.9,0-6-2.4-7.5-4.2c-1.4-1.7-2.3-2.6-4-2.6c-1.7,0-2.6,0.9-4,2.6c-1.5,1.8-3.6,4.2-7.5,4.2
			s-6-2.4-7.5-4.2c-1.4-1.7-2.3-2.6-4-2.6c-1.7,0-2.6,0.9-4,2.6c-1.5,1.8-3.6,4.2-7.5,4.2s-6-2.4-7.5-4.2c-1.4-1.7-2.3-2.6-4-2.6
			c-1.7,0-2.6,0.9-4,2.6c-1.5,1.8-3.6,4.2-7.5,4.2c-3.9,0-6-2.4-7.5-4.2c-1.4-1.7-2.3-2.6-4-2.6v-4.6c3.9,0,6,2.4,7.5,4.2
			c1.4,1.7,2.3,2.6,4,2.6s2.6-0.9,4-2.6c1.5-1.8,3.6-4.2,7.5-4.2s6,2.4,7.5,4.2c1.4,1.7,2.3,2.6,4,2.6c1.7,0,2.6-0.9,4-2.6
			c1.5-1.8,3.6-4.2,7.5-4.2s6,2.4,7.5,4.2c1.4,1.7,2.3,2.6,4,2.6c1.7,0,2.6-0.9,4-2.6c1.5-1.8,3.6-4.2,7.5-4.2s6,2.4,7.5,4.2
			c1.4,1.7,2.3,2.6,4,2.6c1.7,0,2.6-0.9,4-2.6c1.5-1.8,3.6-4.2,7.5-4.2v4.6c-1.7,0-2.6,0.9-4,2.6C80.7,36.1,78.6,38.5,74.7,38.5z"/>
	</g>
</g>
<g>
	<defs>
		<path id="SVGID_3_" d="M24.5,25.4l-4-9.9h-0.7l-4.2,9.7c-1.5,3.6-1.8,4.2-3.7,4.3v0.4h5.1v-0.4c-2.4-0.1-2.4-0.7-1.1-3.8h4.6
			c1.3,3.3,1.6,3.7-0.7,3.8v0.4h8v-0.4C26.1,29.5,26,29,24.5,25.4z M16.3,25.3l2.2-5.1l2,5.2L16.3,25.3L16.3,25.3z"/>
	</defs>
	<clipPath id="SVGID_4_">
		<use xlink:href="#SVGID_3_"  style="overflow:visible;"/>
	</clipPath>
	<g class="st4">
		<path class="st1" d="M86.2,12.3h-92v92h92V12.3z"/>
		<path class="st2" d="M78.1,13.2c-1.5,1.7-2.1,2.3-3.4,2.3c-1.3,0-2-0.6-3.4-2.3c-0.2-0.3-0.5-0.6-0.8-0.9H55.8
			c-0.3,0.3-0.5,0.6-0.8,0.9c-1.5,1.7-2.1,2.3-3.4,2.3c-1.3,0-2-0.6-3.4-2.3c-0.2-0.3-0.5-0.6-0.8-0.9H32.8
			c-0.3,0.3-0.5,0.6-0.8,0.9c-1.5,1.7-2.1,2.3-3.4,2.3c-1.3,0-2-0.6-3.4-2.3c-0.2-0.3-0.5-0.6-0.8-0.9H9.8c-0.3,0.3-0.5,0.6-0.8,0.9
			c-1.5,1.7-2.1,2.3-3.4,2.3c-1.3,0-2-0.6-3.4-2.3c-0.2-0.3-0.5-0.6-0.8-0.9h-7.3v2.5c1.3,0,2,0.6,3.4,2.3c1.6,1.9,3.8,4.4,8.1,4.4
			c4.3,0,6.5-2.6,8.1-4.4c1.5-1.7,2.1-2.3,3.4-2.3c1.3,0,2,0.6,3.4,2.3c1.6,1.9,3.8,4.4,8.1,4.4s6.5-2.6,8.1-4.4
			c1.5-1.7,2.1-2.3,3.4-2.3c1.3,0,2,0.6,3.4,2.3c1.6,1.9,3.8,4.4,8.1,4.4s6.5-2.6,8.1-4.4c1.5-1.7,2.1-2.3,3.4-2.3
			c1.3,0,2,0.6,3.4,2.3c1.6,1.9,3.8,4.4,8.1,4.4c4.3,0,6.5-2.6,8.1-4.4c1.5-1.7,2.1-2.3,3.4-2.3v-2.5h-7.3
			C78.6,12.6,78.3,12.9,78.1,13.2z"/>
		<path class="st3" d="M74.7,26.1c-3.9,0-6-2.4-7.5-4.2c-1.4-1.7-2.3-2.6-4-2.6c-1.7,0-2.6,0.9-4,2.6c-1.5,1.8-3.6,4.2-7.5,4.2
			s-6-2.4-7.5-4.2c-1.4-1.7-2.3-2.6-4-2.6c-1.7,0-2.6,0.9-4,2.6c-1.5,1.8-3.6,4.2-7.5,4.2s-6-2.4-7.5-4.2c-1.4-1.7-2.3-2.6-4-2.6
			c-1.7,0-2.6,0.9-4,2.6c-1.5,1.8-3.6,4.2-7.5,4.2c-3.9,0-6-2.4-7.5-4.2c-1.4-1.7-2.3-2.6-4-2.6v-4.6c3.9,0,6,2.4,7.5,4.2
			c1.4,1.7,2.3,2.6,4,2.6s2.6-0.9,4-2.6c1.5-1.8,3.6-4.2,7.5-4.2s6,2.4,7.5,4.2c1.4,1.7,2.3,2.6,4,2.6c1.7,0,2.6-0.9,4-2.6
			c1.5-1.8,3.6-4.2,7.5-4.2s6,2.4,7.5,4.2c1.4,1.7,2.3,2.6,4,2.6c1.7,0,2.6-0.9,4-2.6c1.5-1.8,3.6-4.2,7.5-4.2s6,2.4,7.5,4.2
			c1.4,1.7,2.3,2.6,4,2.6c1.7,0,2.6-0.9,4-2.6c1.5-1.8,3.6-4.2,7.5-4.2v4.6c-1.7,0-2.6,0.9-4,2.6C80.7,23.7,78.6,26.1,74.7,26.1z"/>
		<path class="st3" d="M74.7,38.5c-3.9,0-6-2.4-7.5-4.2c-1.4-1.7-2.3-2.6-4-2.6c-1.7,0-2.6,0.9-4,2.6c-1.5,1.8-3.6,4.2-7.5,4.2
			s-6-2.4-7.5-4.2c-1.4-1.7-2.3-2.6-4-2.6c-1.7,0-2.6,0.9-4,2.6c-1.5,1.8-3.6,4.2-7.5,4.2s-6-2.4-7.5-4.2c-1.4-1.7-2.3-2.6-4-2.6
			c-1.7,0-2.6,0.9-4,2.6c-1.5,1.8-3.6,4.2-7.5,4.2c-3.9,0-6-2.4-7.5-4.2c-1.4-1.7-2.3-2.6-4-2.6v-4.6c3.9,0,6,2.4,7.5,4.2
			c1.4,1.7,2.3,2.6,4,2.6s2.6-0.9,4-2.6c1.5-1.8,3.6-4.2,7.5-4.2s6,2.4,7.5,4.2c1.4,1.7,2.3,2.6,4,2.6c1.7,0,2.6-0.9,4-2.6
			c1.5-1.8,3.6-4.2,7.5-4.2s6,2.4,7.5,4.2c1.4,1.7,2.3,2.6,4,2.6c1.7,0,2.6-0.9,4-2.6c1.5-1.8,3.6-4.2,7.5-4.2s6,2.4,7.5,4.2
			c1.4,1.7,2.3,2.6,4,2.6c1.7,0,2.6-0.9,4-2.6c1.5-1.8,3.6-4.2,7.5-4.2v4.6c-1.7,0-2.6,0.9-4,2.6C80.7,36.1,78.6,38.5,74.7,38.5z"/>
	</g>
</g>
<g>
	<defs>
		<path id="SVGID_5_" d="M35.9,29.6h-1.3v-9.1c0-3.9-0.1-4.2,2-4.3v-0.3h-7.9v0.3c2.1,0.1,2,0.4,2,4.3v4.8c0,3.9,0.1,4.2-2,4.2v0.4
			h13.4l0.3-6.1l-0.4,0C41.7,26.1,39.1,29.6,35.9,29.6z"/>
	</defs>
	<clipPath id="SVGID_6_">
		<use xlink:href="#SVGID_5_"  style="overflow:visible;"/>
	</clipPath>
	<g class="st5">
		<path class="st1" d="M86.2,12.3h-92v92h92V12.3z"/>
		<path class="st2" d="M78.1,13.2c-1.5,1.7-2.1,2.3-3.4,2.3c-1.3,0-2-0.6-3.4-2.3c-0.2-0.3-0.5-0.6-0.8-0.9H55.8
			c-0.3,0.3-0.5,0.6-0.8,0.9c-1.5,1.7-2.1,2.3-3.4,2.3c-1.3,0-2-0.6-3.4-2.3c-0.2-0.3-0.5-0.6-0.8-0.9H32.8
			c-0.3,0.3-0.5,0.6-0.8,0.9c-1.5,1.7-2.1,2.3-3.4,2.3c-1.3,0-2-0.6-3.4-2.3c-0.2-0.3-0.5-0.6-0.8-0.9H9.8c-0.3,0.3-0.5,0.6-0.8,0.9
			c-1.5,1.7-2.1,2.3-3.4,2.3c-1.3,0-2-0.6-3.4-2.3c-0.2-0.3-0.5-0.6-0.8-0.9h-7.3v2.5c1.3,0,2,0.6,3.4,2.3c1.6,1.9,3.8,4.4,8.1,4.4
			c4.3,0,6.5-2.6,8.1-4.4c1.5-1.7,2.1-2.3,3.4-2.3c1.3,0,2,0.6,3.4,2.3c1.6,1.9,3.8,4.4,8.1,4.4s6.5-2.6,8.1-4.4
			c1.5-1.7,2.1-2.3,3.4-2.3c1.3,0,2,0.6,3.4,2.3c1.6,1.9,3.8,4.4,8.1,4.4s6.5-2.6,8.1-4.4c1.5-1.7,2.1-2.3,3.4-2.3
			c1.3,0,2,0.6,3.4,2.3c1.6,1.9,3.8,4.4,8.1,4.4c4.3,0,6.5-2.6,8.1-4.4c1.5-1.7,2.1-2.3,3.4-2.3v-2.5h-7.3
			C78.6,12.6,78.3,12.9,78.1,13.2z"/>
		<path class="st3" d="M74.7,26.1c-3.9,0-6-2.4-7.5-4.2c-1.4-1.7-2.3-2.6-4-2.6c-1.7,0-2.6,0.9-4,2.6c-1.5,1.8-3.6,4.2-7.5,4.2
			s-6-2.4-7.5-4.2c-1.4-1.7-2.3-2.6-4-2.6c-1.7,0-2.6,0.9-4,2.6c-1.5,1.8-3.6,4.2-7.5,4.2s-6-2.4-7.5-4.2c-1.4-1.7-2.3-2.6-4-2.6
			c-1.7,0-2.6,0.9-4,2.6c-1.5,1.8-3.6,4.2-7.5,4.2c-3.9,0-6-2.4-7.5-4.2c-1.4-1.7-2.3-2.6-4-2.6v-4.6c3.9,0,6,2.4,7.5,4.2
			c1.4,1.7,2.3,2.6,4,2.6s2.6-0.9,4-2.6c1.5-1.8,3.6-4.2,7.5-4.2s6,2.4,7.5,4.2c1.4,1.7,2.3,2.6,4,2.6c1.7,0,2.6-0.9,4-2.6
			c1.5-1.8,3.6-4.2,7.5-4.2s6,2.4,7.5,4.2c1.4,1.7,2.3,2.6,4,2.6c1.7,0,2.6-0.9,4-2.6c1.5-1.8,3.6-4.2,7.5-4.2s6,2.4,7.5,4.2
			c1.4,1.7,2.3,2.6,4,2.6c1.7,0,2.6-0.9,4-2.6c1.5-1.8,3.6-4.2,7.5-4.2v4.6c-1.7,0-2.6,0.9-4,2.6C80.7,23.7,78.6,26.1,74.7,26.1z"/>
		<path class="st3" d="M74.7,38.5c-3.9,0-6-2.4-7.5-4.2c-1.4-1.7-2.3-2.6-4-2.6c-1.7,0-2.6,0.9-4,2.6c-1.5,1.8-3.6,4.2-7.5,4.2
			s-6-2.4-7.5-4.2c-1.4-1.7-2.3-2.6-4-2.6c-1.7,0-2.6,0.9-4,2.6c-1.5,1.8-3.6,4.2-7.5,4.2s-6-2.4-7.5-4.2c-1.4-1.7-2.3-2.6-4-2.6
			c-1.7,0-2.6,0.9-4,2.6c-1.5,1.8-3.6,4.2-7.5,4.2c-3.9,0-6-2.4-7.5-4.2c-1.4-1.7-2.3-2.6-4-2.6v-4.6c3.9,0,6,2.4,7.5,4.2
			c1.4,1.7,2.3,2.6,4,2.6s2.6-0.9,4-2.6c1.5-1.8,3.6-4.2,7.5-4.2s6,2.4,7.5,4.2c1.4,1.7,2.3,2.6,4,2.6c1.7,0,2.6-0.9,4-2.6
			c1.5-1.8,3.6-4.2,7.5-4.2s6,2.4,7.5,4.2c1.4,1.7,2.3,2.6,4,2.6c1.7,0,2.6-0.9,4-2.6c1.5-1.8,3.6-4.2,7.5-4.2s6,2.4,7.5,4.2
			c1.4,1.7,2.3,2.6,4,2.6c1.7,0,2.6-0.9,4-2.6c1.5-1.8,3.6-4.2,7.5-4.2v4.6c-1.7,0-2.6,0.9-4,2.6C80.7,36.1,78.6,38.5,74.7,38.5z"/>
	</g>
</g>
<g>
	<defs>
		<path id="SVGID_7_" d="M63.5,16.2v-0.3h-5.9l-3.3,8.5l-3.1-8.5h-6.8v0.3l0.9,0.1c0.6,0,1,0.2,1.3,0.5v8.6c0,3.8-0.1,4.2-2.4,4.2
			v0.4h5.4v-0.4c-2.3-0.1-2.5-0.5-2.5-4.2v-8.1c0.4,0.5,0.6,1.2,1,2.2l4.1,10.4h0.6l4.8-12.7v8.1c0,3.9,0.3,4.2-1.8,4.2v0.4h7.9
			v-0.4c-2.1-0.1-2.2-0.4-2.2-4.2v-4.8C61.5,16.6,61.4,16.3,63.5,16.2z"/>
	</defs>
	<clipPath id="SVGID_8_">
		<use xlink:href="#SVGID_7_"  style="overflow:visible;"/>
	</clipPath>
	<g class="st6">
		<path class="st1" d="M86.2,12.3h-92v92h92V12.3z"/>
		<path class="st2" d="M78.1,13.2c-1.5,1.7-2.1,2.3-3.4,2.3c-1.3,0-2-0.6-3.4-2.3c-0.2-0.3-0.5-0.6-0.8-0.9H55.8
			c-0.3,0.3-0.5,0.6-0.8,0.9c-1.5,1.7-2.1,2.3-3.4,2.3c-1.3,0-2-0.6-3.4-2.3c-0.2-0.3-0.5-0.6-0.8-0.9H32.8
			c-0.3,0.3-0.5,0.6-0.8,0.9c-1.5,1.7-2.1,2.3-3.4,2.3c-1.3,0-2-0.6-3.4-2.3c-0.2-0.3-0.5-0.6-0.8-0.9H9.8c-0.3,0.3-0.5,0.6-0.8,0.9
			c-1.5,1.7-2.1,2.3-3.4,2.3c-1.3,0-2-0.6-3.4-2.3c-0.2-0.3-0.5-0.6-0.8-0.9h-7.3v2.5c1.3,0,2,0.6,3.4,2.3c1.6,1.9,3.8,4.4,8.1,4.4
			c4.3,0,6.5-2.6,8.1-4.4c1.5-1.7,2.1-2.3,3.4-2.3c1.3,0,2,0.6,3.4,2.3c1.6,1.9,3.8,4.4,8.1,4.4s6.5-2.6,8.1-4.4
			c1.5-1.7,2.1-2.3,3.4-2.3c1.3,0,2,0.6,3.4,2.3c1.6,1.9,3.8,4.4,8.1,4.4s6.5-2.6,8.1-4.4c1.5-1.7,2.1-2.3,3.4-2.3
			c1.3,0,2,0.6,3.4,2.3c1.6,1.9,3.8,4.4,8.1,4.4c4.3,0,6.5-2.6,8.1-4.4c1.5-1.7,2.1-2.3,3.4-2.3v-2.5h-7.3
			C78.6,12.6,78.3,12.9,78.1,13.2z"/>
		<path class="st3" d="M74.7,26.1c-3.9,0-6-2.4-7.5-4.2c-1.4-1.7-2.3-2.6-4-2.6c-1.7,0-2.6,0.9-4,2.6c-1.5,1.8-3.6,4.2-7.5,4.2
			s-6-2.4-7.5-4.2c-1.4-1.7-2.3-2.6-4-2.6c-1.7,0-2.6,0.9-4,2.6c-1.5,1.8-3.6,4.2-7.5,4.2s-6-2.4-7.5-4.2c-1.4-1.7-2.3-2.6-4-2.6
			c-1.7,0-2.6,0.9-4,2.6c-1.5,1.8-3.6,4.2-7.5,4.2c-3.9,0-6-2.4-7.5-4.2c-1.4-1.7-2.3-2.6-4-2.6v-4.6c3.9,0,6,2.4,7.5,4.2
			c1.4,1.7,2.3,2.6,4,2.6s2.6-0.9,4-2.6c1.5-1.8,3.6-4.2,7.5-4.2s6,2.4,7.5,4.2c1.4,1.7,2.3,2.6,4,2.6c1.7,0,2.6-0.9,4-2.6
			c1.5-1.8,3.6-4.2,7.5-4.2s6,2.4,7.5,4.2c1.4,1.7,2.3,2.6,4,2.6c1.7,0,2.6-0.9,4-2.6c1.5-1.8,3.6-4.2,7.5-4.2s6,2.4,7.5,4.2
			c1.4,1.7,2.3,2.6,4,2.6c1.7,0,2.6-0.9,4-2.6c1.5-1.8,3.6-4.2,7.5-4.2v4.6c-1.7,0-2.6,0.9-4,2.6C80.7,23.7,78.6,26.1,74.7,26.1z"/>
		<path class="st3" d="M74.7,38.5c-3.9,0-6-2.4-7.5-4.2c-1.4-1.7-2.3-2.6-4-2.6c-1.7,0-2.6,0.9-4,2.6c-1.5,1.8-3.6,4.2-7.5,4.2
			s-6-2.4-7.5-4.2c-1.4-1.7-2.3-2.6-4-2.6c-1.7,0-2.6,0.9-4,2.6c-1.5,1.8-3.6,4.2-7.5,4.2s-6-2.4-7.5-4.2c-1.4-1.7-2.3-2.6-4-2.6
			c-1.7,0-2.6,0.9-4,2.6c-1.5,1.8-3.6,4.2-7.5,4.2c-3.9,0-6-2.4-7.5-4.2c-1.4-1.7-2.3-2.6-4-2.6v-4.6c3.9,0,6,2.4,7.5,4.2
			c1.4,1.7,2.3,2.6,4,2.6s2.6-0.9,4-2.6c1.5-1.8,3.6-4.2,7.5-4.2s6,2.4,7.5,4.2c1.4,1.7,2.3,2.6,4,2.6c1.7,0,2.6-0.9,4-2.6
			c1.5-1.8,3.6-4.2,7.5-4.2s6,2.4,7.5,4.2c1.4,1.7,2.3,2.6,4,2.6c1.7,0,2.6-0.9,4-2.6c1.5-1.8,3.6-4.2,7.5-4.2s6,2.4,7.5,4.2
			c1.4,1.7,2.3,2.6,4,2.6c1.7,0,2.6-0.9,4-2.6c1.5-1.8,3.6-4.2,7.5-4.2v4.6c-1.7,0-2.6,0.9-4,2.6C80.7,36.1,78.6,38.5,74.7,38.5z"/>
	</g>
</g>
<g>
	<defs>
		<path id="SVGID_9_" d="M70.8,19.9c0,5.4,8.7,4.2,8.7,8.2c0,1.5-1.4,1.8-3.1,1.8c-2.4,0-4.7-2.1-5.4-5.4h-0.3v5.9H71
			c0.3-0.7,0.5-1.2,1.1-1.2c1.1,0,1.8,1.2,4.6,1.2c2.1,0,5.6-1.1,5.6-4.7c0-5-9-4-9-7.7c0-1.3,1.2-2,2.7-2c2.3,0,4.1,2,4.8,5.4h0.3
			v-5.8h-0.3c-0.2,0.6-0.5,1.2-1.1,1.2c-1,0-1.7-1.2-3.7-1.2C73.2,15.4,70.8,17.4,70.8,19.9z"/>
	</defs>
	<clipPath id="SVGID_10_">
		<use xlink:href="#SVGID_9_"  style="overflow:visible;"/>
	</clipPath>
	<g class="st7">
		<path class="st1" d="M86.2,12.3h-92v92h92V12.3z"/>
		<path class="st2" d="M78.1,13.2c-1.5,1.7-2.1,2.3-3.4,2.3c-1.3,0-2-0.6-3.4-2.3c-0.2-0.3-0.5-0.6-0.8-0.9H55.8
			c-0.3,0.3-0.5,0.6-0.8,0.9c-1.5,1.7-2.1,2.3-3.4,2.3c-1.3,0-2-0.6-3.4-2.3c-0.2-0.3-0.5-0.6-0.8-0.9H32.8
			c-0.3,0.3-0.5,0.6-0.8,0.9c-1.5,1.7-2.1,2.3-3.4,2.3c-1.3,0-2-0.6-3.4-2.3c-0.2-0.3-0.5-0.6-0.8-0.9H9.8c-0.3,0.3-0.5,0.6-0.8,0.9
			c-1.5,1.7-2.1,2.3-3.4,2.3c-1.3,0-2-0.6-3.4-2.3c-0.2-0.3-0.5-0.6-0.8-0.9h-7.3v2.5c1.3,0,2,0.6,3.4,2.3c1.6,1.9,3.8,4.4,8.1,4.4
			c4.3,0,6.5-2.6,8.1-4.4c1.5-1.7,2.1-2.3,3.4-2.3c1.3,0,2,0.6,3.4,2.3c1.6,1.9,3.8,4.4,8.1,4.4s6.5-2.6,8.1-4.4
			c1.5-1.7,2.1-2.3,3.4-2.3c1.3,0,2,0.6,3.4,2.3c1.6,1.9,3.8,4.4,8.1,4.4s6.5-2.6,8.1-4.4c1.5-1.7,2.1-2.3,3.4-2.3
			c1.3,0,2,0.6,3.4,2.3c1.6,1.9,3.8,4.4,8.1,4.4c4.3,0,6.5-2.6,8.1-4.4c1.5-1.7,2.1-2.3,3.4-2.3v-2.5h-7.3
			C78.6,12.6,78.3,12.9,78.1,13.2z"/>
		<path class="st3" d="M74.7,26.1c-3.9,0-6-2.4-7.5-4.2c-1.4-1.7-2.3-2.6-4-2.6c-1.7,0-2.6,0.9-4,2.6c-1.5,1.8-3.6,4.2-7.5,4.2
			s-6-2.4-7.5-4.2c-1.4-1.7-2.3-2.6-4-2.6c-1.7,0-2.6,0.9-4,2.6c-1.5,1.8-3.6,4.2-7.5,4.2s-6-2.4-7.5-4.2c-1.4-1.7-2.3-2.6-4-2.6
			c-1.7,0-2.6,0.9-4,2.6c-1.5,1.8-3.6,4.2-7.5,4.2c-3.9,0-6-2.4-7.5-4.2c-1.4-1.7-2.3-2.6-4-2.6v-4.6c3.9,0,6,2.4,7.5,4.2
			c1.4,1.7,2.3,2.6,4,2.6s2.6-0.9,4-2.6c1.5-1.8,3.6-4.2,7.5-4.2s6,2.4,7.5,4.2c1.4,1.7,2.3,2.6,4,2.6c1.7,0,2.6-0.9,4-2.6
			c1.5-1.8,3.6-4.2,7.5-4.2s6,2.4,7.5,4.2c1.4,1.7,2.3,2.6,4,2.6c1.7,0,2.6-0.9,4-2.6c1.5-1.8,3.6-4.2,7.5-4.2s6,2.4,7.5,4.2
			c1.4,1.7,2.3,2.6,4,2.6c1.7,0,2.6-0.9,4-2.6c1.5-1.8,3.6-4.2,7.5-4.2v4.6c-1.7,0-2.6,0.9-4,2.6C80.7,23.7,78.6,26.1,74.7,26.1z"/>
		<path class="st3" d="M74.7,38.5c-3.9,0-6-2.4-7.5-4.2c-1.4-1.7-2.3-2.6-4-2.6c-1.7,0-2.6,0.9-4,2.6c-1.5,1.8-3.6,4.2-7.5,4.2
			s-6-2.4-7.5-4.2c-1.4-1.7-2.3-2.6-4-2.6c-1.7,0-2.6,0.9-4,2.6c-1.5,1.8-3.6,4.2-7.5,4.2s-6-2.4-7.5-4.2c-1.4-1.7-2.3-2.6-4-2.6
			c-1.7,0-2.6,0.9-4,2.6c-1.5,1.8-3.6,4.2-7.5,4.2c-3.9,0-6-2.4-7.5-4.2c-1.4-1.7-2.3-2.6-4-2.6v-4.6c3.9,0,6,2.4,7.5,4.2
			c1.4,1.7,2.3,2.6,4,2.6s2.6-0.9,4-2.6c1.5-1.8,3.6-4.2,7.5-4.2s6,2.4,7.5,4.2c1.4,1.7,2.3,2.6,4,2.6c1.7,0,2.6-0.9,4-2.6
			c1.5-1.8,3.6-4.2,7.5-4.2s6,2.4,7.5,4.2c1.4,1.7,2.3,2.6,4,2.6c1.7,0,2.6-0.9,4-2.6c1.5-1.8,3.6-4.2,7.5-4.2s6,2.4,7.5,4.2
			c1.4,1.7,2.3,2.6,4,2.6c1.7,0,2.6-0.9,4-2.6c1.5-1.8,3.6-4.2,7.5-4.2v4.6c-1.7,0-2.6,0.9-4,2.6C80.7,36.1,78.6,38.5,74.7,38.5z"/>
	</g>
</g>
<g>
	<defs>
		<path id="SVGID_11_" d="M89.7,25.4v-1.6h1.4c2.7,0,6.7-0.3,6.7-4.1c0-4-3.9-3.9-6.7-3.9h-7.3v0.3c2.1,0.1,2,0.4,2,4.3v4.8
			c0,3.9,0.1,4.2-2,4.2v0.4h7.9v-0.4C89.6,29.5,89.7,29.3,89.7,25.4z M89.7,16.2h0.7c1.8,0,3.2,0.8,3.2,3.6c0,2.6-1.4,3.7-3.2,3.7
			h-0.7V16.2z"/>
	</defs>
	<clipPath id="SVGID_12_">
		<use xlink:href="#SVGID_11_"  style="overflow:visible;"/>
	</clipPath>
	<g class="st8">
		<path class="st1" d="M175.2,12.3h-92v92h92V12.3z"/>
		<path class="st2" d="M167.1,13.2c-1.5,1.7-2.1,2.3-3.4,2.3c-1.3,0-2-0.6-3.4-2.3c-0.2-0.3-0.5-0.6-0.8-0.9h-14.7
			c-0.3,0.3-0.5,0.6-0.8,0.9c-1.5,1.7-2.1,2.3-3.4,2.3c-1.3,0-2-0.6-3.4-2.3c-0.2-0.3-0.5-0.6-0.8-0.9h-14.7
			c-0.3,0.3-0.5,0.6-0.8,0.9c-1.5,1.7-2.1,2.3-3.4,2.3c-1.3,0-2-0.6-3.4-2.3c-0.2-0.3-0.5-0.6-0.8-0.9H98.8
			c-0.3,0.3-0.5,0.6-0.8,0.9c-1.5,1.7-2.1,2.3-3.4,2.3c-1.3,0-2-0.6-3.4-2.3c-0.2-0.3-0.5-0.6-0.8-0.9h-7.3v2.5c1.3,0,2,0.6,3.4,2.3
			c1.6,1.9,3.8,4.4,8.1,4.4c4.3,0,6.5-2.6,8.1-4.4c1.5-1.7,2.1-2.3,3.4-2.3c1.3,0,2,0.6,3.4,2.3c1.6,1.9,3.8,4.4,8.1,4.4
			s6.5-2.6,8.1-4.4c1.5-1.7,2.1-2.3,3.4-2.3c1.3,0,2,0.6,3.4,2.3c1.6,1.9,3.8,4.4,8.1,4.4c4.3,0,6.5-2.6,8.1-4.4
			c1.5-1.7,2.1-2.3,3.4-2.3c1.3,0,2,0.6,3.4,2.3c1.6,1.9,3.8,4.4,8.1,4.4c4.3,0,6.5-2.6,8.1-4.4c1.5-1.7,2.1-2.3,3.4-2.3v-2.5h-7.3
			C167.6,12.6,167.3,12.9,167.1,13.2z"/>
		<path class="st3" d="M163.7,26.1c-3.9,0-6-2.4-7.5-4.2c-1.4-1.7-2.3-2.6-4-2.6c-1.7,0-2.6,0.9-4,2.6c-1.5,1.8-3.6,4.2-7.5,4.2
			s-6-2.4-7.5-4.2c-1.4-1.7-2.3-2.6-4-2.6c-1.7,0-2.6,0.9-4,2.6c-1.5,1.8-3.6,4.2-7.5,4.2s-6-2.4-7.5-4.2c-1.4-1.7-2.3-2.6-4-2.6
			c-1.7,0-2.6,0.9-4,2.6c-1.5,1.8-3.6,4.2-7.5,4.2c-3.9,0-6-2.4-7.5-4.2c-1.4-1.7-2.3-2.6-4-2.6v-4.6c3.9,0,6,2.4,7.5,4.2
			c1.4,1.7,2.3,2.6,4,2.6s2.6-0.9,4-2.6c1.5-1.8,3.6-4.2,7.5-4.2s6,2.4,7.5,4.2c1.4,1.7,2.3,2.6,4,2.6c1.7,0,2.6-0.9,4-2.6
			c1.5-1.8,3.6-4.2,7.5-4.2s6,2.4,7.5,4.2c1.4,1.7,2.3,2.6,4,2.6c1.7,0,2.6-0.9,4-2.6c1.5-1.8,3.6-4.2,7.5-4.2s6,2.4,7.5,4.2
			c1.4,1.7,2.3,2.6,4,2.6c1.7,0,2.6-0.9,4-2.6c1.5-1.8,3.6-4.2,7.5-4.2v4.6c-1.7,0-2.6,0.9-4,2.6C169.7,23.7,167.6,26.1,163.7,26.1z
			"/>
		<path class="st3" d="M163.7,38.5c-3.9,0-6-2.4-7.5-4.2c-1.4-1.7-2.3-2.6-4-2.6c-1.7,0-2.6,0.9-4,2.6c-1.5,1.8-3.6,4.2-7.5,4.2
			s-6-2.4-7.5-4.2c-1.4-1.7-2.3-2.6-4-2.6c-1.7,0-2.6,0.9-4,2.6c-1.5,1.8-3.6,4.2-7.5,4.2s-6-2.4-7.5-4.2c-1.4-1.7-2.3-2.6-4-2.6
			c-1.7,0-2.6,0.9-4,2.6c-1.5,1.8-3.6,4.2-7.5,4.2c-3.9,0-6-2.4-7.5-4.2c-1.4-1.7-2.3-2.6-4-2.6v-4.6c3.9,0,6,2.4,7.5,4.2
			c1.4,1.7,2.3,2.6,4,2.6s2.6-0.9,4-2.6c1.5-1.8,3.6-4.2,7.5-4.2s6,2.4,7.5,4.2c1.4,1.7,2.3,2.6,4,2.6c1.7,0,2.6-0.9,4-2.6
			c1.5-1.8,3.6-4.2,7.5-4.2s6,2.4,7.5,4.2c1.4,1.7,2.3,2.6,4,2.6c1.7,0,2.6-0.9,4-2.6c1.5-1.8,3.6-4.2,7.5-4.2s6,2.4,7.5,4.2
			c1.4,1.7,2.3,2.6,4,2.6c1.7,0,2.6-0.9,4-2.6c1.5-1.8,3.6-4.2,7.5-4.2v4.6c-1.7,0-2.6,0.9-4,2.6C169.7,36.1,167.6,38.5,163.7,38.5z
			"/>
	</g>
</g>
<g>
	<defs>
		<path id="SVGID_13_" d="M105.2,25.3v-2.1c1.3,0,2.4,0.1,2.9,0.9c0.9,1.4-0.5,6.2,3.9,6.2c2.5,0,3.4-1.6,3.4-3.1l0-0.6h-0.4l0,0.6
			c-0.1,0.8-0.4,1.4-1,1.4c-1.9,0-0.4-5-5.3-5.5c2.3-0.3,4.7-1,4.7-3.6c0-3.7-4.1-3.6-6.9-3.6h-7.3v0.3c2.1,0.1,2,0.4,2,4.3v4.8
			c0,3.9,0.1,4.2-2,4.2v0.4h7.9v-0.4C105,29.5,105.2,29.2,105.2,25.3z M105.2,16.2h0.7c1.8,0,3.4,0.8,3.4,3.3c0,2.3-1.6,3.4-3.4,3.4
			h-0.7V16.2z"/>
	</defs>
	<clipPath id="SVGID_14_">
		<use xlink:href="#SVGID_13_"  style="overflow:visible;"/>
	</clipPath>
	<g class="st9">
		<path class="st1" d="M178.2,12.3h-92v92h92V12.3z"/>
		<path class="st2" d="M170.1,13.2c-1.5,1.7-2.1,2.3-3.4,2.3c-1.3,0-2-0.6-3.4-2.3c-0.2-0.3-0.5-0.6-0.8-0.9h-14.7
			c-0.3,0.3-0.5,0.6-0.8,0.9c-1.5,1.7-2.1,2.3-3.4,2.3c-1.3,0-2-0.6-3.4-2.3c-0.2-0.3-0.5-0.6-0.8-0.9h-14.7
			c-0.3,0.3-0.5,0.6-0.8,0.9c-1.5,1.7-2.1,2.3-3.4,2.3c-1.3,0-2-0.6-3.4-2.3c-0.2-0.3-0.5-0.6-0.8-0.9h-14.7
			c-0.3,0.3-0.5,0.6-0.8,0.9c-1.5,1.7-2.1,2.3-3.4,2.3c-1.3,0-2-0.6-3.4-2.3c-0.2-0.3-0.5-0.6-0.8-0.9h-7.3v2.5c1.3,0,2,0.6,3.4,2.3
			c1.6,1.9,3.8,4.4,8.1,4.4c4.3,0,6.5-2.6,8.1-4.4c1.5-1.7,2.1-2.3,3.4-2.3c1.3,0,2,0.6,3.4,2.3c1.6,1.9,3.8,4.4,8.1,4.4
			s6.5-2.6,8.1-4.4c1.5-1.7,2.1-2.3,3.4-2.3c1.3,0,2,0.6,3.4,2.3c1.6,1.9,3.8,4.4,8.1,4.4c4.3,0,6.5-2.6,8.1-4.4
			c1.5-1.7,2.1-2.3,3.4-2.3c1.3,0,2,0.6,3.4,2.3c1.6,1.9,3.8,4.4,8.1,4.4c4.3,0,6.5-2.6,8.1-4.4c1.5-1.7,2.1-2.3,3.4-2.3v-2.5h-7.3
			C170.6,12.6,170.3,12.9,170.1,13.2z"/>
		<path class="st3" d="M166.7,26.1c-3.9,0-6-2.4-7.5-4.2c-1.4-1.7-2.3-2.6-4-2.6c-1.7,0-2.6,0.9-4,2.6c-1.5,1.8-3.6,4.2-7.5,4.2
			s-6-2.4-7.5-4.2c-1.4-1.7-2.3-2.6-4-2.6c-1.7,0-2.6,0.9-4,2.6c-1.5,1.8-3.6,4.2-7.5,4.2s-6-2.4-7.5-4.2c-1.4-1.7-2.3-2.6-4-2.6
			c-1.7,0-2.6,0.9-4,2.6c-1.5,1.8-3.6,4.2-7.5,4.2c-3.9,0-6-2.4-7.5-4.2c-1.4-1.7-2.3-2.6-4-2.6v-4.6c3.9,0,6,2.4,7.5,4.2
			c1.4,1.7,2.3,2.6,4,2.6s2.6-0.9,4-2.6c1.5-1.8,3.6-4.2,7.5-4.2s6,2.4,7.5,4.2c1.4,1.7,2.3,2.6,4,2.6c1.7,0,2.6-0.9,4-2.6
			c1.5-1.8,3.6-4.2,7.5-4.2s6,2.4,7.5,4.2c1.4,1.7,2.3,2.6,4,2.6c1.7,0,2.6-0.9,4-2.6c1.5-1.8,3.6-4.2,7.5-4.2s6,2.4,7.5,4.2
			c1.4,1.7,2.3,2.6,4,2.6c1.7,0,2.6-0.9,4-2.6c1.5-1.8,3.6-4.2,7.5-4.2v4.6c-1.7,0-2.6,0.9-4,2.6C172.7,23.7,170.6,26.1,166.7,26.1z
			"/>
		<path class="st3" d="M166.7,38.5c-3.9,0-6-2.4-7.5-4.2c-1.4-1.7-2.3-2.6-4-2.6c-1.7,0-2.6,0.9-4,2.6c-1.5,1.8-3.6,4.2-7.5,4.2
			s-6-2.4-7.5-4.2c-1.4-1.7-2.3-2.6-4-2.6c-1.7,0-2.6,0.9-4,2.6c-1.5,1.8-3.6,4.2-7.5,4.2s-6-2.4-7.5-4.2c-1.4-1.7-2.3-2.6-4-2.6
			c-1.7,0-2.6,0.9-4,2.6c-1.5,1.8-3.6,4.2-7.5,4.2c-3.9,0-6-2.4-7.5-4.2c-1.4-1.7-2.3-2.6-4-2.6v-4.6c3.9,0,6,2.4,7.5,4.2
			c1.4,1.7,2.3,2.6,4,2.6s2.6-0.9,4-2.6c1.5-1.8,3.6-4.2,7.5-4.2s6,2.4,7.5,4.2c1.4,1.7,2.3,2.6,4,2.6c1.7,0,2.6-0.9,4-2.6
			c1.5-1.8,3.6-4.2,7.5-4.2s6,2.4,7.5,4.2c1.4,1.7,2.3,2.6,4,2.6c1.7,0,2.6-0.9,4-2.6c1.5-1.8,3.6-4.2,7.5-4.2s6,2.4,7.5,4.2
			c1.4,1.7,2.3,2.6,4,2.6c1.7,0,2.6-0.9,4-2.6c1.5-1.8,3.6-4.2,7.5-4.2v4.6c-1.7,0-2.6,0.9-4,2.6C172.7,36.1,170.6,38.5,166.7,38.5z
			"/>
	</g>
</g>
<g>
	<defs>
		<path id="SVGID_15_" d="M122.5,25.3v-4.8c0-3.9-0.1-4.2,2-4.3v-0.3h-7.9v0.3c2.1,0.1,2,0.4,2,4.3v4.8c0,3.9,0.1,4.2-2,4.2v0.4h7.9
			v-0.4C122.4,29.5,122.5,29.2,122.5,25.3z"/>
	</defs>
	<clipPath id="SVGID_16_">
		<use xlink:href="#SVGID_15_"  style="overflow:visible;"/>
	</clipPath>
	<g class="st10">
		<path class="st1" d="M178.2,12.3h-92v92h92V12.3z"/>
		<path class="st2" d="M170.1,13.2c-1.5,1.7-2.1,2.3-3.4,2.3c-1.3,0-2-0.6-3.4-2.3c-0.2-0.3-0.5-0.6-0.8-0.9h-14.7
			c-0.3,0.3-0.5,0.6-0.8,0.9c-1.5,1.7-2.1,2.3-3.4,2.3c-1.3,0-2-0.6-3.4-2.3c-0.2-0.3-0.5-0.6-0.8-0.9h-14.7
			c-0.3,0.3-0.5,0.6-0.8,0.9c-1.5,1.7-2.1,2.3-3.4,2.3c-1.3,0-2-0.6-3.4-2.3c-0.2-0.3-0.5-0.6-0.8-0.9h-14.7
			c-0.3,0.3-0.5,0.6-0.8,0.9c-1.5,1.7-2.1,2.3-3.4,2.3c-1.3,0-2-0.6-3.4-2.3c-0.2-0.3-0.5-0.6-0.8-0.9h-7.3v2.5c1.3,0,2,0.6,3.4,2.3
			c1.6,1.9,3.8,4.4,8.1,4.4c4.3,0,6.5-2.6,8.1-4.4c1.5-1.7,2.1-2.3,3.4-2.3c1.3,0,2,0.6,3.4,2.3c1.6,1.9,3.8,4.4,8.1,4.4
			s6.5-2.6,8.1-4.4c1.5-1.7,2.1-2.3,3.4-2.3c1.3,0,2,0.6,3.4,2.3c1.6,1.9,3.8,4.4,8.1,4.4c4.3,0,6.5-2.6,8.1-4.4
			c1.5-1.7,2.1-2.3,3.4-2.3c1.3,0,2,0.6,3.4,2.3c1.6,1.9,3.8,4.4,8.1,4.4c4.3,0,6.5-2.6,8.1-4.4c1.5-1.7,2.1-2.3,3.4-2.3v-2.5h-7.3
			C170.6,12.6,170.3,12.9,170.1,13.2z"/>
		<path class="st3" d="M166.7,26.1c-3.9,0-6-2.4-7.5-4.2c-1.4-1.7-2.3-2.6-4-2.6c-1.7,0-2.6,0.9-4,2.6c-1.5,1.8-3.6,4.2-7.5,4.2
			s-6-2.4-7.5-4.2c-1.4-1.7-2.3-2.6-4-2.6c-1.7,0-2.6,0.9-4,2.6c-1.5,1.8-3.6,4.2-7.5,4.2s-6-2.4-7.5-4.2c-1.4-1.7-2.3-2.6-4-2.6
			c-1.7,0-2.6,0.9-4,2.6c-1.5,1.8-3.6,4.2-7.5,4.2c-3.9,0-6-2.4-7.5-4.2c-1.4-1.7-2.3-2.6-4-2.6v-4.6c3.9,0,6,2.4,7.5,4.2
			c1.4,1.7,2.3,2.6,4,2.6s2.6-0.9,4-2.6c1.5-1.8,3.6-4.2,7.5-4.2s6,2.4,7.5,4.2c1.4,1.7,2.3,2.6,4,2.6c1.7,0,2.6-0.9,4-2.6
			c1.5-1.8,3.6-4.2,7.5-4.2s6,2.4,7.5,4.2c1.4,1.7,2.3,2.6,4,2.6c1.7,0,2.6-0.9,4-2.6c1.5-1.8,3.6-4.2,7.5-4.2s6,2.4,7.5,4.2
			c1.4,1.7,2.3,2.6,4,2.6c1.7,0,2.6-0.9,4-2.6c1.5-1.8,3.6-4.2,7.5-4.2v4.6c-1.7,0-2.6,0.9-4,2.6C172.7,23.7,170.6,26.1,166.7,26.1z
			"/>
		<path class="st3" d="M166.7,38.5c-3.9,0-6-2.4-7.5-4.2c-1.4-1.7-2.3-2.6-4-2.6c-1.7,0-2.6,0.9-4,2.6c-1.5,1.8-3.6,4.2-7.5,4.2
			s-6-2.4-7.5-4.2c-1.4-1.7-2.3-2.6-4-2.6c-1.7,0-2.6,0.9-4,2.6c-1.5,1.8-3.6,4.2-7.5,4.2s-6-2.4-7.5-4.2c-1.4-1.7-2.3-2.6-4-2.6
			c-1.7,0-2.6,0.9-4,2.6c-1.5,1.8-3.6,4.2-7.5,4.2c-3.9,0-6-2.4-7.5-4.2c-1.4-1.7-2.3-2.6-4-2.6v-4.6c3.9,0,6,2.4,7.5,4.2
			c1.4,1.7,2.3,2.6,4,2.6s2.6-0.9,4-2.6c1.5-1.8,3.6-4.2,7.5-4.2s6,2.4,7.5,4.2c1.4,1.7,2.3,2.6,4,2.6c1.7,0,2.6-0.9,4-2.6
			c1.5-1.8,3.6-4.2,7.5-4.2s6,2.4,7.5,4.2c1.4,1.7,2.3,2.6,4,2.6c1.7,0,2.6-0.9,4-2.6c1.5-1.8,3.6-4.2,7.5-4.2s6,2.4,7.5,4.2
			c1.4,1.7,2.3,2.6,4,2.6c1.7,0,2.6-0.9,4-2.6c1.5-1.8,3.6-4.2,7.5-4.2v4.6c-1.7,0-2.6,0.9-4,2.6C172.7,36.1,170.6,38.5,166.7,38.5z
			"/>
	</g>
</g>
<g>
	<defs>
		<path id="SVGID_17_" d="M139,20.4v3.5l-6.9-8.1h-6.6v0.4h0.7c0.7,0,1.2,0.3,1.7,0.9v8.2c0,3.8-0.1,4.2-2.4,4.2v0.4h5.8v-0.4
			c-2.7-0.1-2.9-0.5-2.9-4.2v-7.7c0.3,0.4,0.6,0.7,1,1.2l9.4,11.1h0.7v-9.4c0-3.8,0.2-4.2,2.5-4.2v-0.4h-5.8v0.4
			C138.8,16.3,139,16.7,139,20.4z"/>
	</defs>
	<clipPath id="SVGID_18_">
		<use xlink:href="#SVGID_17_"  style="overflow:visible;"/>
	</clipPath>
	<g class="st11">
		<path class="st1" d="M178.2,12.3h-92v92h92V12.3z"/>
		<path class="st2" d="M170.1,13.2c-1.5,1.7-2.1,2.3-3.4,2.3c-1.3,0-2-0.6-3.4-2.3c-0.2-0.3-0.5-0.6-0.8-0.9h-14.7
			c-0.3,0.3-0.5,0.6-0.8,0.9c-1.5,1.7-2.1,2.3-3.4,2.3c-1.3,0-2-0.6-3.4-2.3c-0.2-0.3-0.5-0.6-0.8-0.9h-14.7
			c-0.3,0.3-0.5,0.6-0.8,0.9c-1.5,1.7-2.1,2.3-3.4,2.3c-1.3,0-2-0.6-3.4-2.3c-0.2-0.3-0.5-0.6-0.8-0.9h-14.7
			c-0.3,0.3-0.5,0.6-0.8,0.9c-1.5,1.7-2.1,2.3-3.4,2.3c-1.3,0-2-0.6-3.4-2.3c-0.2-0.3-0.5-0.6-0.8-0.9h-7.3v2.5c1.3,0,2,0.6,3.4,2.3
			c1.6,1.9,3.8,4.4,8.1,4.4c4.3,0,6.5-2.6,8.1-4.4c1.5-1.7,2.1-2.3,3.4-2.3c1.3,0,2,0.6,3.4,2.3c1.6,1.9,3.8,4.4,8.1,4.4
			s6.5-2.6,8.1-4.4c1.5-1.7,2.1-2.3,3.4-2.3c1.3,0,2,0.6,3.4,2.3c1.6,1.9,3.8,4.4,8.1,4.4c4.3,0,6.5-2.6,8.1-4.4
			c1.5-1.7,2.1-2.3,3.4-2.3c1.3,0,2,0.6,3.4,2.3c1.6,1.9,3.8,4.4,8.1,4.4c4.3,0,6.5-2.6,8.1-4.4c1.5-1.7,2.1-2.3,3.4-2.3v-2.5h-7.3
			C170.6,12.6,170.3,12.9,170.1,13.2z"/>
		<path class="st3" d="M166.7,26.1c-3.9,0-6-2.4-7.5-4.2c-1.4-1.7-2.3-2.6-4-2.6c-1.7,0-2.6,0.9-4,2.6c-1.5,1.8-3.6,4.2-7.5,4.2
			s-6-2.4-7.5-4.2c-1.4-1.7-2.3-2.6-4-2.6c-1.7,0-2.6,0.9-4,2.6c-1.5,1.8-3.6,4.2-7.5,4.2s-6-2.4-7.5-4.2c-1.4-1.7-2.3-2.6-4-2.6
			c-1.7,0-2.6,0.9-4,2.6c-1.5,1.8-3.6,4.2-7.5,4.2c-3.9,0-6-2.4-7.5-4.2c-1.4-1.7-2.3-2.6-4-2.6v-4.6c3.9,0,6,2.4,7.5,4.2
			c1.4,1.7,2.3,2.6,4,2.6s2.6-0.9,4-2.6c1.5-1.8,3.6-4.2,7.5-4.2s6,2.4,7.5,4.2c1.4,1.7,2.3,2.6,4,2.6c1.7,0,2.6-0.9,4-2.6
			c1.5-1.8,3.6-4.2,7.5-4.2s6,2.4,7.5,4.2c1.4,1.7,2.3,2.6,4,2.6c1.7,0,2.6-0.9,4-2.6c1.5-1.8,3.6-4.2,7.5-4.2s6,2.4,7.5,4.2
			c1.4,1.7,2.3,2.6,4,2.6c1.7,0,2.6-0.9,4-2.6c1.5-1.8,3.6-4.2,7.5-4.2v4.6c-1.7,0-2.6,0.9-4,2.6C172.7,23.7,170.6,26.1,166.7,26.1z
			"/>
		<path class="st3" d="M166.7,38.5c-3.9,0-6-2.4-7.5-4.2c-1.4-1.7-2.3-2.6-4-2.6c-1.7,0-2.6,0.9-4,2.6c-1.5,1.8-3.6,4.2-7.5,4.2
			s-6-2.4-7.5-4.2c-1.4-1.7-2.3-2.6-4-2.6c-1.7,0-2.6,0.9-4,2.6c-1.5,1.8-3.6,4.2-7.5,4.2s-6-2.4-7.5-4.2c-1.4-1.7-2.3-2.6-4-2.6
			c-1.7,0-2.6,0.9-4,2.6c-1.5,1.8-3.6,4.2-7.5,4.2c-3.9,0-6-2.4-7.5-4.2c-1.4-1.7-2.3-2.6-4-2.6v-4.6c3.9,0,6,2.4,7.5,4.2
			c1.4,1.7,2.3,2.6,4,2.6s2.6-0.9,4-2.6c1.5-1.8,3.6-4.2,7.5-4.2s6,2.4,7.5,4.2c1.4,1.7,2.3,2.6,4,2.6c1.7,0,2.6-0.9,4-2.6
			c1.5-1.8,3.6-4.2,7.5-4.2s6,2.4,7.5,4.2c1.4,1.7,2.3,2.6,4,2.6c1.7,0,2.6-0.9,4-2.6c1.5-1.8,3.6-4.2,7.5-4.2s6,2.4,7.5,4.2
			c1.4,1.7,2.3,2.6,4,2.6c1.7,0,2.6-0.9,4-2.6c1.5-1.8,3.6-4.2,7.5-4.2v4.6c-1.7,0-2.6,0.9-4,2.6C172.7,36.1,170.6,38.5,166.7,38.5z
			"/>
	</g>
</g>
<g>
	<defs>
		<path id="SVGID_19_" d="M154.4,28.8c1.1,0,1.9,0.7,2.1,1.5l0.3-0.1v-3.8c0.1-2.1,0.1-2.5,2.1-2.7v-0.3h-8.4v0.3
			c2.5,0.1,2.6,0.5,2.6,2.7c0,2.3-1,3.1-2.4,3.1c-1.8,0-3.5-2.5-3.5-6.8c0-4.6,1.8-6.7,4.2-6.7c1.9,0,4.2,1.3,5,5.2h0.3v-5.8h-0.3
			c-0.1,0.5-0.4,1.2-1,1.2c-1,0-1.7-1.2-4.5-1.2c-4,0-7.8,2.7-7.8,7.6c0,4.8,3.8,7.3,6.7,7.3C152.4,30.3,152.9,28.8,154.4,28.8z"/>
	</defs>
	<clipPath id="SVGID_20_">
		<use xlink:href="#SVGID_19_"  style="overflow:visible;"/>
	</clipPath>
	<g class="st12">
		<path class="st1" d="M178.2,12.3h-92v92h92V12.3z"/>
		<path class="st2" d="M170.1,13.2c-1.5,1.7-2.1,2.3-3.4,2.3c-1.3,0-2-0.6-3.4-2.3c-0.2-0.3-0.5-0.6-0.8-0.9h-14.7
			c-0.3,0.3-0.5,0.6-0.8,0.9c-1.5,1.7-2.1,2.3-3.4,2.3c-1.3,0-2-0.6-3.4-2.3c-0.2-0.3-0.5-0.6-0.8-0.9h-14.7
			c-0.3,0.3-0.5,0.6-0.8,0.9c-1.5,1.7-2.1,2.3-3.4,2.3c-1.3,0-2-0.6-3.4-2.3c-0.2-0.3-0.5-0.6-0.8-0.9h-14.7
			c-0.3,0.3-0.5,0.6-0.8,0.9c-1.5,1.7-2.1,2.3-3.4,2.3c-1.3,0-2-0.6-3.4-2.3c-0.2-0.3-0.5-0.6-0.8-0.9h-7.3v2.5c1.3,0,2,0.6,3.4,2.3
			c1.6,1.9,3.8,4.4,8.1,4.4c4.3,0,6.5-2.6,8.1-4.4c1.5-1.7,2.1-2.3,3.4-2.3c1.3,0,2,0.6,3.4,2.3c1.6,1.9,3.8,4.4,8.1,4.4
			s6.5-2.6,8.1-4.4c1.5-1.7,2.1-2.3,3.4-2.3c1.3,0,2,0.6,3.4,2.3c1.6,1.9,3.8,4.4,8.1,4.4c4.3,0,6.5-2.6,8.1-4.4
			c1.5-1.7,2.1-2.3,3.4-2.3c1.3,0,2,0.6,3.4,2.3c1.6,1.9,3.8,4.4,8.1,4.4c4.3,0,6.5-2.6,8.1-4.4c1.5-1.7,2.1-2.3,3.4-2.3v-2.5h-7.3
			C170.6,12.6,170.3,12.9,170.1,13.2z"/>
		<path class="st3" d="M166.7,26.1c-3.9,0-6-2.4-7.5-4.2c-1.4-1.7-2.3-2.6-4-2.6c-1.7,0-2.6,0.9-4,2.6c-1.5,1.8-3.6,4.2-7.5,4.2
			s-6-2.4-7.5-4.2c-1.4-1.7-2.3-2.6-4-2.6c-1.7,0-2.6,0.9-4,2.6c-1.5,1.8-3.6,4.2-7.5,4.2s-6-2.4-7.5-4.2c-1.4-1.7-2.3-2.6-4-2.6
			c-1.7,0-2.6,0.9-4,2.6c-1.5,1.8-3.6,4.2-7.5,4.2c-3.9,0-6-2.4-7.5-4.2c-1.4-1.7-2.3-2.6-4-2.6v-4.6c3.9,0,6,2.4,7.5,4.2
			c1.4,1.7,2.3,2.6,4,2.6s2.6-0.9,4-2.6c1.5-1.8,3.6-4.2,7.5-4.2s6,2.4,7.5,4.2c1.4,1.7,2.3,2.6,4,2.6c1.7,0,2.6-0.9,4-2.6
			c1.5-1.8,3.6-4.2,7.5-4.2s6,2.4,7.5,4.2c1.4,1.7,2.3,2.6,4,2.6c1.7,0,2.6-0.9,4-2.6c1.5-1.8,3.6-4.2,7.5-4.2s6,2.4,7.5,4.2
			c1.4,1.7,2.3,2.6,4,2.6c1.7,0,2.6-0.9,4-2.6c1.5-1.8,3.6-4.2,7.5-4.2v4.6c-1.7,0-2.6,0.9-4,2.6C172.7,23.7,170.6,26.1,166.7,26.1z
			"/>
		<path class="st3" d="M166.7,38.5c-3.9,0-6-2.4-7.5-4.2c-1.4-1.7-2.3-2.6-4-2.6c-1.7,0-2.6,0.9-4,2.6c-1.5,1.8-3.6,4.2-7.5,4.2
			s-6-2.4-7.5-4.2c-1.4-1.7-2.3-2.6-4-2.6c-1.7,0-2.6,0.9-4,2.6c-1.5,1.8-3.6,4.2-7.5,4.2s-6-2.4-7.5-4.2c-1.4-1.7-2.3-2.6-4-2.6
			c-1.7,0-2.6,0.9-4,2.6c-1.5,1.8-3.6,4.2-7.5,4.2c-3.9,0-6-2.4-7.5-4.2c-1.4-1.7-2.3-2.6-4-2.6v-4.6c3.9,0,6,2.4,7.5,4.2
			c1.4,1.7,2.3,2.6,4,2.6s2.6-0.9,4-2.6c1.5-1.8,3.6-4.2,7.5-4.2s6,2.4,7.5,4.2c1.4,1.7,2.3,2.6,4,2.6c1.7,0,2.6-0.9,4-2.6
			c1.5-1.8,3.6-4.2,7.5-4.2s6,2.4,7.5,4.2c1.4,1.7,2.3,2.6,4,2.6c1.7,0,2.6-0.9,4-2.6c1.5-1.8,3.6-4.2,7.5-4.2s6,2.4,7.5,4.2
			c1.4,1.7,2.3,2.6,4,2.6c1.7,0,2.6-0.9,4-2.6c1.5-1.8,3.6-4.2,7.5-4.2v4.6c-1.7,0-2.6,0.9-4,2.6C172.7,36.1,170.6,38.5,166.7,38.5z
			"/>
	</g>
</g>
<g>
	<defs>
		<path id="SVGID_21_" d="M160.6,19.9c0,5.4,8.7,4.2,8.7,8.2c0,1.5-1.4,1.8-3.1,1.8c-2.4,0-4.7-2.1-5.4-5.4h-0.3v5.9h0.3
			c0.3-0.7,0.5-1.2,1.1-1.2c1.1,0,1.8,1.2,4.6,1.2c2.1,0,5.6-1.1,5.6-4.7c0-5-9-4-9-7.7c0-1.3,1.2-2,2.7-2c2.3,0,4.1,2,4.8,5.4h0.3
			v-5.8h-0.3c-0.2,0.6-0.5,1.2-1.1,1.2c-1,0-1.7-1.2-3.7-1.2C162.9,15.4,160.6,17.4,160.6,19.9z"/>
	</defs>
	<clipPath id="SVGID_22_">
		<use xlink:href="#SVGID_21_"  style="overflow:visible;"/>
	</clipPath>
	<g class="st13">
		<path class="st1" d="M178.2,12.3h-92v92h92V12.3z"/>
		<path class="st2" d="M170.1,13.2c-1.5,1.7-2.1,2.3-3.4,2.3c-1.3,0-2-0.6-3.4-2.3c-0.2-0.3-0.5-0.6-0.8-0.9h-14.7
			c-0.3,0.3-0.5,0.6-0.8,0.9c-1.5,1.7-2.1,2.3-3.4,2.3c-1.3,0-2-0.6-3.4-2.3c-0.2-0.3-0.5-0.6-0.8-0.9h-14.7
			c-0.3,0.3-0.5,0.6-0.8,0.9c-1.5,1.7-2.1,2.3-3.4,2.3c-1.3,0-2-0.6-3.4-2.3c-0.2-0.3-0.5-0.6-0.8-0.9h-14.7
			c-0.3,0.3-0.5,0.6-0.8,0.9c-1.5,1.7-2.1,2.3-3.4,2.3c-1.3,0-2-0.6-3.4-2.3c-0.2-0.3-0.5-0.6-0.8-0.9h-7.3v2.5c1.3,0,2,0.6,3.4,2.3
			c1.6,1.9,3.8,4.4,8.1,4.4c4.3,0,6.5-2.6,8.1-4.4c1.5-1.7,2.1-2.3,3.4-2.3c1.3,0,2,0.6,3.4,2.3c1.6,1.9,3.8,4.4,8.1,4.4
			s6.5-2.6,8.1-4.4c1.5-1.7,2.1-2.3,3.4-2.3c1.3,0,2,0.6,3.4,2.3c1.6,1.9,3.8,4.4,8.1,4.4c4.3,0,6.5-2.6,8.1-4.4
			c1.5-1.7,2.1-2.3,3.4-2.3c1.3,0,2,0.6,3.4,2.3c1.6,1.9,3.8,4.4,8.1,4.4c4.3,0,6.5-2.6,8.1-4.4c1.5-1.7,2.1-2.3,3.4-2.3v-2.5h-7.3
			C170.6,12.6,170.3,12.9,170.1,13.2z"/>
		<path class="st3" d="M166.7,26.1c-3.9,0-6-2.4-7.5-4.2c-1.4-1.7-2.3-2.6-4-2.6c-1.7,0-2.6,0.9-4,2.6c-1.5,1.8-3.6,4.2-7.5,4.2
			s-6-2.4-7.5-4.2c-1.4-1.7-2.3-2.6-4-2.6c-1.7,0-2.6,0.9-4,2.6c-1.5,1.8-3.6,4.2-7.5,4.2s-6-2.4-7.5-4.2c-1.4-1.7-2.3-2.6-4-2.6
			c-1.7,0-2.6,0.9-4,2.6c-1.5,1.8-3.6,4.2-7.5,4.2c-3.9,0-6-2.4-7.5-4.2c-1.4-1.7-2.3-2.6-4-2.6v-4.6c3.9,0,6,2.4,7.5,4.2
			c1.4,1.7,2.3,2.6,4,2.6s2.6-0.9,4-2.6c1.5-1.8,3.6-4.2,7.5-4.2s6,2.4,7.5,4.2c1.4,1.7,2.3,2.6,4,2.6c1.7,0,2.6-0.9,4-2.6
			c1.5-1.8,3.6-4.2,7.5-4.2s6,2.4,7.5,4.2c1.4,1.7,2.3,2.6,4,2.6c1.7,0,2.6-0.9,4-2.6c1.5-1.8,3.6-4.2,7.5-4.2s6,2.4,7.5,4.2
			c1.4,1.7,2.3,2.6,4,2.6c1.7,0,2.6-0.9,4-2.6c1.5-1.8,3.6-4.2,7.5-4.2v4.6c-1.7,0-2.6,0.9-4,2.6C172.7,23.7,170.6,26.1,166.7,26.1z
			"/>
		<path class="st3" d="M166.7,38.5c-3.9,0-6-2.4-7.5-4.2c-1.4-1.7-2.3-2.6-4-2.6c-1.7,0-2.6,0.9-4,2.6c-1.5,1.8-3.6,4.2-7.5,4.2
			s-6-2.4-7.5-4.2c-1.4-1.7-2.3-2.6-4-2.6c-1.7,0-2.6,0.9-4,2.6c-1.5,1.8-3.6,4.2-7.5,4.2s-6-2.4-7.5-4.2c-1.4-1.7-2.3-2.6-4-2.6
			c-1.7,0-2.6,0.9-4,2.6c-1.5,1.8-3.6,4.2-7.5,4.2c-3.9,0-6-2.4-7.5-4.2c-1.4-1.7-2.3-2.6-4-2.6v-4.6c3.9,0,6,2.4,7.5,4.2
			c1.4,1.7,2.3,2.6,4,2.6s2.6-0.9,4-2.6c1.5-1.8,3.6-4.2,7.5-4.2s6,2.4,7.5,4.2c1.4,1.7,2.3,2.6,4,2.6c1.7,0,2.6-0.9,4-2.6
			c1.5-1.8,3.6-4.2,7.5-4.2s6,2.4,7.5,4.2c1.4,1.7,2.3,2.6,4,2.6c1.7,0,2.6-0.9,4-2.6c1.5-1.8,3.6-4.2,7.5-4.2s6,2.4,7.5,4.2
			c1.4,1.7,2.3,2.6,4,2.6c1.7,0,2.6-0.9,4-2.6c1.5-1.8,3.6-4.2,7.5-4.2v4.6c-1.7,0-2.6,0.9-4,2.6C172.7,36.1,170.6,38.5,166.7,38.5z
			"/>
	</g>
</g>
<g>
	<path class="st14" d="M137.7,3.1h0.3c0.1,0,0.2,0,0.3,0c0.1,0,0.2-0.1,0.2-0.2l1.9-2.5c0.1-0.1,0.2-0.2,0.3-0.2
		c0.1,0,0.2-0.1,0.3-0.1h1.1l-2.4,2.9c-0.1,0.1-0.1,0.2-0.2,0.2c-0.1,0.1-0.1,0.1-0.2,0.2c0.1,0,0.2,0.1,0.3,0.2
		c0.1,0.1,0.2,0.2,0.3,0.3l2.5,3.3h-1.2c-0.2,0-0.3,0-0.4-0.1c-0.1,0-0.1-0.1-0.2-0.2l-2-2.6c-0.1-0.1-0.1-0.1-0.2-0.2
		c-0.1,0-0.2-0.1-0.3-0.1h-0.4v3.1h-1.3V0.1h1.3V3.1z"/>
	<path class="st14" d="M34.6,0.1v1h-3.1v2.1h2.6v1.1h-2.6v2.9h-1.3V0.1H34.6z"/>
	<path class="st14" d="M43.1,7.2h-1c-0.1,0-0.2,0-0.3-0.1c-0.1-0.1-0.1-0.1-0.2-0.2l-0.5-1.4h-2.9l-0.5,1.4c0,0.1-0.1,0.1-0.2,0.2
		c-0.1,0.1-0.2,0.1-0.3,0.1h-1L39,0.1h1.3L43.1,7.2z M38.5,4.5h2.3l-0.9-2.4c0-0.1-0.1-0.2-0.1-0.4c0-0.1-0.1-0.3-0.1-0.5
		c0,0.2-0.1,0.3-0.1,0.5c0,0.1-0.1,0.3-0.1,0.4L38.5,4.5z"/>
	<path class="st14" d="M49.6,1.4c0,0.1-0.1,0.1-0.1,0.2c0,0-0.1,0-0.2,0c-0.1,0-0.1,0-0.2-0.1c-0.1-0.1-0.2-0.1-0.3-0.2
		c-0.1-0.1-0.2-0.1-0.4-0.2c-0.1-0.1-0.3-0.1-0.5-0.1c-0.2,0-0.3,0-0.5,0.1c-0.1,0-0.2,0.1-0.3,0.2c-0.1,0.1-0.2,0.2-0.2,0.3
		c0,0.1-0.1,0.2-0.1,0.4c0,0.2,0,0.3,0.1,0.4c0.1,0.1,0.2,0.2,0.4,0.3c0.2,0.1,0.3,0.1,0.5,0.2C48,3,48.2,3.1,48.4,3.1
		c0.2,0.1,0.4,0.1,0.6,0.2c0.2,0.1,0.4,0.2,0.5,0.4c0.2,0.1,0.3,0.3,0.4,0.5C50,4.5,50,4.7,50,5c0,0.3-0.1,0.6-0.2,0.9
		c-0.1,0.3-0.3,0.5-0.5,0.7c-0.2,0.2-0.5,0.4-0.8,0.5c-0.3,0.1-0.6,0.2-1,0.2c-0.2,0-0.4,0-0.7-0.1c-0.2,0-0.4-0.1-0.6-0.2
		c-0.2-0.1-0.4-0.2-0.6-0.3c-0.2-0.1-0.3-0.2-0.5-0.4l0.4-0.6c0,0,0.1-0.1,0.1-0.1c0.1,0,0.1,0,0.2,0c0.1,0,0.2,0,0.3,0.1
		c0.1,0.1,0.2,0.1,0.3,0.2C46.6,6,46.8,6,47,6.1c0.2,0.1,0.4,0.1,0.6,0.1c0.4,0,0.7-0.1,0.9-0.3c0.2-0.2,0.3-0.4,0.3-0.8
		c0-0.2,0-0.3-0.1-0.5c-0.1-0.1-0.2-0.2-0.4-0.3c-0.2-0.1-0.3-0.1-0.5-0.2c-0.2-0.1-0.4-0.1-0.6-0.2c-0.2-0.1-0.4-0.1-0.6-0.2
		c-0.2-0.1-0.4-0.2-0.5-0.4c-0.2-0.1-0.3-0.3-0.4-0.5c-0.1-0.2-0.1-0.5-0.1-0.8c0-0.3,0.1-0.5,0.2-0.8c0.1-0.2,0.3-0.5,0.4-0.6
		c0.2-0.2,0.4-0.3,0.7-0.5c0.3-0.1,0.6-0.2,1-0.2c0.4,0,0.8,0.1,1.2,0.2c0.4,0.1,0.7,0.3,0.9,0.5L49.6,1.4z"/>
	<path class="st14" d="M58.9,7.2h-1.3V4.1h-3.3v3.1H53V0.1h1.3v3h3.3v-3h1.3V7.2z"/>
	<path class="st14" d="M63.8,7.2h-1.3V0.1h1.3V7.2z"/>
	<path class="st14" d="M74.1,3.7c0,0.5-0.1,1-0.3,1.4c-0.2,0.4-0.4,0.8-0.7,1.1C72.8,6.6,72.4,6.8,72,7c-0.4,0.2-0.9,0.3-1.5,0.3
		c-0.5,0-1-0.1-1.5-0.3c-0.4-0.2-0.8-0.4-1.1-0.8c-0.3-0.3-0.6-0.7-0.7-1.1C67,4.7,67,4.2,67,3.7c0-0.5,0.1-1,0.3-1.4
		c0.2-0.4,0.4-0.8,0.7-1.1c0.3-0.3,0.7-0.6,1.1-0.8c0.4-0.2,0.9-0.3,1.5-0.3c0.5,0,1,0.1,1.5,0.3c0.4,0.2,0.8,0.4,1.1,0.8
		c0.3,0.3,0.6,0.7,0.7,1.1C74,2.7,74.1,3.2,74.1,3.7z M72.8,3.7c0-0.4-0.1-0.7-0.2-1c-0.1-0.3-0.2-0.6-0.4-0.8s-0.4-0.4-0.7-0.5
		c-0.3-0.1-0.6-0.2-0.9-0.2s-0.7,0.1-0.9,0.2c-0.3,0.1-0.5,0.3-0.7,0.5c-0.2,0.2-0.3,0.5-0.4,0.8c-0.1,0.3-0.2,0.7-0.2,1
		s0.1,0.7,0.2,1c0.1,0.3,0.3,0.6,0.4,0.8c0.2,0.2,0.4,0.4,0.7,0.5c0.3,0.1,0.6,0.2,0.9,0.2s0.7-0.1,0.9-0.2c0.3-0.1,0.5-0.3,0.7-0.5
		c0.2-0.2,0.3-0.5,0.4-0.8C72.7,4.4,72.8,4.1,72.8,3.7z"/>
	<path class="st14" d="M77.8,0.1c0.1,0,0.1,0,0.1,0c0,0,0.1,0,0.1,0c0,0,0.1,0,0.1,0.1c0,0,0.1,0.1,0.1,0.1l3.7,4.7
		c0-0.1,0-0.2,0-0.3c0-0.1,0-0.2,0-0.3V0.1h1.2v7.1h-0.7c-0.1,0-0.2,0-0.3,0c-0.1,0-0.1-0.1-0.2-0.2l-3.7-4.7c0,0.1,0,0.2,0,0.3
		c0,0.1,0,0.2,0,0.3v4.3h-1.2V0.1H77.8z"/>
	<path class="st14" d="M89.7,6.2c0.3,0,0.6,0,0.8-0.1c0.2-0.1,0.4-0.1,0.6-0.2V4.7h-0.9c-0.1,0-0.2,0-0.2-0.1c0,0-0.1-0.1-0.1-0.2
		V3.7h2.4v2.9c-0.2,0.1-0.4,0.2-0.6,0.3C91.5,7,91.3,7,91.1,7.1c-0.2,0.1-0.5,0.1-0.7,0.1c-0.3,0-0.5,0-0.8,0c-0.5,0-1-0.1-1.4-0.3
		c-0.4-0.2-0.8-0.4-1.1-0.7c-0.3-0.3-0.6-0.7-0.7-1.1C86.1,4.7,86,4.2,86,3.7c0-0.5,0.1-1,0.3-1.5c0.2-0.4,0.4-0.8,0.7-1.1
		c0.3-0.3,0.7-0.6,1.2-0.7c0.5-0.2,1-0.3,1.5-0.3c0.6,0,1.1,0.1,1.5,0.3C91.6,0.5,92,0.7,92.3,1l-0.4,0.6c-0.1,0.1-0.2,0.2-0.3,0.2
		c-0.1,0-0.2,0-0.2-0.1c-0.1-0.1-0.2-0.1-0.3-0.2c-0.1-0.1-0.2-0.1-0.4-0.2c-0.1,0-0.3-0.1-0.4-0.1c-0.2,0-0.4,0-0.6,0
		c-0.3,0-0.7,0.1-0.9,0.2c-0.3,0.1-0.5,0.3-0.7,0.5s-0.4,0.5-0.5,0.8c-0.1,0.3-0.2,0.6-0.2,1c0,0.4,0.1,0.8,0.2,1.1
		c0.1,0.3,0.3,0.6,0.5,0.8c0.2,0.2,0.4,0.4,0.7,0.5C89,6.2,89.4,6.2,89.7,6.2z"/>
	<path class="st14" d="M102.2,3.7c0,0.5-0.1,1-0.3,1.4c-0.2,0.4-0.4,0.8-0.7,1.1c-0.3,0.3-0.7,0.6-1.1,0.8c-0.4,0.2-0.9,0.3-1.5,0.3
		c-0.5,0-1-0.1-1.5-0.3c-0.4-0.2-0.8-0.4-1.1-0.8c-0.3-0.3-0.6-0.7-0.7-1.1c-0.2-0.4-0.3-0.9-0.3-1.4c0-0.5,0.1-1,0.3-1.4
		c0.2-0.4,0.4-0.8,0.7-1.1c0.3-0.3,0.7-0.6,1.1-0.8c0.4-0.2,0.9-0.3,1.5-0.3c0.5,0,1,0.1,1.5,0.3c0.4,0.2,0.8,0.4,1.1,0.8
		c0.3,0.3,0.6,0.7,0.7,1.1C102.2,2.7,102.2,3.2,102.2,3.7z M100.9,3.7c0-0.4-0.1-0.7-0.2-1c-0.1-0.3-0.2-0.6-0.4-0.8
		c-0.2-0.2-0.4-0.4-0.7-0.5c-0.3-0.1-0.6-0.2-0.9-0.2c-0.3,0-0.7,0.1-0.9,0.2c-0.3,0.1-0.5,0.3-0.7,0.5c-0.2,0.2-0.3,0.5-0.4,0.8
		c-0.1,0.3-0.2,0.7-0.2,1s0.1,0.7,0.2,1C96.7,5,96.8,5.3,97,5.5c0.2,0.2,0.4,0.4,0.7,0.5c0.3,0.1,0.6,0.2,0.9,0.2
		c0.3,0,0.7-0.1,0.9-0.2c0.3-0.1,0.5-0.3,0.7-0.5c0.2-0.2,0.3-0.5,0.4-0.8C100.8,4.4,100.9,4.1,100.9,3.7z"/>
	<path class="st14" d="M108.4,0.1h1.1c0.1,0,0.2,0,0.3,0.1c0.1,0.1,0.1,0.1,0.2,0.2l1.2,4.2c0,0.1,0.1,0.2,0.1,0.3
		c0,0.1,0.1,0.2,0.1,0.4c0-0.1,0.1-0.3,0.1-0.4c0-0.1,0.1-0.2,0.1-0.3l1.4-4.2c0-0.1,0.1-0.1,0.2-0.2c0.1-0.1,0.2-0.1,0.3-0.1h0.4
		c0.1,0,0.2,0,0.3,0.1c0.1,0.1,0.1,0.1,0.2,0.2l1.4,4.2c0.1,0.2,0.1,0.4,0.2,0.7c0-0.1,0-0.2,0.1-0.4c0-0.1,0.1-0.2,0.1-0.3l1.2-4.2
		c0-0.1,0.1-0.2,0.2-0.2c0.1-0.1,0.2-0.1,0.3-0.1h1l-2.2,7.1h-1.2l-1.5-4.8c0-0.1,0-0.1-0.1-0.2c0-0.1,0-0.1-0.1-0.2
		c0,0.1,0,0.2-0.1,0.2c0,0.1,0,0.1-0.1,0.2l-1.6,4.8h-1.2L108.4,0.1z"/>
	<path class="st14" d="M125.7,0.1v1h-3.1v2h2.5v1h-2.5v2h3.1v1.1h-4.5V0.1H125.7z"/>
	<path class="st14" d="M133.3,0.1v1h-3.1v2h2.5v1h-2.5v2h3.1v1.1h-4.5V0.1H133.3z"/>
</g>
</svg>
