<svg width="247" height="44" viewBox="0 0 247 44" fill="none" xmlns="http://www.w3.org/2000/svg">
<path d="M50.0006 0.201852V1.69835H45.5181V4.69134H49.3013V6.19482H45.5181V10.3137H43.623V0.201852H50.0006Z" fill="white"/>
<path d="M62.1374 10.3137H60.6828C60.5196 10.3137 60.3845 10.2741 60.2772 10.1948C60.1747 10.1109 60.1001 10.0083 60.0535 9.88711L59.2982 7.82418H55.1094L54.3542 9.88711C54.3169 9.99433 54.2423 10.0922 54.1304 10.1808C54.0232 10.2694 53.8903 10.3137 53.7318 10.3137H52.2703L56.2423 0.201852H58.1654L62.1374 10.3137ZM55.5919 6.49552H58.8157L57.5849 3.1319C57.529 2.98272 57.4661 2.8079 57.3961 2.60743C57.3309 2.40231 57.2656 2.18086 57.2003 1.9431C57.1351 2.18086 57.0698 2.40231 57.0045 2.60743C56.9439 2.81256 56.8833 2.99205 56.8227 3.14589L55.5919 6.49552Z" fill="white"/>
<path d="M71.3955 2.041C71.3442 2.14357 71.2836 2.21583 71.2137 2.25778C71.1484 2.29974 71.0692 2.32072 70.9759 2.32072C70.8827 2.32072 70.7778 2.28576 70.6612 2.21583C70.5447 2.14124 70.4072 2.05965 70.2486 1.97107C70.0901 1.8825 69.9037 1.80324 69.6892 1.73331C69.4794 1.65872 69.23 1.62142 68.941 1.62142C68.6799 1.62142 68.4515 1.65406 68.2557 1.71933C68.0645 1.77993 67.9013 1.86618 67.7661 1.97807C67.6356 2.08995 67.5377 2.22515 67.4724 2.38366C67.4072 2.5375 67.3745 2.70767 67.3745 2.89414C67.3745 3.13191 67.4398 3.33004 67.5703 3.48855C67.7055 3.64705 67.8827 3.78225 68.1018 3.89414C68.3209 4.00603 68.5703 4.10626 68.8501 4.19484C69.1298 4.28341 69.4142 4.37898 69.7032 4.48155C69.9969 4.57945 70.2836 4.696 70.5633 4.8312C70.8431 4.96173 71.0925 5.12956 71.3116 5.33469C71.5307 5.53515 71.7055 5.78224 71.8361 6.07594C71.9712 6.36965 72.0388 6.72629 72.0388 7.14587C72.0388 7.60274 71.9596 8.03164 71.8011 8.43257C71.6472 8.82884 71.4188 9.17616 71.1158 9.47452C70.8174 9.76823 70.4514 10.0013 70.0179 10.1738C69.5843 10.3417 69.0878 10.4256 68.5284 10.4256C68.2067 10.4256 67.8897 10.3929 67.5773 10.3277C67.265 10.2671 66.9643 10.1785 66.6752 10.0619C66.3909 9.94538 66.1228 9.80552 65.8711 9.64236C65.624 9.47919 65.4025 9.29737 65.2067 9.0969L65.7522 8.19481C65.8035 8.12954 65.8641 8.07593 65.934 8.03397C66.0086 7.98735 66.0902 7.96404 66.1787 7.96404C66.2953 7.96404 66.4212 8.01299 66.5564 8.1109C66.6916 8.20414 66.8501 8.30903 67.0319 8.42558C67.2184 8.54213 67.4351 8.64935 67.6822 8.74726C67.934 8.8405 68.2347 8.88711 68.5843 8.88711C69.1205 8.88711 69.5354 8.76124 69.8291 8.50949C70.1228 8.25309 70.2696 7.88712 70.2696 7.4116C70.2696 7.14587 70.202 6.92908 70.0668 6.76125C69.9363 6.59342 69.7615 6.45356 69.5424 6.34168C69.3232 6.22513 69.0738 6.12722 68.7941 6.04797C68.5144 5.96872 68.23 5.88247 67.941 5.78923C67.6519 5.69599 67.3675 5.5841 67.0878 5.45357C66.8081 5.32303 66.5587 5.15287 66.3396 4.94308C66.1205 4.73329 65.9433 4.47222 65.8081 4.15987C65.6776 3.84286 65.6123 3.45358 65.6123 2.99205C65.6123 2.62375 65.6846 2.26478 65.8291 1.91513C65.9783 1.56548 66.1927 1.25546 66.4724 0.985064C66.7568 0.71467 67.1041 0.497888 67.5144 0.334719C67.9247 0.17155 68.3932 0.0899658 68.92 0.0899658C69.5167 0.0899658 70.0668 0.183205 70.5703 0.369684C71.0738 0.556163 71.5027 0.817234 71.857 1.1529L71.3955 2.041Z" fill="white"/>
<path d="M84.8029 10.3137H82.9078V5.89413H78.1665V10.3137H76.2714V0.201852H78.1665V4.55148H82.9078V0.201852H84.8029V10.3137Z" fill="white"/>
<path d="M91.7589 10.3137H89.8708V0.201852H91.7589V10.3137Z" fill="white"/>
<path d="M106.534 5.25777C106.534 5.99902 106.411 6.68666 106.164 7.32069C105.917 7.95006 105.569 8.49551 105.122 8.95704C104.674 9.41858 104.136 9.77988 103.506 10.041C102.877 10.2974 102.18 10.4256 101.416 10.4256C100.651 10.4256 99.9517 10.2974 99.3176 10.041C98.6883 9.77988 98.1475 9.41858 97.6953 8.95704C97.2477 8.49551 96.9004 7.95006 96.6533 7.32069C96.4062 6.68666 96.2827 5.99902 96.2827 5.25777C96.2827 4.51651 96.4062 3.8312 96.6533 3.20183C96.9004 2.56781 97.2477 2.02002 97.6953 1.55849C98.1475 1.09695 98.6883 0.73798 99.3176 0.481571C99.9517 0.220501 100.651 0.0899658 101.416 0.0899658C102.18 0.0899658 102.877 0.220501 103.506 0.481571C104.136 0.742642 104.674 1.10395 105.122 1.56548C105.569 2.02235 105.917 2.56781 106.164 3.20183C106.411 3.8312 106.534 4.51651 106.534 5.25777ZM104.604 5.25777C104.604 4.70299 104.53 4.20649 104.381 3.76826C104.236 3.32538 104.026 2.95009 103.751 2.6424C103.476 2.33471 103.14 2.09928 102.744 1.93611C102.353 1.77294 101.91 1.69135 101.416 1.69135C100.921 1.69135 100.476 1.77294 100.08 1.93611C99.6836 2.09928 99.3456 2.33471 99.0659 2.6424C98.7908 2.95009 98.5787 3.32538 98.4295 3.76826C98.2803 4.20649 98.2058 4.70299 98.2058 5.25777C98.2058 5.81254 98.2803 6.31137 98.4295 6.75426C98.5787 7.19249 98.7908 7.56544 99.0659 7.87313C99.3456 8.17616 99.6836 8.40926 100.08 8.57243C100.476 8.7356 100.921 8.81719 101.416 8.81719C101.91 8.81719 102.353 8.7356 102.744 8.57243C103.14 8.40926 103.476 8.17616 103.751 7.87313C104.026 7.56544 104.236 7.19249 104.381 6.75426C104.53 6.31137 104.604 5.81254 104.604 5.25777Z" fill="white"/>
<path d="M111.804 0.201852C111.888 0.201852 111.958 0.206514 112.014 0.215838C112.07 0.2205 112.119 0.234486 112.161 0.257796C112.208 0.276444 112.252 0.306747 112.294 0.348705C112.336 0.386001 112.382 0.437282 112.434 0.50255L117.741 7.26475C117.723 7.10158 117.709 6.94307 117.699 6.78923C117.695 6.63072 117.692 6.48387 117.692 6.34867V0.201852H119.35V10.3137H118.378C118.229 10.3137 118.105 10.2904 118.007 10.2437C117.909 10.1971 117.814 10.1132 117.72 9.992L112.434 3.25778C112.448 3.40696 112.457 3.55614 112.462 3.70533C112.471 3.84985 112.476 3.98272 112.476 4.10393V10.3137H110.818V0.201852H111.804Z" fill="white"/>
<path d="M128.83 8.92907C129.254 8.92907 129.623 8.89178 129.935 8.81719C130.252 8.73793 130.553 8.63071 130.837 8.49551V6.65636H129.571C129.45 6.65636 129.355 6.62373 129.285 6.55846C129.215 6.48853 129.18 6.40461 129.18 6.30671V5.24378H132.544V9.33466C132.287 9.52114 132.019 9.68431 131.739 9.82417C131.464 9.95937 131.168 10.0713 130.851 10.1598C130.539 10.2484 130.203 10.3137 129.844 10.3556C129.485 10.4023 129.098 10.4256 128.683 10.4256C127.947 10.4256 127.268 10.2974 126.648 10.041C126.028 9.78455 125.492 9.4279 125.04 8.97103C124.588 8.51416 124.234 7.96871 123.977 7.33468C123.725 6.70065 123.6 6.00834 123.6 5.25777C123.6 4.49786 123.723 3.8009 123.97 3.16687C124.217 2.53284 124.567 1.98739 125.019 1.53052C125.476 1.07364 126.028 0.719332 126.676 0.467585C127.324 0.215839 128.052 0.0899658 128.858 0.0899658C129.683 0.0899658 130.397 0.213508 130.998 0.460593C131.604 0.703015 132.117 1.02003 132.537 1.41164L131.991 2.26478C131.884 2.43727 131.742 2.52352 131.564 2.52352C131.453 2.52352 131.338 2.48622 131.222 2.41163C131.073 2.32305 130.919 2.23447 130.76 2.1459C130.606 2.05732 130.434 1.9804 130.243 1.91513C130.056 1.84986 129.844 1.79625 129.606 1.75429C129.373 1.71233 129.103 1.69135 128.795 1.69135C128.296 1.69135 127.844 1.77527 127.439 1.9431C127.038 2.11093 126.695 2.35102 126.411 2.66338C126.126 2.97573 125.907 3.35102 125.753 3.78924C125.599 4.22747 125.523 4.71698 125.523 5.25777C125.523 5.84051 125.604 6.36032 125.767 6.8172C125.93 7.26941 126.159 7.65169 126.453 7.96404C126.746 8.2764 127.096 8.51649 127.502 8.68432C127.907 8.84749 128.35 8.92907 128.83 8.92907Z" fill="white"/>
<path d="M146.79 5.25777C146.79 5.99902 146.667 6.68666 146.42 7.32069C146.173 7.95006 145.825 8.49551 145.378 8.95704C144.93 9.41858 144.392 9.77988 143.762 10.041C143.133 10.2974 142.436 10.4256 141.671 10.4256C140.907 10.4256 140.208 10.2974 139.574 10.041C138.944 9.77988 138.403 9.41858 137.951 8.95704C137.504 8.49551 137.156 7.95006 136.909 7.32069C136.662 6.68666 136.539 5.99902 136.539 5.25777C136.539 4.51651 136.662 3.8312 136.909 3.20183C137.156 2.56781 137.504 2.02002 137.951 1.55849C138.403 1.09695 138.944 0.73798 139.574 0.481571C140.208 0.220501 140.907 0.0899658 141.671 0.0899658C142.436 0.0899658 143.133 0.220501 143.762 0.481571C144.392 0.742642 144.93 1.10395 145.378 1.56548C145.825 2.02235 146.173 2.56781 146.42 3.20183C146.667 3.8312 146.79 4.51651 146.79 5.25777ZM144.86 5.25777C144.86 4.70299 144.786 4.20649 144.637 3.76826C144.492 3.32538 144.282 2.95009 144.007 2.6424C143.732 2.33471 143.396 2.09928 143 1.93611C142.609 1.77294 142.166 1.69135 141.671 1.69135C141.177 1.69135 140.732 1.77294 140.336 1.93611C139.94 2.09928 139.602 2.33471 139.322 2.6424C139.047 2.95009 138.835 3.32538 138.686 3.76826C138.536 4.20649 138.462 4.70299 138.462 5.25777C138.462 5.81254 138.536 6.31137 138.686 6.75426C138.835 7.19249 139.047 7.56544 139.322 7.87313C139.602 8.17616 139.94 8.40926 140.336 8.57243C140.732 8.7356 141.177 8.81719 141.671 8.81719C142.166 8.81719 142.609 8.7356 143 8.57243C143.396 8.40926 143.732 8.17616 144.007 7.87313C144.282 7.56544 144.492 7.19249 144.637 6.75426C144.786 6.31137 144.86 5.81254 144.86 5.25777Z" fill="white"/>
<path d="M155.639 0.201852H157.219C157.382 0.201852 157.518 0.24148 157.625 0.320734C157.737 0.395325 157.811 0.497888 157.849 0.628423L159.569 6.67734C159.611 6.82652 159.648 6.98969 159.681 7.16685C159.718 7.33934 159.753 7.52349 159.786 7.71929C159.823 7.52349 159.862 7.33934 159.904 7.16685C159.951 6.98969 160 6.82652 160.051 6.67734L162.037 0.628423C162.075 0.521198 162.147 0.423296 162.254 0.334719C162.366 0.246141 162.501 0.201852 162.66 0.201852H163.212C163.375 0.201852 163.51 0.24148 163.618 0.320734C163.725 0.395325 163.8 0.497888 163.841 0.628423L165.814 6.67734C165.916 6.9757 166.005 7.3067 166.079 7.67034C166.112 7.48852 166.145 7.3137 166.177 7.14587C166.214 6.97804 166.252 6.82186 166.289 6.67734L168.009 0.628423C168.042 0.511874 168.114 0.411642 168.226 0.327726C168.338 0.24381 168.473 0.201852 168.632 0.201852H170.107L166.967 10.3137H165.268L163.058 3.40463C163.03 3.31605 163 3.22048 162.967 3.11792C162.939 3.01536 162.911 2.9058 162.883 2.78925C162.855 2.9058 162.825 3.01536 162.793 3.11792C162.765 3.22048 162.737 3.31605 162.709 3.40463L160.478 10.3137H158.779L155.639 0.201852Z" fill="white"/>
<path d="M180.392 0.201852V1.69835H175.91V4.50253H179.441V5.95007H175.91V8.81019H180.392V10.3137H174.015V0.201852H180.392Z" fill="white"/>
<path d="M191.193 0.201852V1.69835H186.71V4.50253H190.242V5.95007H186.71V8.81019H191.193V10.3137H184.815V0.201852H191.193Z" fill="white"/>
<path d="M197.56 4.43959H198.001C198.178 4.43959 198.325 4.41628 198.441 4.36966C198.558 4.31838 198.658 4.23912 198.742 4.1319L201.532 0.600452C201.649 0.451268 201.77 0.348705 201.896 0.292761C202.026 0.232155 202.19 0.201852 202.385 0.201852H204.008L200.602 4.40462C200.495 4.53516 200.392 4.64472 200.294 4.73329C200.197 4.82187 200.092 4.89413 199.98 4.95008C200.134 5.00602 200.271 5.08527 200.392 5.18784C200.518 5.2904 200.639 5.42094 200.756 5.57944L204.267 10.3137H202.602C202.378 10.3137 202.211 10.2834 202.099 10.2228C201.991 10.1575 201.901 10.0643 201.826 9.94305L198.966 6.20881C198.873 6.0876 198.768 6.00135 198.651 5.95007C198.535 5.89413 198.369 5.86615 198.155 5.86615H197.56V10.3137H195.679V0.19486H197.56V4.43959Z" fill="white"/>
<path d="M8.88563 36.3307V34.05H10.8848C14.7985 34.05 20.4298 33.6839 20.4298 28.2497C20.4298 22.5902 14.7985 22.6747 10.8848 22.6747H0.466797V23.1534C3.47956 23.266 3.28246 23.6883 3.28246 29.2634V36.1899C3.28246 41.7649 3.47956 42.1873 0.466797 42.2717V42.7785H11.7013V42.2717C8.68853 42.1873 8.88563 41.9057 8.88563 36.3307ZM8.88563 23.1534H9.92743C12.5741 23.1534 14.5451 24.3359 14.5451 28.2497C14.5451 31.9101 12.5741 33.5713 9.92743 33.5713H8.88563V23.1534Z" fill="white"/>
<path d="M35.5843 36.387L29.8966 22.2242H28.9393L22.9983 36.1054C20.802 41.2581 20.4923 42.1873 17.7048 42.2717V42.7785H25.0255V42.2717C21.6186 42.1873 21.5623 41.2862 23.4206 36.8938H30.0093C31.8676 41.6804 32.2336 42.1873 28.9393 42.2717V42.7785H40.3427V42.2717C37.865 42.1591 37.6397 41.5115 35.5843 36.387ZM23.7303 36.1617L26.8839 28.841L29.7559 36.2462H23.7022L23.7303 36.1617Z" fill="white"/>
<path d="M51.903 42.2999H50.101V29.2634C50.101 23.6883 49.9039 23.266 52.9167 23.1534V22.6747H41.6822V23.1534C44.6949 23.266 44.4978 23.6883 44.4978 29.2634V36.1899C44.4978 41.7649 44.6949 42.1873 41.6822 42.2717V42.7785H60.9131L61.3918 33.9937L60.8568 33.9374C60.2092 37.3162 56.3799 42.2999 51.903 42.2999Z" fill="white"/>
<path d="M91.3571 23.1534V22.6747H82.8819L78.1798 34.8384L73.6747 22.6747H63.9325V23.1534L65.2559 23.2378C66.0724 23.2941 66.6637 23.4912 67.1424 23.8854V36.1899C67.1424 41.6241 66.9734 42.1873 63.6509 42.2717V42.7785H71.394V42.2717C68.1278 42.1873 67.8463 41.6241 67.8463 36.1899V24.6457C68.3531 25.3777 68.7755 26.4195 69.3386 27.8274L75.167 42.7785H76.0117L82.9382 24.5894V36.1899C82.9382 41.7649 83.4169 42.1873 80.4041 42.2717V42.7785H91.6386V42.2717C88.6259 42.1873 88.5414 41.7649 88.5414 36.1899V29.2634C88.5414 23.6883 88.3443 23.266 91.3571 23.1534Z" fill="white"/>
<path d="M101.842 28.475C101.842 36.218 114.287 34.5568 114.287 40.1881C114.287 42.2717 112.344 42.7785 109.782 42.7785C106.403 42.7785 103.053 39.7939 102.011 35.0073H101.645V43.398H102.011C102.377 42.4125 102.771 41.7086 103.644 41.7086C105.164 41.7086 106.291 43.398 110.204 43.398C113.161 43.398 118.201 41.8775 118.201 36.6122C118.201 29.4886 105.361 30.9528 105.361 25.603C105.361 23.7728 107.023 22.6747 109.275 22.6747C112.513 22.6747 115.076 25.4904 116.202 30.3896H116.568V22.0271H116.202C115.948 22.9281 115.498 23.7165 114.625 23.7165C113.133 23.7165 112.26 22.0553 109.332 22.0553C105.249 22.0553 101.842 24.9272 101.842 28.475Z" fill="white"/>
<path d="M128.902 36.3307V34.05H130.901C134.815 34.05 140.446 33.6839 140.446 28.2497C140.446 22.5902 134.815 22.6747 130.901 22.6747H120.483V23.1534C123.496 23.266 123.299 23.6883 123.299 29.2634V36.1899C123.299 41.7649 123.496 42.1873 120.483 42.2717V42.7785H131.718V42.2717C128.705 42.1873 128.902 41.9057 128.902 36.3307ZM128.902 23.1534H129.944C132.591 23.1534 134.562 24.3359 134.562 28.2497C134.562 31.9101 132.591 33.5713 129.944 33.5713H128.902V23.1534Z" fill="white"/>
<path d="M150.981 36.1899V33.2053C152.896 33.2053 154.388 33.2898 155.12 34.4442C156.359 36.387 154.472 43.2854 160.751 43.2854C164.327 43.2854 165.566 41.061 165.651 38.7803L165.679 37.9356H165.172L165.144 38.7803C165.059 39.991 164.524 40.8357 163.651 40.8357C160.864 40.8357 163.06 33.6276 156.077 32.9519C159.428 32.5858 162.807 31.4596 162.807 27.8274C162.807 22.5902 156.894 22.6747 152.98 22.6747H142.562V23.1534C145.575 23.266 145.378 23.6883 145.378 29.2634V36.1899C145.378 41.7649 145.575 42.1873 142.562 42.2717V42.7785H153.797V42.2717C150.784 42.1873 150.981 41.7649 150.981 36.1899ZM150.981 23.1534H152.023C154.669 23.1534 156.922 24.3359 156.922 27.8274C156.922 31.0654 154.669 32.7266 152.023 32.7266H150.981V23.1534Z" fill="white"/>
<path d="M175.782 36.1899V29.2634C175.782 23.6883 175.585 23.266 178.598 23.1534V22.6747H167.363V23.1534C170.376 23.266 170.179 23.6883 170.179 29.2634V36.1899C170.179 41.7649 170.376 42.1873 167.363 42.2717V42.7785H178.598V42.2717C175.585 42.1873 175.782 41.7649 175.782 36.1899Z" fill="white"/>
<path d="M199.326 29.2634V34.2471L189.499 22.6747H180.01V23.1815H181.052C182.066 23.1815 182.77 23.632 183.502 24.4204V36.1899C183.502 41.6241 183.333 42.1873 180.01 42.2717V42.7785H188.317V42.2717C184.487 42.1873 184.206 41.6241 184.206 36.1899V25.2088C184.6 25.7156 185.05 26.2788 185.585 26.8982L199.044 42.7785H200.03V29.2634C200.03 23.8291 200.311 23.266 203.578 23.1815V22.6747H195.271V23.1815C199.157 23.266 199.326 23.8291 199.326 29.2634Z" fill="white"/>
<path d="M221.409 41.2581C222.929 41.2581 224.084 42.2999 224.45 43.3698L224.9 43.229V37.7385C225.069 34.6694 225.069 34.2189 227.941 33.9374V33.4587H215.89V33.9374C219.494 34.05 219.579 34.6976 219.579 37.7385C219.579 41.0047 218.143 42.2436 216.144 42.2436C213.553 42.2436 211.132 38.6677 211.132 32.5295C211.132 25.9409 213.722 22.9563 217.185 22.9563C219.916 22.9563 223.211 24.8428 224.281 30.3896H224.647V22.0271H224.253C224.112 22.7873 223.633 23.7165 222.76 23.7165C221.352 23.7165 220.395 22.0553 216.284 22.0553C210.597 22.0553 205.106 25.9127 205.106 32.98C205.106 39.8784 210.597 43.398 214.679 43.398C218.509 43.398 219.241 41.2581 221.409 41.2581Z" fill="white"/>
<path d="M230.245 28.475C230.245 36.218 242.69 34.5568 242.69 40.1881C242.69 42.2717 240.747 42.7785 238.185 42.7785C234.806 42.7785 231.456 39.7939 230.414 35.0073H230.048V43.398H230.414C230.78 42.4125 231.174 41.7086 232.047 41.7086C233.567 41.7086 234.694 43.398 238.607 43.398C241.564 43.398 246.604 41.8775 246.604 36.6122C246.604 29.4886 233.765 30.9528 233.765 25.603C233.765 23.7728 235.426 22.6747 237.678 22.6747C240.916 22.6747 243.479 25.4904 244.605 30.3896H244.971V22.0271H244.605C244.351 22.9281 243.901 23.7165 243.028 23.7165C241.536 23.7165 240.663 22.0553 237.735 22.0553C233.652 22.0553 230.245 24.9272 230.245 28.475Z" fill="white"/>
</svg>
